<?xml version="1.0" encoding="UTF-8" standalone="no"?><!DOCTYPE svg PUBLIC "-//W3C//DTD SVG 1.1//EN" "http://www.w3.org/Graphics/SVG/1.1/DTD/svg11.dtd"><svg width="100%" height="100%" viewBox="0 0 4099 3900" version="1.1" xmlns="http://www.w3.org/2000/svg" xmlns:xlink="http://www.w3.org/1999/xlink" xml:space="preserve" xmlns:serif="http://www.serif.com/" style="fill-rule:evenodd;clip-rule:evenodd;stroke-linecap:round;stroke-linejoin:round;stroke-miterlimit:1.5;"><g id="george"><g id="shadow"><path id="shadow1" serif:id="shadow" d="M1399.356,3546.493c123.456,-44.092 1152.209,-16.227 1189.371,-12.187c0.895,0.097 316.648,24.845 62.187,84.375c-121.962,28.532 -767.886,14.12 -773.435,13.75c-440.105,-29.34 -488.838,-8.621 -478.123,-85.937Z" style="fill:#716051;"/></g><g id="head"><g id="eyes"><g id="color"><path id="base" d="M1624.434,1388.446c160.457,-55.745 210.03,124.022 121.8,185.4c-119.28,82.977 -255.724,-84.957 -121.8,-185.4Zm674.999,-9c15.89,-1.204 90.979,-27.841 131.8,53.8c15.981,31.962 12.769,115.853 -55.4,136.6c-127.951,38.942 -174.385,-141.407 -76.4,-190.4Z" style="fill:#3f3645;"/><path id="hlight" d="M1645.49,1419.506c-56.419,9.603 -46.232,61.325 -20.089,57.142c23.721,-3.795 61.866,-49.518 20.089,-57.142Zm659.543,-14.841c-23.399,5.4 -43.067,65.102 -13.393,62.499c14.094,-1.236 87.97,-60.043 13.393,-62.499Z" style="fill:#e8d2ea;"/></g><path id="line" d="M1624.434,1388.446c-133.924,100.443 2.52,268.377 121.8,185.4c88.23,-61.377 38.657,-241.145 -121.8,-185.4Zm674.999,-9c-97.985,48.993 -51.551,229.341 76.4,190.4c68.169,-20.747 71.381,-104.638 55.4,-136.6c-40.821,-81.641 -115.91,-55.003 -131.8,-53.8Z" style="fill:none;stroke:#3f3645;stroke-width:25px;"/></g><g id="hair"><g id="color1" serif:id="color"><path id="base1" serif:id="base" d="M1966.412,1672.769c71.171,15.097 60.727,129.726 -45.066,147.468c-75.223,12.615 -106.85,-6.959 -173.256,69.603c-60.822,70.125 -1.434,111.715 -118.09,200.313c71.546,-164.496 13.293,-216.358 73.274,-293.701c94.277,-121.568 239.879,-123.391 263.138,-123.682Zm131.444,0c150.269,-4.135 263.138,119.145 265.141,121.93c54.222,75.382 20.424,161.896 47.714,273.727c-98.034,-44.422 -74.585,-96.636 -108.304,-192.858c-28.167,-80.38 -99.516,-28.368 -186.275,-46.318c-91.631,-18.958 -70.814,-121.807 -18.277,-156.481Zm-751.108,172.755c-6.511,84.647 70.565,172.528 65.597,196.54c-14.175,68.514 -24.518,67.851 -12.281,179.3c-86.265,-92.204 -78.913,-156.238 -80.353,-190.942c-30.254,41.81 -48.069,71.569 -121.578,104.803c74.048,-145.197 13.17,-148.79 -13.374,-157.505c-45.718,-15.012 53.831,-123.336 60.339,-118.174c6.059,4.806 8.229,33.331 63.784,14.745c24.007,-8.031 35.752,-25.603 37.866,-28.766Zm606.766,-1782.301c90.136,-49.281 267.256,-110.486 568.859,74.056c176.105,107.754 205.551,74.372 325.167,243.484c96.11,135.88 50.397,182.074 178.791,296.799c-46.124,9.543 -55.674,15.577 -89.719,1.523c43.862,70.686 87.283,84.61 128.202,202.884c32.927,95.173 19.222,171.054 2.288,225.626c2.592,9.923 4.869,20.563 6.725,31.954c12.44,76.338 -21.92,141.36 46.867,204.352c-61.711,20.424 -78.985,-6.6 -95.887,-52.525c-3.466,42.203 -4.32,122.597 -70.357,224.929c-15.785,24.461 -94.876,147.022 -273.389,240.165c40.857,-75.372 87.255,-161.161 52.263,-253.785c-19.673,-52.076 -68.826,-110.364 -77.38,-197.027c-60.225,-22.816 -106.132,-19.213 -175.744,-46.895c-174.13,-69.245 -252.044,-203.027 -292.619,-248.179c-52.914,-58.882 -136.946,-58.88 -205.814,-101.446c0.063,-1.892 0.132,-3.767 0.205,-5.627c-0.897,1.347 -1.805,2.696 -2.724,4.046c0.837,0.533 1.677,1.06 2.519,1.581c-3.624,108.589 10.096,268.924 91.97,435.086c-110.396,-79.192 -178.021,-209.706 -210.221,-303.723c-100.582,97.994 -211.936,178.767 -218.25,182.888c-92.272,60.228 -171.74,94.452 -233.783,113.839c-27.349,47.762 -82.277,72.541 -98.709,112.574c-40.608,98.936 -10.224,277.331 27.825,351.047c-55.987,-46.917 -100.182,-115.64 -130.145,-180.313c-4.923,56.237 -10.067,64.359 -16.408,96.754c-13.309,-117.36 -15.672,-152.091 -88.453,-213.617c-125.001,-105.671 -132.896,-118.878 -104.842,-280.727c35.224,-203.213 -108.062,-308.569 88.255,-502.304c135.718,-133.933 188.384,-411.419 349.578,-535.165c272.934,-209.525 412.495,-182.764 514.928,-122.253Z" style="fill:#635463;"/><path id="shade" d="M1981.768,909.137c-3.624,108.589 10.096,268.924 91.97,435.086c-110.396,-79.192 -178.021,-209.706 -210.221,-303.723c-100.582,97.994 -211.936,178.767 -218.25,182.888c-92.272,60.228 -171.74,94.452 -233.783,113.839c-27.349,47.762 -82.277,72.541 -98.709,112.574c-40.608,98.936 -10.224,277.331 27.825,351.047c-55.987,-46.917 -100.182,-115.64 -130.145,-180.313c-4.923,56.237 -10.067,64.359 -16.408,96.754c-13.309,-117.36 -15.672,-152.091 -88.453,-213.617c-103.301,-87.327 -126.626,-111.506 -115.778,-208.613c33.458,8.879 71.309,11.159 114.065,4.237c212.27,-34.368 424.999,-349.102 455.415,-376.793c51.441,-46.834 220.584,-26.782 215.758,-128.127c-4.94,-103.741 -50.924,-284.554 35.441,-400.654c31.435,166.005 112.792,211.324 246.833,315.678c145.146,112.999 265.366,201.288 319.002,278.92c193.347,279.845 233.233,-67.824 244.679,-141.689c15.134,-97.664 239.787,688.6 247.543,212.303c-2.923,192.684 157.576,181.279 245.704,286.974c-56.506,16.465 -73.15,-10.245 -89.449,-54.531c-3.466,42.203 -4.32,122.597 -70.357,224.929c-15.785,24.461 -94.876,147.022 -273.389,240.165c40.857,-75.372 87.255,-161.161 52.263,-253.785c-19.673,-52.076 -68.826,-110.364 -77.38,-197.027c-60.225,-22.816 -106.132,-19.213 -175.744,-46.895c-174.13,-69.245 -252.044,-203.027 -292.619,-248.179c-52.914,-58.882 -136.946,-58.88 -205.814,-101.446Zm-635.02,936.387c-6.511,84.647 70.565,172.528 65.597,196.54c-14.175,68.514 -24.518,67.851 -12.281,179.3c-86.265,-92.204 -78.913,-156.238 -80.353,-190.942c-30.254,41.81 -48.069,71.569 -121.578,104.803c74.048,-145.197 13.17,-148.79 -13.374,-157.505c-45.718,-15.012 53.831,-123.336 60.339,-118.174c6.059,4.806 8.229,33.331 63.784,14.745c24.007,-8.031 35.752,-25.603 37.866,-28.766Zm751.108,-172.755c150.269,-4.135 263.138,119.145 265.141,121.93c54.222,75.382 20.424,161.896 47.714,273.727c-98.034,-44.422 -74.585,-96.636 -108.304,-192.858c-28.167,-80.38 -99.516,-28.368 -186.275,-46.318c-91.631,-18.958 -70.814,-121.807 -18.277,-156.481Zm-131.444,0c71.171,15.097 60.727,129.726 -45.066,147.468c-75.223,12.615 -106.85,-6.959 -173.256,69.603c-60.822,70.125 -1.434,111.715 -118.09,200.313c71.546,-164.496 13.293,-216.358 73.274,-293.701c94.277,-121.568 239.879,-123.391 263.138,-123.682Z" style="fill:#554659;"/><path id="hlight1" serif:id="hlight" d="M1704.236,201.025c-29.605,-1.11 -189.839,-7.119 -312.208,199.161c-129.936,219.036 -59.723,280.089 -280.294,406.859c192.467,54.478 430.082,-176.756 437.726,-187.213c147.515,-201.8 32.969,-253.389 154.776,-418.807Zm358.49,45.522c103.85,86.541 129.421,232.69 272.642,281.801c-135.95,-296.68 -102.611,-324.623 -164.526,-348.947c-9.877,-3.88 -208.044,9.751 -108.116,67.146Zm284.516,51.213c-3.083,-2.312 -8.295,10.313 47.799,69.422c84.858,89.42 124.937,82.934 164.737,91.86c-98.001,-124.901 -72.262,-215.638 -212.536,-161.282Z" style="fill:#947f8c;"/></g><path id="line1" serif:id="line" d="M1879.002,742.375c48.292,234.562 221.03,170.784 308.58,268.208c40.576,45.152 118.489,178.934 292.619,248.179c108.916,43.312 159.8,10.038 298.294,121.193c-52.327,-148.606 -54.035,-156.484 -113.959,-222.906m-8.591,148.608c8.553,86.663 57.707,144.952 77.38,197.027c34.992,92.625 -11.406,178.413 -52.263,253.785c178.513,-93.144 257.604,-215.705 273.389,-240.165c66.037,-102.332 66.891,-182.726 70.357,-224.929c16.902,45.925 34.176,72.949 95.887,52.525c-68.787,-62.992 -34.427,-128.014 -46.867,-204.352c-1.856,-11.391 -4.133,-22.031 -6.725,-31.954c-19.979,-76.491 -58.664,-110.44 -67.584,-118.268m-108.961,-412.008c15.347,45.435 30.728,77.066 46.055,101.766c43.862,70.686 87.283,84.61 128.202,202.884c32.927,95.173 19.222,171.054 2.288,225.626m-1192.038,-1003.438c19.065,1.9 33.71,-16.473 78.45,-40.934c90.136,-49.281 267.256,-110.486 568.859,74.056c176.105,107.754 205.551,74.372 325.167,243.484c96.11,135.88 50.397,182.074 178.791,296.799c-46.124,9.543 -55.674,15.577 -89.719,1.523m-983.098,-615.862c-102.432,-60.512 -241.994,-87.273 -514.928,122.253c-161.195,123.745 -213.86,401.232 -349.578,535.165c-196.317,193.734 -53.032,299.091 -88.255,502.304c-28.054,161.849 -20.159,175.055 104.842,280.727c72.781,61.526 75.144,96.257 88.453,213.617c6.341,-32.395 11.485,-40.517 16.408,-96.754m-44.697,-157.443c-1.487,30.244 14.264,91.755 44.697,157.443c29.963,64.673 74.158,133.396 130.145,180.313c-38.049,-73.715 -68.433,-252.11 -27.825,-351.047c16.431,-40.033 71.36,-64.811 98.709,-112.574m-145.978,24.766c0.064,0.086 53.78,4.044 145.978,-24.766c62.042,-19.387 141.511,-53.611 233.783,-113.839c6.314,-4.121 117.669,-84.894 218.25,-182.888m115.731,-132.943c0.919,-1.35 1.827,-2.699 2.724,-4.046m-139.615,25.844c-4.848,10.667 1.661,54.215 21.159,111.145c32.2,94.017 99.825,224.531 210.221,303.723c-81.875,-166.161 -95.594,-326.497 -91.97,-435.086c0.063,-1.892 0.132,-3.767 0.205,-5.627m-635.225,942.014c-6.511,84.647 70.565,172.528 65.597,196.54c-14.175,68.514 -24.518,67.851 -12.281,179.3c-86.265,-92.204 -78.913,-156.238 -80.353,-190.942c-30.254,41.81 -48.069,71.569 -121.578,104.803c74.048,-145.197 13.17,-148.79 -13.374,-157.505c-45.718,-15.012 53.831,-123.336 60.339,-118.174c6.059,4.806 8.229,33.331 63.784,14.745c24.007,-8.031 35.752,-25.603 37.866,-28.766Zm619.664,-172.755c71.171,15.097 60.727,129.726 -45.066,147.468c-75.223,12.615 -106.85,-6.959 -173.256,69.603c-60.822,70.125 -1.434,111.715 -118.09,200.313c71.546,-164.496 13.293,-216.358 73.274,-293.701c94.277,-121.568 239.879,-123.391 263.138,-123.682Zm131.444,-0c-52.537,34.674 -73.354,137.523 18.277,156.481c86.759,17.95 158.108,-34.061 186.275,46.318c33.719,96.222 10.27,148.435 108.304,192.858c-27.291,-111.831 6.507,-198.345 -47.714,-273.727c-2.003,-2.785 -114.872,-126.065 -265.141,-121.93Z" style="fill:none;stroke:#3f3645;stroke-width:25px;"/></g></g><g id="instrument"><g id="color2" serif:id="color"><path id="base2" serif:id="base" d="M3330.076,1637.67c21.601,2.983 41.239,6.046 66.137,10.571c26.744,-22.152 64.73,-51.599 105.592,-79.331c70.13,-47.595 101.743,-64.528 140.417,-82.108c84.572,-6.094 204.279,0.723 366.57,115.918c26.617,18.893 55.942,54.39 77.188,83.42c-136.903,-2.265 -348.068,61.384 -377.47,70.246c-76.005,22.909 -152.006,75.891 -185.743,116.716c-54.888,-1.265 -94.161,-3.399 -121.033,-5.366c-32.559,16.4 -68.141,34.568 -106.207,54.193c-10.495,-19.277 -21.628,-39.645 -32.991,-60.274c111.815,-91.803 266.73,-137.149 367.093,-176.442c-214.799,-15.542 -351.996,52.551 -412.315,95.383c-12.926,-22.802 -25.449,-44.505 -36.956,-63.854c52.57,-27.095 102.987,-53.663 149.718,-79.074Zm534.42,1.888c-38.721,-2.979 -44.048,39.782 -17.818,49.225c29.224,10.521 57.787,-43.066 17.818,-49.225Zm-205.743,-96.142c-60.714,23.469 -19.165,57.328 -4.23,56.66c26.058,-1.167 34.132,-54.524 4.23,-56.66Zm63.454,142.29c-58.701,2.906 -42.185,49.317 -18.716,48.199c29.852,-1.422 71.298,-43.006 18.716,-48.199Zm73.068,-140.367c-29.079,-13.501 -35.65,51.952 5.384,44.353c36.14,-6.693 14.679,-62.326 -5.384,-44.353Zm-215.357,198.052c-48.992,-2.512 -35.943,55.183 -4.102,50.635c17.219,-2.46 57.824,-43.966 4.102,-50.635Zm-49.994,-124.984c-58.949,1.943 -32.62,45.299 -8.973,48.968c38.209,5.929 36.746,-65.941 8.973,-48.968Zm-3478.332,1556.359c-72.17,-337.868 21.58,-695.462 346.232,-823.757c606.349,-239.615 711.603,311.985 1150.163,-67.404c23.168,-20.042 441.777,-491.29 539.851,-323.63c31.746,54.271 -60.323,139.397 -27.166,297.45c-14.984,7.151 -30.647,14.609 -46.807,22.292c-39.209,18.641 -81.344,38.599 -123.806,58.668c-38.909,18.39 -78.093,36.873 -115.553,54.521c-37.795,17.806 -73.836,34.761 -106.069,49.912c-33.264,15.636 -62.472,29.35 -85.371,40.096c-12.806,-24.207 -23.628,-44.924 -31.147,-59.931c-31.973,21.449 -81.636,54.971 -115.045,78.518c41.835,79.013 116.482,214.581 131.578,245.39c24.94,50.899 29.735,65.717 46.365,94.679c37.383,-13.236 67.72,-34.094 124.603,-59.936c-5.012,-10.426 -10.817,-22.144 -17.224,-34.832c23.22,-11.173 51.207,-24.689 82.523,-39.952c31.7,-15.449 66.811,-32.688 103.844,-51.097c34.79,-17.294 71.275,-35.62 108.221,-54.466c43.797,-22.341 88.242,-45.411 131.276,-68.356c4.744,-2.53 9.471,-5.058 14.178,-7.583c7.731,60.452 62.233,136.028 212.203,186.018c13.516,4.505 272.59,56.597 244.431,101.677c-199.997,320.184 -791.121,129.286 -944.612,259.575c-376.223,319.352 -170.017,721.584 -787.267,807.566c-284.918,39.689 -517.335,-103.504 -668.11,-317.905c129.863,-64.216 163.088,-75.791 296.124,-160.64c-15.454,-29.099 -45.582,-90.33 -111.272,-244.141c-4.275,-10.009 -32.334,-75.709 -59.743,-128.901c-89.762,48.623 -216.358,109.422 -292.399,146.169Zm662.923,-330.291c43.181,86.084 124.096,273.036 169.698,368.415c24.829,-16.755 58.634,-37.204 76.343,-45.378c6.519,-3.009 11.425,-4.85 15.566,-6.16c-46.578,-115.584 -124.115,-286.03 -158.074,-362.159c-25.583,13.854 -50.665,28.487 -103.533,45.282Z" style="fill:#393d5a;"/><path id="hlight2" serif:id="hlight" d="M39.668,3108.892c-47.124,-317.383 54.545,-637.903 358.156,-757.883c245.258,-96.92 408.534,-64.392 545.045,-16.385c-104.819,93.186 -312.634,62.581 -330.57,62.111c-45.314,-1.19 -440.019,-11.552 -422.601,377.458c8.774,195.943 -72.63,304.351 -150.03,334.7Zm2054.447,-1113.183c-14.117,7.028 -30.249,14.015 -48.616,20.913c-291.932,109.64 -251.985,190.839 -411.22,230.647c-20.807,5.202 -35.773,2.657 -45.951,-5.324c111.862,-116.121 417.567,-422.053 499.509,-281.969c6.214,10.623 7.684,22.429 6.278,35.733Z" style="fill:#5b6580;"/><path id="shade1" serif:id="shade" d="M2406.889,2719.139c71.912,16.964 234.599,57.696 211.982,93.904c-199.997,320.184 -791.121,129.286 -944.612,259.575c-376.223,319.352 -170.017,721.584 -787.267,807.566c-238.304,33.195 -439.88,-61.545 -587.679,-218.881c298.116,70.04 597.797,44.613 718.391,-78.256c308.054,-313.866 198.478,-339.104 565.36,-584.769c489.23,-327.59 619.659,-105.686 823.824,-279.138Z" style="fill:#2e2e51;"/><path id="whites" d="M3795.275,1545.339c20.063,-17.973 41.524,37.661 5.384,44.353c-41.034,7.599 -34.463,-57.854 -5.384,-44.353Zm69.222,94.219c39.968,6.159 11.406,59.745 -17.818,49.225c-26.229,-9.443 -20.902,-52.203 17.818,-49.225Zm-142.29,46.148c52.583,5.193 11.136,46.778 -18.716,48.199c-23.469,1.118 -39.986,-45.293 18.716,-48.199Zm-63.454,-142.29c29.902,2.136 21.828,55.493 -4.23,56.66c-14.935,0.669 -56.484,-33.19 4.23,-56.66Zm-128.83,74.991c27.773,-16.972 29.236,54.897 -8.973,48.968c-23.646,-3.669 -49.976,-47.025 8.973,-48.968Zm49.994,124.984c53.722,6.669 13.117,48.175 -4.102,50.635c-31.841,4.549 -44.89,-53.147 4.102,-50.635Zm-362.603,37.207c60.32,-42.832 197.516,-110.924 412.315,-95.383c-100.363,39.293 -255.278,84.639 -367.093,176.442c-14.984,-27.201 -30.368,-54.856 -45.222,-81.059Zm-1665.396,642.387c7.519,15.007 18.341,35.723 31.147,59.931c40.432,76.432 100.643,187.667 139.131,263.888c6.407,12.688 12.212,24.406 17.224,34.832c-56.883,25.842 -87.219,46.701 -124.603,59.936c-16.63,-28.963 -21.425,-43.781 -46.365,-94.679c-15.096,-30.808 -89.742,-166.376 -131.578,-245.39c33.409,-23.547 83.072,-57.069 115.045,-78.518Zm-1539.418,770.768c10.502,-5.155 23.77,-11.583 39.091,-18.987c76.041,-36.748 202.637,-97.547 292.399,-146.169c27.409,53.192 55.469,118.892 59.743,128.901c65.69,153.811 95.818,215.042 111.272,244.141c-133.036,84.849 -166.26,96.424 -296.124,160.64c-12.871,6.365 -26.692,13.246 -41.653,20.768c-89.692,-110.604 -148.952,-257.094 -164.73,-389.294Zm702.014,-349.278c52.868,-16.794 77.95,-31.427 103.533,-45.282c33.959,76.129 111.496,246.575 158.074,362.159c-4.141,1.31 -9.047,3.151 -15.566,6.16c-17.709,8.173 -51.514,28.623 -76.343,45.378c-45.602,-95.379 -126.517,-282.331 -169.698,-368.415Z" style="fill:#f2e9d3;"/><path id="handle" d="M3184.423,1714.648l51.898,89.565c23.716,42.447 47.126,84.638 64.706,114.884c-310.182,159.783 -789.102,418.645 -1138.79,606.252c-159.644,85.649 -342.175,174.363 -440.042,221.454c-38.488,-76.221 -98.698,-187.456 -139.131,-263.888c100.972,-47.383 324.65,-152.498 477.606,-225.489c81.039,-38.672 159.276,-76.602 222.061,-108.187c36.694,-18.459 525.564,-240.514 901.691,-434.591Z" style="fill:#484b61;"/><path id="accent" d="M889.48,3517.293c73.847,27.968 40.232,99.255 -16.292,88.384c-49.94,-9.604 -41.265,-92.596 16.292,-88.384Zm-182.741,58.442c-18.212,-23.932 81.59,-202.119 198.946,-182.144c35.833,6.099 238.769,73.967 330.455,-92.143c-13.243,42.293 -34.58,237.671 -249.082,184.083c-159.529,-39.854 -215.054,17.704 -280.319,90.204Z" style="fill:#ff5b1d;"/></g><g id="line2" serif:id="line"><path id="outline" d="M12.5,3193.753c10.502,-5.155 23.77,-11.583 39.091,-18.987c76.041,-36.748 202.637,-97.547 292.399,-146.169c27.409,53.192 55.469,118.892 59.743,128.901c65.69,153.811 95.818,215.042 111.272,244.141c-133.036,84.849 -166.26,96.424 -296.124,160.64c-12.871,6.365 -26.692,13.246 -41.653,20.768c-89.692,-110.604 -148.952,-257.094 -164.73,-389.294Zm39.091,-18.987c-72.17,-337.868 21.58,-695.462 346.232,-823.757c606.349,-239.615 711.603,311.985 1150.163,-67.404c23.168,-20.042 441.777,-491.29 539.851,-323.63c31.746,54.271 -60.323,139.397 -27.166,297.45c-152.956,72.991 -376.634,178.106 -477.606,225.489c-12.806,-24.207 -23.628,-44.924 -31.147,-59.931c-31.973,21.449 -81.636,54.971 -115.045,78.518c41.835,79.013 116.482,214.581 131.578,245.39c24.94,50.899 29.735,65.717 46.365,94.679c37.383,-13.236 67.72,-34.094 124.603,-59.936c-5.012,-10.426 -10.817,-22.144 -17.224,-34.832c97.867,-47.091 280.398,-135.806 440.042,-221.454c7.731,60.452 62.233,136.028 212.203,186.018c13.516,4.505 272.59,56.597 244.431,101.677c-199.997,320.184 -791.121,129.286 -944.612,259.575c-376.223,319.352 -170.017,721.584 -787.267,807.566c-284.918,39.689 -517.335,-103.504 -668.11,-317.905c129.863,-64.216 163.088,-75.791 296.124,-160.64c-15.454,-29.099 -45.582,-90.33 -111.272,-244.141c-4.275,-10.009 -32.334,-75.709 -59.743,-128.901c-89.762,48.623 -216.358,109.422 -292.399,146.169Zm3132.832,-1460.118c-376.128,194.078 -864.998,416.132 -901.691,434.591c-62.785,31.585 -141.021,69.515 -222.061,108.187c-152.956,72.991 -376.634,178.106 -477.606,225.489c40.432,76.432 100.643,187.667 139.131,263.888c97.867,-47.091 280.398,-135.806 440.042,-221.454c349.687,-187.607 828.607,-446.47 1138.79,-606.252l1.435,-0.739c35.459,-18.261 68.699,-35.22 99.273,-50.62c26.872,1.967 66.145,4.101 121.033,5.366c33.737,-40.825 109.738,-93.807 185.743,-116.716c29.403,-8.862 240.567,-72.511 377.47,-70.246c-21.246,-29.03 -50.571,-64.527 -77.188,-83.42c-162.292,-115.195 -281.999,-122.012 -366.57,-115.918c-38.674,17.58 -70.287,34.513 -140.417,82.108c-40.862,27.732 -78.848,57.179 -105.592,79.331c-24.898,-4.525 -44.536,-7.588 -66.137,-10.571c-45.253,24.608 -93.962,50.3 -144.737,76.505l-0.917,0.473Zm-1601.358,768.268c-12.806,-24.207 -23.628,-44.924 -31.147,-59.931c-31.973,21.449 -81.636,54.971 -115.045,78.518c41.835,79.013 116.482,214.581 131.578,245.39c24.94,50.899 29.735,65.717 46.365,94.679c37.383,-13.236 67.72,-34.094 124.603,-59.936c-5.012,-10.426 -10.817,-22.144 -17.224,-34.832c-38.488,-76.221 -98.698,-187.456 -139.131,-263.888Zm-1570.565,710.837c10.502,-5.155 23.77,-11.583 39.091,-18.987c76.041,-36.748 202.637,-97.547 292.399,-146.169c27.409,53.192 55.469,118.892 59.743,128.901c65.69,153.811 95.818,215.042 111.272,244.141c-133.036,84.849 -166.26,96.424 -296.124,160.64c-12.871,6.365 -26.692,13.246 -41.653,20.768c-89.692,-110.604 -148.952,-257.094 -164.73,-389.294Zm39.091,-18.987c-72.17,-337.868 21.58,-695.462 346.232,-823.757c606.349,-239.615 711.603,311.985 1150.163,-67.404c23.168,-20.042 441.777,-491.29 539.851,-323.63c31.746,54.271 -60.323,139.397 -27.166,297.45c-152.956,72.991 -376.634,178.106 -477.606,225.489c-12.806,-24.207 -23.628,-44.924 -31.147,-59.931c-31.973,21.449 -81.636,54.971 -115.045,78.518c41.835,79.013 116.482,214.581 131.578,245.39c24.94,50.899 29.735,65.717 46.365,94.679c37.383,-13.236 67.72,-34.094 124.603,-59.936c-5.012,-10.426 -10.817,-22.144 -17.224,-34.832c97.867,-47.091 280.398,-135.806 440.042,-221.454c7.731,60.452 62.233,136.028 212.203,186.018c13.516,4.505 272.59,56.597 244.431,101.677c-199.997,320.184 -791.121,129.286 -944.612,259.575c-376.223,319.352 -170.017,721.584 -787.267,807.566c-284.918,39.689 -517.335,-103.504 -668.11,-317.905c129.863,-64.216 163.088,-75.791 296.124,-160.64c-15.454,-29.099 -45.582,-90.33 -111.272,-244.141c-4.275,-10.009 -32.334,-75.709 -59.743,-128.901c-89.762,48.623 -216.358,109.422 -292.399,146.169Zm1500.327,-751.781c7.519,15.007 18.341,35.723 31.147,59.931c40.432,76.432 100.643,187.667 139.131,263.888c6.407,12.688 12.212,24.406 17.224,34.832c-56.883,25.842 -87.219,46.701 -124.603,59.936c-16.63,-28.963 -21.425,-43.781 -46.365,-94.679c-15.096,-30.808 -89.742,-166.376 -131.578,-245.39c33.409,-23.547 83.072,-57.069 115.045,-78.518Zm610.319,102.364c7.731,60.452 62.233,136.028 212.203,186.018c13.516,4.505 272.59,56.597 244.431,101.677c-199.997,320.184 -791.121,129.286 -944.612,259.575c-376.223,319.352 -170.017,721.584 -787.267,807.566c-284.918,39.689 -517.335,-103.504 -668.11,-317.905m-167.291,-387.513c-72.17,-337.868 21.58,-695.462 346.232,-823.757c606.349,-239.615 711.603,311.985 1150.163,-67.404c23.168,-20.042 441.777,-491.29 539.851,-323.63c31.746,54.271 -60.323,139.397 -27.166,297.45m-508.753,165.558c7.519,15.007 18.341,35.723 31.147,59.931c40.432,76.432 100.643,187.667 139.131,263.888c6.407,12.688 12.212,24.406 17.224,34.832m-302.546,-280.133c41.835,79.013 116.482,214.581 131.578,245.39c24.94,50.899 29.735,65.717 46.365,94.679m-177.943,-340.069c33.409,-23.547 83.072,-57.069 115.045,-78.518m62.898,418.587c37.383,-13.236 67.72,-34.094 124.603,-59.936m1590.657,-1143.966c21.601,2.983 41.239,6.046 66.137,10.571m5.521,219.496c26.872,1.967 66.145,4.101 121.033,5.366m-0,0c33.737,-40.825 109.738,-93.807 185.743,-116.716c29.403,-8.862 240.567,-72.511 377.47,-70.246m-689.768,-37.899c26.744,-22.152 64.73,-51.599 105.592,-79.331c70.13,-47.595 101.743,-64.528 140.417,-82.108m0,-0c84.572,-6.094 204.279,0.723 366.57,115.918c26.617,18.893 55.942,54.39 77.188,83.42m-4073.481,1507.612c10.502,-5.155 23.77,-11.583 39.091,-18.987c76.041,-36.748 202.637,-97.547 292.399,-146.169m0,-0c27.409,53.192 55.469,118.892 59.743,128.901c65.69,153.811 95.818,215.042 111.272,244.141m-337.777,181.408c14.961,-7.521 28.782,-14.403 41.653,-20.768c129.863,-64.216 163.088,-75.791 296.124,-160.64m-502.506,-207.886c15.778,132.199 75.038,278.69 164.73,389.294m537.284,-738.571c43.181,86.084 124.096,273.036 169.698,368.415m-66.164,-413.696c33.959,76.129 111.496,246.575 158.074,362.159m-261.607,-316.877c52.868,-16.794 77.95,-31.427 103.533,-45.282m66.164,413.696c24.829,-16.755 58.634,-37.204 76.343,-45.378c6.519,-3.009 11.425,-4.85 15.566,-6.16m2324.906,-1242.256c-17.579,-30.246 -40.99,-72.436 -64.706,-114.884l66.14,114.145l-1.435,0.739Zm-64.706,-114.884l-51.898,-89.565l0.917,-0.473c15.662,26.983 33.406,58.581 50.981,90.038Z" style="fill:none;stroke:#3f3645;stroke-width:25px;"/><path id="fline" d="M3217.314,1780.598c60.32,-42.832 197.516,-110.924 412.315,-95.383c-100.363,39.293 -255.278,84.639 -367.093,176.442m-1594.101,581.163c34.058,65.806 103.2,199.481 136.283,264.032m-30.214,-313.944c64.262,127.196 80.083,159.814 134.058,262.847m-18.504,-317.368c56.302,119.401 70.266,150.059 126.725,262.902m-2.92,-321.57c57.927,96.652 68.796,124.174 134.195,253.214m15.049,-324.757c21.262,37.531 48.706,88.702 134.338,244.566m9.971,-315.233c71.335,123.764 78.452,138.53 130.209,239.903m20.529,-310.085c58.497,107.493 68.813,129.722 122.799,233.123m39.515,-309.348c42.391,81.932 49.559,93.148 115.07,226.523m27.989,-294.641c21.89,41.022 59.17,108.711 117.585,216.932m50.459,-298.395c23.408,48.531 61.828,125.523 105.782,215.474m22.421,-279.002c28.976,67.337 70.964,159.112 97.223,216.009m23.363,-277.257c11.507,19.349 24.03,41.052 36.956,63.854c14.854,26.203 30.239,53.858 45.222,81.059c11.363,20.629 22.496,40.997 32.991,60.274m284.39,-178.54c-48.992,-2.512 -35.943,55.183 -4.102,50.635c17.219,-2.46 57.824,-43.966 4.102,-50.635Zm-49.994,-124.984c-58.949,1.943 -32.62,45.299 -8.973,48.968c38.209,5.929 36.746,-65.941 8.973,-48.968Zm128.83,-74.991c-60.714,23.469 -19.165,57.328 -4.23,56.66c26.058,-1.167 34.132,-54.524 4.23,-56.66Zm63.454,142.29c-58.701,2.906 -42.185,49.317 -18.716,48.199c29.852,-1.422 71.298,-43.006 18.716,-48.199Zm73.068,-140.367c-29.079,-13.501 -35.65,51.952 5.384,44.353c36.14,-6.693 14.679,-62.326 -5.384,-44.353Zm69.222,94.219c-38.721,-2.979 -44.048,39.782 -17.818,49.225c29.224,10.521 57.787,-43.066 17.818,-49.225Z" style="fill:none;stroke:#3f3645;stroke-width:16.67px;"/><path id="string" d="M949.554,3097.212c64.95,-35.312 309.507,-168.094 625.208,-337.327c39.265,-21.048 79.631,-42.66 120.888,-64.719c26.599,-14.221 53.568,-28.628 80.853,-43.189c33.5,-17.878 67.475,-35.989 101.821,-54.274c35.67,-18.99 71.741,-38.167 108.096,-57.468c43.167,-22.916 86.734,-46.006 130.508,-69.158c49.092,-25.966 98.444,-52.011 147.782,-77.983c47.642,-25.079 95.272,-50.089 142.642,-74.891c48.294,-25.286 96.318,-50.356 143.811,-75.063c53.074,-27.61 105.485,-54.767 156.868,-81.266c49.312,-25.431 97.678,-50.255 144.776,-74.292c55.198,-28.171 108.654,-55.261 159.848,-80.977c42.367,-21.282 83.185,-41.623 122.161,-60.858c48.833,-24.1 94.775,-46.463 137.245,-66.766c1.603,-0.766 3.2,-1.529 4.793,-2.29c0.383,-0.183 0.765,-0.365 1.148,-0.548c126.72,-60.462 221.82,-102.149 269.582,-116.219m-2611.547,1305.594c76.853,-42.131 315.189,-172.439 622.822,-337.293c39.073,-20.938 79.264,-42.434 120.385,-64.377c26.66,-14.227 53.711,-28.642 81.1,-43.214c33.499,-17.824 67.505,-35.884 101.925,-54.125c35.859,-19.005 72.166,-38.207 108.815,-57.544c43.073,-22.727 86.618,-45.641 130.462,-68.641c48.695,-25.545 97.759,-51.196 146.955,-76.816c47.839,-24.913 95.804,-49.797 143.675,-74.524c48.274,-24.935 96.454,-49.711 144.316,-74.198c53.125,-27.18 105.859,-54.004 157.896,-80.294c48.876,-24.693 97.137,-48.916 144.53,-72.52c55.224,-27.505 109.27,-54.17 161.737,-79.764c42.283,-20.626 83.541,-40.555 123.565,-59.667c47.344,-22.607 92.96,-44.069 136.501,-64.184c1.551,-0.716 3.099,-1.431 4.644,-2.144c0.287,-0.132 0.573,-0.264 0.86,-0.397c2.904,-1.339 5.798,-2.672 8.683,-3.999c205.771,-94.656 363.352,-158.091 434.954,-168.319m-2783.259,1360.148c63.655,-36.064 301.82,-170.542 617.453,-343.243c38.866,-21.266 78.906,-43.111 119.94,-65.423c26.617,-14.473 53.651,-29.142 81.054,-43.978c33.387,-18.075 67.322,-36.396 101.714,-54.909c35.908,-19.328 72.315,-38.864 109.119,-58.545c42.727,-22.848 85.989,-45.892 129.628,-69.032c48.142,-25.528 96.742,-51.174 145.585,-76.804c47.766,-25.065 95.765,-50.115 143.798,-75.027c48.251,-25.025 96.535,-49.91 144.65,-74.529c53.082,-27.161 105.958,-53.998 158.355,-80.344c48.398,-24.335 96.388,-48.249 143.756,-71.61c55.45,-27.348 110.047,-53.938 163.447,-79.557c42.483,-20.381 84.207,-40.148 125.001,-59.192c46.196,-21.566 91.197,-42.206 134.752,-61.763c1.519,-0.682 3.037,-1.363 4.552,-2.043c0.131,-0.059 0.263,-0.118 0.394,-0.177c133.112,-59.669 252.561,-109.122 351.108,-143.868c120.476,-42.477 209.712,-62.974 254.48,-53.285m-2948.404,1368.351c84.695,-45.498 318.539,-170.867 619.819,-330.306c39.241,-20.766 79.625,-42.111 120.973,-63.932c26.911,-14.202 54.23,-28.606 81.907,-43.184c33.673,-17.736 67.876,-35.729 102.519,-53.93c36.307,-19.075 73.099,-38.377 110.271,-57.85c42.643,-22.338 85.787,-44.9 129.277,-67.599c48.106,-25.108 96.634,-50.382 145.374,-75.705c47.835,-24.853 95.874,-49.752 143.918,-74.587c48.453,-25.046 96.91,-50.026 145.168,-74.826c53.097,-27.286 105.953,-54.354 158.294,-81.051c48.007,-24.486 95.582,-48.659 142.515,-72.403c55.511,-28.084 110.123,-55.566 163.49,-82.251c42.493,-21.249 84.196,-41.992 124.934,-62.133c44.585,-22.043 88.014,-43.363 130.057,-63.832c1.44,-0.701 2.879,-1.401 4.316,-2.101c0.06,-0.029 0.12,-0.058 0.179,-0.087c73.396,-35.712 142.522,-68.803 206.144,-98.581c24.614,-11.52 48.403,-22.545 71.298,-33.034c14.504,-6.645 28.649,-13.075 42.417,-19.279c35.332,-15.923 68.179,-30.363 98.233,-43.148c8.151,-3.468 16.097,-6.813 23.832,-10.034c41.67,-17.351 77.2,-31.069 105.632,-40.616c4.653,-1.562 9.116,-3.013 13.385,-4.35c2.314,-0.724 4.57,-1.415 6.769,-2.073m-2908.63,1416.288c63.526,-33.219 304.776,-159.271 619.912,-322.638c39.48,-20.466 80.119,-41.518 121.713,-63.047c27.159,-14.057 54.726,-28.317 82.643,-42.75c33.924,-17.538 68.365,-35.332 103.222,-53.326c36.715,-18.953 73.891,-38.129 111.41,-57.464c42.348,-21.823 85.131,-43.849 128.179,-65.986c48.284,-24.829 96.901,-49.798 145.608,-74.777c47.975,-24.603 96.039,-49.216 143.959,-73.716c48.95,-25.026 97.751,-49.933 146.156,-74.589c53.523,-27.264 106.563,-54.221 158.785,-80.694c48.17,-24.419 95.645,-48.425 142.163,-71.88c56.438,-28.456 111.468,-56.1 164.623,-82.682c43.295,-21.651 85.346,-42.597 125.901,-62.704c44.362,-21.994 86.934,-42.985 127.387,-62.794c1.352,-0.662 2.701,-1.323 4.049,-1.982c0.184,-0.09 0.368,-0.18 0.551,-0.27c112.115,-54.873 207.719,-100.551 279.697,-133.231c2.732,-1.24 5.429,-2.462 8.093,-3.664c8.905,-4.021 17.426,-7.831 25.547,-11.421c45.195,-19.98 78.022,-33.166 95.978,-38.217m-2758.696,1325.877c89.5,-45.184 324.804,-163.805 620.822,-311.707c39.944,-19.958 80.993,-40.448 122.939,-61.364c27.566,-13.745 55.519,-27.674 83.8,-41.755c34.36,-17.108 69.204,-34.441 104.425,-51.944c37.354,-18.563 75.133,-37.318 113.21,-56.197c41.927,-20.789 84.215,-41.73 126.695,-62.735c48.922,-24.191 98.097,-48.466 147.268,-72.693c48.335,-23.815 96.665,-47.582 144.744,-71.173c49.753,-24.413 99.238,-48.638 148.182,-72.535c54.294,-26.508 107.922,-52.612 160.513,-78.117c48.706,-23.621 96.523,-46.73 143.153,-69.172c57.68,-27.76 113.546,-54.5 167.039,-79.931c44.334,-21.076 87.038,-41.253 127.793,-60.365c45.002,-21.103 87.628,-40.909 127.451,-59.193c1.35,-0.62 2.696,-1.238 4.039,-1.854c0.233,-0.107 0.466,-0.214 0.699,-0.321c132.571,-60.808 233.522,-104.473 286.768,-122.647c2.664,-0.909 5.208,-1.755 7.632,-2.535c2.147,-0.692 4.199,-1.333 6.154,-1.922" style="fill:none;stroke:#3f3645;stroke-width:8.33px;"/></g></g><g id="hands"><g id="left-hand"><g id="color3" serif:id="color"><path id="base3" serif:id="base" d="M2993.934,1835.784c-8.187,-3.049 -16.039,-4.791 -23.138,-5.094c-20.104,-0.859 -111.024,20.904 -100.152,89.373c-37.554,1.6 -63.561,29.035 -66.088,32.067c-33.048,39.657 -29.978,129.958 42.793,121.416c-7.259,34.039 -15.412,75.647 -12.03,119.282c-11.104,7.075 -25.416,12.534 -36.833,16.206c3.409,-36.15 2.979,-51.769 -16.65,-50.984c-30.134,1.205 -51.04,53.367 -51.04,125.44c-0,273.931 87.991,361.402 136.96,330.24c19.063,-12.131 18.135,-29.159 10.16,-45.371c65.923,-4.72 229.64,-29.953 317.755,-175.744c149.641,-247.588 -20.332,-522.18 -68.75,-620.312c-51.034,-103.435 -40.375,-159.002 -50.625,-200c-19.794,-79.175 -155.094,-8.749 -82.362,263.482Z" style="fill:#f2e9d3;"/><path id="shade2" serif:id="shade" d="M3056.258,1887.923c-22.453,-69.373 -59.519,-199.503 -56.12,-265.558c1.017,-19.752 4.163,-40.255 7.856,-60.282c-31.558,36.948 -53.692,125.367 -14.061,273.701c-8.187,-3.049 -16.039,-4.791 -23.138,-5.094c-4.013,-0.172 -10.849,0.559 -19.134,2.382c51.383,10.388 86.657,32.305 104.596,54.852Zm-277.714,270.465c-28.354,4.736 -47.748,55.682 -47.748,125.101c-0,273.931 87.991,361.402 136.96,330.24c19.063,-12.131 18.135,-29.159 10.16,-45.371c29.735,-2.129 79.366,-8.432 132.981,-28.088c-63.232,-18.977 -131.838,-78.492 -181.34,-226.144c-25.354,-75.625 -40.766,-124.251 -51.012,-155.737Z" style="fill:#ead2ad;"/></g><path id="line3" serif:id="line" d="M2877.916,2568.358c7.975,16.212 8.903,33.24 -10.16,45.371c-48.969,31.162 -136.96,-56.308 -136.96,-330.24c0,-72.073 20.906,-124.235 51.04,-125.44c19.629,-0.785 20.059,14.834 16.65,50.984m36.833,-16.206c-11.104,7.075 -25.416,12.534 -36.833,16.206c-9.374,3.015 -16.797,4.826 -18.89,5.336m67.753,-140.824c-72.771,8.542 -75.84,-81.759 -42.793,-121.416c2.527,-3.033 28.534,-30.467 66.088,-32.067c33.685,-1.435 76.659,17.916 120.312,94.307m-120.312,-94.307c-10.872,-68.469 80.048,-90.232 100.152,-89.373c7.099,0.303 14.951,2.045 23.138,5.094c39.597,14.749 87.009,60.096 94.782,121.306m-94.782,-121.306c-72.732,-272.231 62.568,-342.656 82.362,-263.482c10.25,40.998 -0.409,96.564 50.625,200c48.417,98.132 218.391,372.724 68.75,620.312c-88.115,145.791 -251.832,171.023 -317.755,175.744c-11.578,0.829 -20.139,1.025 -24.745,1.131m72.025,-228.4c-14.266,1.189 -66.089,-47.791 -81.92,-103.2c-24.914,-87.199 11.058,-173.854 13.6,-217.92" style="fill:none;stroke:#3f3645;stroke-width:25px;"/></g><g id="right-hand"><g id="color4" serif:id="color"><path id="base4" serif:id="base" d="M1639.994,2684.94c-42.163,-41.933 -109.476,-54.031 -156.27,-34.317c-9.669,4.073 -18.461,9.504 -25.975,16.311c-11.332,10.266 -18.001,19.962 -21.032,29.069c-13.764,41.352 47.475,70.545 87.68,85.669c-32.15,19.313 -74.117,17.001 -108.888,-5.938c-19.577,-12.915 -35.702,-26.111 -48.938,-38.767c-23.707,-4.95 -97.115,-34.672 27.278,-102.792c69.972,-38.318 114.463,-123.245 120.311,-177.755c-14.723,-4.365 -29.912,-2.967 -33.967,-0.939c-64.146,32.073 -53.802,64.301 -205.469,69.531c-101.66,3.506 -159.903,51.064 -189.184,98.043c-37.72,-18.49 -90.907,13.685 -99.878,67.191c-21.555,128.56 -54.112,112.182 -136.719,212.109c-12.319,14.902 -36.329,57.42 -10.547,83.203c23.656,23.656 66.77,-18.359 89.883,-44.786c6.894,6.268 11.003,9.612 24.179,17.833c25.084,15.651 50.619,30.568 75.781,46.094c168.914,104.224 344.847,321.913 388.32,214.761c17.883,19.274 34.112,28.018 53.033,20.689c-7.597,-27.06 -10.955,-48.444 -13.245,-54.365c-52.626,-136.103 -52.759,-137.701 -111.884,-192.519c-8.609,-7.982 -82.325,-91.43 108.536,-98.771c178.268,-6.856 202.9,-128.497 186.994,-209.554Z" style="fill:#f2e9d3;"/><path id="shade3" serif:id="shade" d="M1469.593,3240.15c4.531,-1.755 9.216,-4.432 14.116,-8.106c51.083,-38.312 17.686,-181.23 -54.96,-280.479c49.656,4.484 126.54,5.361 185.32,-40.95c43.121,-33.974 70.756,-70.803 64.48,-142.08c-3.079,-34.966 -17.757,-62.909 -38.555,-83.594c15.906,81.057 -8.726,202.697 -186.994,209.554c-190.861,7.341 -117.145,90.789 -108.536,98.771c59.125,54.818 59.258,56.416 111.884,192.519c2.29,5.921 5.648,27.306 13.245,54.365Zm-103.022,-503.183c-1.972,-1.885 -3.879,-3.758 -5.724,-5.617c29.302,-72.61 84.938,-52.773 146.69,-143.447c62.7,-92.066 35.56,-122.904 6.623,-131.483c-5.848,54.51 -50.339,139.437 -120.311,177.755c-124.392,68.12 -50.985,97.842 -27.278,102.792Z" style="fill:#ead2ad;"/></g><path id="line4" serif:id="line" d="M1416.561,3219.461c-43.473,107.152 -219.406,-110.538 -388.32,-214.761c-25.162,-15.525 -50.697,-30.443 -75.781,-46.094c-13.177,-8.221 -17.285,-11.565 -24.179,-17.833c-4.141,-3.765 -9.288,-8.585 -18.008,-16.152m175.269,-301.566c-37.72,-18.49 -90.907,13.685 -99.878,67.191c-21.555,128.56 -54.112,112.182 -136.719,212.109c-12.319,14.902 -36.329,57.42 -10.547,83.203c23.656,23.656 66.77,-18.359 89.883,-44.786m135.508,-228.261c-6.718,-13.435 -2.058,-51.254 21.753,-89.457c29.281,-46.979 87.524,-94.537 189.184,-98.043c151.667,-5.23 141.323,-37.458 205.469,-69.531c12.026,-6.013 121.946,-6.488 27.344,132.422c-61.752,90.674 -117.388,70.837 -146.69,143.447m67.902,220.214c72.646,99.249 106.042,242.167 54.96,280.479c-25.359,19.019 -44.983,11.307 -67.149,-12.582c-44.642,-48.114 -48.204,-124.111 -181.071,-217.255m288.908,-220.534c-49.059,-18.455 -129.438,-57.858 -66.648,-114.738c61.817,-55.999 210.19,-18.899 220.8,101.6c6.276,71.277 -21.359,108.106 -64.48,142.08c-58.78,46.312 -135.664,45.435 -185.32,40.95c-15.926,-1.438 -29.051,-3.248 -37.88,-3.99m-80.96,-288.64c1.795,2.692 22.917,62.253 105.6,116.8c48.729,32.148 111.591,23.783 141.76,-27.84" style="fill:none;stroke:#3f3645;stroke-width:25px;"/></g></g></g></svg>