<?xml version="1.0" encoding="UTF-8" standalone="no"?><!DOCTYPE svg PUBLIC "-//W3C//DTD SVG 1.1//EN" "http://www.w3.org/Graphics/SVG/1.1/DTD/svg11.dtd"><svg width="100%" height="100%" viewBox="0 0 3905 3869" version="1.1" xmlns="http://www.w3.org/2000/svg" xmlns:xlink="http://www.w3.org/1999/xlink" xml:space="preserve" xmlns:serif="http://www.serif.com/" style="fill-rule:evenodd;clip-rule:evenodd;stroke-linecap:round;stroke-linejoin:round;stroke-miterlimit:1.5;"><g id="john"><g id="shadow"><path id="shadow1" serif:id="shadow" d="M1234.848,3580.431c123.456,-44.092 1152.209,-16.227 1189.371,-12.187c0.895,0.097 316.648,24.845 62.187,84.375c-121.962,28.532 -767.886,14.12 -773.435,13.75c-440.105,-29.34 -488.838,-8.621 -478.123,-85.937Z" style="fill:#506265;"/></g><g id="head"><g id="hair"><g id="color"><path id="base" d="M1129.822,547.716c24.808,-87.31 71.951,-201.564 161.706,-269.949c49.318,-37.576 250.215,-183.672 464.704,-174.896c125.768,-112.891 158.325,-45.463 385.795,-80.354c116.663,-17.895 206.791,-21.936 301.835,76.546c27.431,4.108 56.424,10.649 86.415,20.454c137.082,44.815 191.92,109.202 234.725,170.837c139.082,57.207 228.038,158.965 247.454,200.164c-32.809,15.893 -55.061,25.962 -70.142,32.689c52.486,35.189 95.663,86.549 87.05,135.437c-8.314,-0.593 -71.019,-5.065 -117.24,-3.596c12.647,15.272 23.696,34.627 30.402,59.218c29.362,107.66 -9.874,123.128 65.662,215.914c-38.118,3.295 -48.486,3.769 -70.842,4.752c51.352,103.898 26.635,416.978 -104.199,541.714c0.138,-13.665 -0.548,-29.881 -2.836,-48.188c-1.129,-9.028 -2.399,-17.358 -3.715,-24.917c-110.919,4.804 -59.521,233.836 -93.875,400.551c-25.588,124.177 -96.569,180.846 -139.597,200.131c33.249,-64.195 26.906,-130.651 29.347,-203.881c5.575,-167.254 28.46,-171.736 52.25,-255c46.679,-163.378 -58.123,-229.478 -27.649,-505.971c-99.11,45.957 -273.54,71.345 -357.218,-157.221c-19.556,17.366 -40.324,33.697 -61.399,47.379c-91.334,59.292 -213.811,109.027 -279.75,125.086c8.43,-27.028 14.779,-55.485 15.942,-60.702c5.02,-22.502 8.432,-38.903 10.969,-52.55c-42.444,35.343 -93.636,65.343 -177.285,94.353c-48.296,16.749 -94.071,31.31 -131.082,37.991c35.399,48.482 74.745,73.861 84.791,80.34c-99.286,11.671 -169.695,-20.954 -291.908,-88.531c-2.994,-1.655 -5.902,-3.372 -8.724,-5.141c-24.836,20.092 -60.316,41.224 -109.876,55.941c-75.634,22.461 -99.974,3.061 -117.6,56.8c-64.277,195.965 25.95,321.773 32.8,335.4c104.286,207.45 11.693,305.014 51.956,458.035c-97.837,-165.577 -123.378,-162.604 -117.356,-354.635c2.39,-76.205 -91.983,-121.974 -198.8,-315.4c-105.924,-191.809 -62.077,-634.095 137.29,-748.799Z" style="fill:#635463;"/><path id="hlight" d="M2445.612,380.066c9.921,-9.921 123.431,131.228 104.954,284.12c-213.139,-292.353 -224.617,-281.789 -254.742,-314.618c-50.332,-54.849 81.602,-66.911 149.788,30.498Zm-232.111,-29.351c44.231,-7.372 115.923,183.604 122.548,201.252c-21.491,-10.673 -164.062,-81.476 -210.375,-213.799c-7.564,-21.612 30.328,-93.605 87.827,12.547Zm-196.018,169.774c24.759,4.684 -5.575,-12.365 -33.009,-130.85c-10.686,-46.15 -13.881,-96.268 -61.867,-94.283c-190.304,7.87 -328.907,-25.128 -425.559,122.548c-84.632,129.311 -89.846,137.032 -77.68,141.326c71.198,25.129 250.709,-16.07 271.978,-20.952c65.391,-15.008 177.037,-23.352 192.52,-24.51c64.003,-4.784 64.665,-12.49 133.617,6.72Z" style="fill:#947f8c;"/><path id="shade" d="M2996.017,463.943c7.533,10.333 13.047,19.379 16.439,26.576c-32.809,15.893 -55.061,25.962 -70.142,32.689c14.166,9.498 27.654,20.174 39.629,31.661c-54.897,-5.087 -114.212,-22.926 -118.644,-23.803l0.303,-27.956c13.55,-23.035 77.991,-41.482 132.414,-39.167Zm25.431,143.807c7.672,16.746 10.898,33.969 7.916,50.895c-8.314,-0.593 -71.019,-5.065 -117.24,-3.596c12.647,15.272 23.696,34.627 30.402,59.218c2.086,7.65 3.826,14.834 5.286,21.614c-79.944,-9.763 -149.735,-62.333 -71.654,-111.4c-5.346,-29.404 81.785,-35.633 145.29,-16.731Zm-53.126,260.436c7.252,17.216 19.309,36.742 39.867,61.995c-38.118,3.295 -48.486,3.769 -70.842,4.752c3.192,6.459 6.091,13.726 8.688,21.706c-51.405,-15.181 -95.221,-50.797 -53.135,-93.602c-4.958,-14.875 34.831,-9.963 75.423,5.15Zm-8.435,161.602c12.774,137.828 -24.724,349.598 -126.74,446.859c0.138,-13.665 -0.548,-29.881 -2.836,-48.188c-1.129,-9.028 -2.399,-17.358 -3.715,-24.917c-110.919,4.804 -59.521,233.836 -93.875,400.551c-25.588,124.177 -96.569,180.846 -139.597,200.131c33.249,-64.195 26.906,-130.651 29.347,-203.881c5.575,-167.254 28.46,-171.736 52.25,-255c46.679,-163.378 -58.123,-229.478 -27.649,-505.971c-99.11,45.957 -273.54,71.345 -357.218,-157.221c-19.556,17.366 -40.324,33.697 -61.399,47.379c-91.334,59.292 -213.811,109.027 -279.75,125.086c8.43,-27.028 14.779,-55.485 15.942,-60.702c5.02,-22.502 8.432,-38.903 10.969,-52.55c-42.444,35.343 -93.636,65.343 -177.285,94.353c-48.296,16.749 -94.071,31.31 -131.082,37.991c35.399,48.482 74.745,73.861 84.791,80.34c-99.286,11.671 -169.695,-20.954 -291.908,-88.531c-2.994,-1.655 -5.902,-3.372 -8.724,-5.141c-24.836,20.092 -60.316,41.224 -109.876,55.941c-75.634,22.461 -99.974,3.061 -117.6,56.8c-64.277,195.965 25.95,321.773 32.8,335.4c104.286,207.45 11.693,305.014 51.956,458.035c-97.837,-165.577 -123.378,-162.604 -117.356,-354.635c2.39,-76.205 -91.983,-121.974 -198.8,-315.4c-31.156,-56.418 -49.355,-134.508 -54.449,-219.557c36.974,37.904 98.584,61.899 202.331,44.012c293.951,-50.681 137.052,-351.901 240.322,-300.266c55.032,27.516 69.741,210.605 285.805,109.582c131.656,-61.558 125.904,-50.561 248.788,-53.452c193.269,-4.548 396.393,-415.061 458.972,-191.566c41.576,148.487 264.201,35.638 289.251,236.545c3.699,29.668 -46.788,80.093 111.703,51.476c110.151,-19.888 163.52,-0.442 184.631,56.498Zm-1795.627,-578.961c5.651,-3.683 11.472,-7.374 17.453,-11.053c60.185,-37.014 59.604,-44.136 130.46,-41.751c-14.023,17.104 -160.229,195.433 -197.981,192.976c-3.435,-0.224 -16.458,-1.071 -30.89,-8.197c14.433,-13.74 29.939,-25.546 46.521,-35.086c8.55,-30.09 19.752,-63.38 34.437,-96.889Z" style="fill:#554659;"/></g><path id="line" d="M2593.124,2004.223c43.028,-19.285 114.009,-75.954 139.597,-200.131c34.353,-166.714 -17.044,-395.747 93.875,-400.551m-159.125,-488.199c-9.726,45.668 -16.291,86.759 -20.399,124.028c-30.474,276.493 74.328,342.593 27.649,505.971c-23.79,83.263 -46.675,87.746 -52.25,255c-2.441,73.23 3.903,139.686 -29.347,203.881m321.402,-1097.706c8.761,5.669 16.387,15.401 22.819,28.416c51.352,103.898 26.635,416.978 -104.199,541.714m-18.196,-120.892c-1.867,-6.536 5.406,11.966 11.645,47.787c1.316,7.559 2.587,15.889 3.715,24.917c2.288,18.308 2.974,34.523 2.836,48.188m104.199,-541.714c22.357,-0.983 32.725,-1.456 70.842,-4.752c-75.536,-92.786 -36.3,-108.254 -65.662,-215.914c-6.707,-24.591 -17.755,-43.945 -30.402,-59.218m0,-0c46.221,-1.469 108.925,3.003 117.24,3.596c8.613,-48.888 -34.564,-100.248 -87.05,-135.437c-15.483,-10.38 -31.775,-19.353 -47.787,-26.441m47.787,26.441c15.081,-6.727 37.333,-16.796 70.142,-32.689c-19.416,-41.199 -108.371,-142.957 -247.454,-200.164m-321.14,-191.291c27.431,4.108 56.424,10.649 86.415,20.454c137.082,44.815 191.92,109.202 234.725,170.837c9.687,13.948 18.757,27.755 28.025,41.162m-324.75,-205c-8.187,-9.932 -16.319,-19.065 -24.415,-27.454c-95.044,-98.482 -185.172,-94.441 -301.835,-76.546c-227.47,34.891 -260.027,-32.537 -385.795,80.354m112.045,19.896c-37.278,-12.2 -74.866,-18.375 -112.045,-19.896c-214.49,-8.777 -415.386,137.32 -464.704,174.896c-89.755,68.385 -136.898,182.639 -161.706,269.949m1147.649,296.377c3.863,13.405 7.998,26.08 12.383,38.057c83.678,228.566 258.108,203.178 357.218,157.221m-357.218,-157.221c-19.556,17.366 -40.324,33.697 -61.399,47.379c-91.334,59.292 -213.811,109.027 -279.75,125.086m42.566,-227.742c-8.331,61.179 -8.863,77.97 -15.654,114.49c-2.538,13.647 -5.95,30.048 -10.969,52.55c-1.164,5.217 -7.512,33.674 -15.942,60.702m-281.456,19.092c37.011,-6.681 82.786,-21.242 131.082,-37.991c83.65,-29.01 134.841,-59.01 177.285,-94.353m-811.085,-409.647c-12.052,4.254 -23.622,9.62 -34.71,16c-199.366,114.705 -243.214,556.99 -137.29,748.799c106.817,193.426 201.189,239.195 198.8,315.4c-6.022,192.031 19.519,189.058 117.356,354.635c-40.263,-153.02 52.33,-250.585 -51.956,-458.035c-6.85,-13.627 -97.077,-139.434 -32.8,-335.4c17.626,-53.738 41.966,-34.339 117.6,-56.8c49.559,-14.718 85.039,-35.849 109.876,-55.941m-79.876,-99.658c-2.614,-1.307 20.941,67.389 88.6,104.8c122.213,67.577 192.623,100.202 291.908,88.531c-16.34,-10.54 -110.206,-71.085 -138.508,-199.731" style="fill:none;stroke:#3f3645;stroke-width:25px;"/></g><g id="stache"><path id="color1" serif:id="color" d="M1619.085,1933.143c8.507,-21.882 2.032,-22.895 9.6,-45.6l7.2,-21.6c4.361,-13.082 5.902,-11.803 12,-24c27.077,-54.155 59.375,-39.287 120,-69.6c58.076,-29.038 80.816,-83.838 223.2,-69.6c73.102,7.31 68.978,20.089 139.2,55.2c99.555,49.777 161.363,161.51 144,213.6c-0.909,2.728 -6.679,30.939 -26.4,40.8c-14.861,7.43 -40.269,25.593 -62.4,-40.8c-15.183,-45.549 1.27,-102.777 -64.8,-124.8c-16.374,-5.458 -16.889,-1.63 -33.6,-7.2c-54.551,-18.184 -98.759,-77.731 -151.2,-38.4c-29.879,22.41 -32.154,17.118 -67.2,28.8c-78.325,26.108 -94.422,1.611 -177.6,43.2c-27.619,13.81 -21.014,74.454 -24,86.4c-9.843,39.37 -49.22,33.353 -50.4,19.2c-3.323,-39.877 -0.183,-43.017 2.4,-45.6Z" style="fill:#554659;"/><path id="line1" serif:id="line" d="M1619.085,1933.143c-2.583,2.583 -5.723,5.723 -2.4,45.6c1.179,14.153 40.557,20.17 50.4,-19.2c2.986,-11.946 -3.619,-72.59 24,-86.4c83.178,-41.589 99.275,-17.092 177.6,-43.2c35.046,-11.682 37.321,-6.39 67.2,-28.8c52.441,-39.331 96.649,20.216 151.2,38.4c16.711,5.57 17.226,1.742 33.6,7.2c66.069,22.023 49.617,79.251 64.8,124.8c22.131,66.393 47.539,48.23 62.4,40.8c19.721,-9.86 25.491,-38.072 26.4,-40.8c17.363,-52.089 -44.445,-163.822 -144,-213.6c-70.222,-35.111 -66.098,-47.89 -139.2,-55.2c-142.384,-14.238 -165.124,40.562 -223.2,69.6c-60.625,30.313 -92.923,15.445 -120,69.6c-6.098,12.197 -7.639,10.918 -12,24c-2.4,7.2 -4.8,14.4 -7.2,21.6c-7.568,22.705 -1.093,23.718 -9.6,45.6Z" style="fill:none;stroke:#3f3645;stroke-width:25px;"/></g><path id="glasses" d="M1237.268,1473.019c37.129,17.012 86.785,37.142 125.139,52.264c6.12,2.413 11.952,4.698 17.399,6.823m413.923,-9.221l1.077,-0.479c21.646,-9.608 42.725,-17.343 63.297,-23.246c14.591,-4.187 28.927,-7.452 43.03,-9.811c55.507,-9.284 107.4,-4.521 156.994,13.392c1.84,0.664 3.676,1.347 5.509,2.047m397.588,10.159c5.294,-1.467 11.089,-3.118 17.389,-4.977c15.881,-4.688 34.972,-10.702 57.351,-18.435c79.39,-27.434 94.09,-30.875 150.331,-48.619m-1243.48,-93.581c-232.858,292.366 235.265,546.307 348.5,202.25c7.178,-21.81 15.741,-177.25 -105.25,-230.75c-115.256,-50.964 -230.353,12.738 -243.25,28.5Zm690.749,-21c-126.263,89.713 -91.44,430.788 180,353.999c213.839,-60.494 164.591,-290.684 47.2,-351.8c-120.365,-62.664 -158.828,-26.711 -227.2,-2.2Z" style="fill:none;stroke:#ffb700;stroke-width:25px;"/><g id="eyes"><g id="color2" serif:id="color"><path id="base1" serif:id="base" d="M1546.243,1404.572c160.457,-55.745 210.03,124.022 121.8,185.4c-119.28,82.977 -255.724,-84.957 -121.8,-185.4Zm674.999,-9c15.89,-1.204 90.979,-27.841 131.8,53.8c15.981,31.962 12.769,115.853 -55.4,136.6c-127.951,38.942 -174.385,-141.407 -76.4,-190.4Z" style="fill:#3f3645;"/><path id="hlight1" serif:id="hlight" d="M1567.298,1435.631c-56.419,9.603 -46.232,61.325 -20.089,57.142c23.721,-3.795 61.866,-49.518 20.089,-57.142Zm659.543,-14.841c-23.399,5.4 -43.067,65.102 -13.393,62.499c14.094,-1.236 87.97,-60.043 13.393,-62.499Z" style="fill:#e8d2ea;"/></g><path id="line2" serif:id="line" d="M1546.243,1404.572c-133.924,100.443 2.52,268.377 121.8,185.4c88.23,-61.377 38.657,-241.145 -121.8,-185.4Zm674.999,-9c-97.985,48.993 -51.551,229.341 76.4,190.4c68.169,-20.747 71.381,-104.638 55.4,-136.6c-40.821,-81.641 -115.91,-55.003 -131.8,-53.8Z" style="fill:none;stroke:#3f3645;stroke-width:25px;"/></g></g><g id="instrument"><g id="color3" serif:id="color"><path id="base2" serif:id="base" d="M2103.329,2505.526c-22.306,11.796 -44.535,23.49 -66.556,35.01c-35.194,18.411 -69.859,36.377 -103.467,53.599c-88.628,294.146 1.672,433.17 -234.334,406.135c-122.71,-14.057 -260.472,-65.198 -358.129,0.385c-37.003,24.85 -68.249,66.459 -90.735,133.194c-2.088,6.197 -4.157,12.396 -6.208,18.592c-10.515,31.762 -20.582,63.48 -30.564,94.725c-99.027,309.973 -189.59,573.401 -623.794,371.121c-40.371,-18.807 -174.319,-114.047 -226.288,-189.374c-44.892,14.747 -106.105,34.781 -162.92,53.121c133.726,155.912 427.408,427.807 763.029,364.092c318.187,-60.405 283.714,-562.846 457.028,-690.425c181.808,-133.831 564.38,275.117 637.203,-426.633c10.905,-105.082 29.46,-175.46 45.736,-223.544Zm-67.071,-268.915c-485.117,2.372 -564.325,-358.176 -763.205,-118.499c-63.554,76.59 -130.564,413.413 -338.255,360.715c-8.632,-2.19 -1049.884,-579.92 -838.347,763.79c48.132,-34.885 98.898,-71.281 137.595,-98.668c-14.9,-56.851 -22.671,-171.423 -15.142,-240.636c56.423,-518.728 406.972,-391.588 592.557,-324.354c72.102,26.121 129.485,43.35 177.503,48.98c80.83,9.476 135.122,-13.915 188.415,-83.087c38.93,-50.53 77.328,-125.489 125.147,-229.91c149.003,-325.373 256.996,-29.16 508.682,33.413c36.694,-17.325 71.08,-33.849 101.027,-48.528c29.451,-14.435 54.609,-27.084 73.451,-36.953c17.109,-8.962 33.964,-17.713 50.572,-26.263Zm1690.071,-1083.158c-58.332,73.056 -169.761,205.85 -268.861,266.228c-139.585,85.045 -271.368,97.152 -349.559,95.54c16.217,67.357 10.687,191.643 -130.433,272.656c-241.931,138.887 -507.724,225.56 -941.218,448.734c-16.609,8.55 -33.463,17.301 -50.572,26.263c-38,19.905 -101.699,51.119 -174.478,85.481c-110.996,52.406 -243.113,112.134 -337.407,150.235c53.619,100.686 100.969,185.094 135.853,249.352c65.754,-25.035 185.806,-83.167 323.652,-153.807c54.636,-27.999 112.068,-57.963 170.023,-88.61c208.627,-110.325 424.027,-229.502 540.165,-297.73c402.633,-236.534 490.286,-332.277 718.185,-191.433c114.142,-163.017 241.743,-276.902 530.439,-293.345c-136.484,-289.316 -160.473,-468.263 -165.789,-569.565Z" style="fill:#796664;"/><path id="shade1" serif:id="shade" d="M434.326,3699.005c145.042,104.367 329.638,184.976 529.036,147.122c318.187,-60.405 283.714,-562.846 457.028,-690.425c181.808,-133.831 564.38,275.117 637.203,-426.633c10.905,-105.082 29.46,-175.46 45.736,-223.544c-22.306,11.796 -44.535,23.49 -66.556,35.01c-35.194,18.411 -69.859,36.377 -103.467,53.599c-88.628,294.146 1.672,433.17 -234.334,406.135c-122.71,-14.057 -260.472,-65.198 -358.129,0.385c-37.003,24.85 -68.249,66.459 -90.735,133.194c-2.088,6.197 -4.157,12.396 -6.208,18.592c-10.515,31.762 -20.582,63.48 -30.564,94.725c-90.09,281.997 -173.174,525.473 -514.37,414.817c-70.695,-0.72 -142.033,-6.335 -208.125,-0.207c-37.518,3.478 -53.654,17.721 -56.514,37.228Zm2953.487,-1718.687c-34.181,-10.477 -69.032,-28.561 -135.135,-56.141c-180.496,-75.306 -264.248,35.932 -649.401,219.373c-190.575,90.767 -188.658,92.9 -358.182,218.676c-174.332,129.343 -557.329,255.764 -655.976,348.13c7.243,13.198 14.101,25.735 20.535,37.586c65.754,-25.035 185.806,-83.167 323.652,-153.807c54.636,-27.999 112.068,-57.963 170.023,-88.61c208.627,-110.325 424.027,-229.502 540.165,-297.73c402.633,-236.534 490.286,-332.277 718.185,-191.433c8.614,-12.302 17.304,-24.324 26.134,-36.045Z" style="fill:#6d534e;"/><path id="hlight2" serif:id="hlight" d="M1033.782,2473.333c-28.996,11.866 -61.726,14.948 -98.984,5.494c-6.031,-1.53 -516.137,-284.011 -750.854,4.18c95.853,-41.97 297.374,-134.681 562.162,-1.422c109.439,55.077 253.715,53.548 287.677,-8.252Zm980.634,-236.862c-434.788,-7.758 -533.208,-309.923 -703.738,-157.946c15.923,6.359 35.283,11.771 58.409,15.931c186.516,33.553 185.584,37.611 296.014,95.474c161.638,84.696 285.006,78.411 349.315,46.541Zm1716.113,-1029.876c-2.09,-19.682 -3.372,-37.355 -4.201,-53.143c-58.332,73.056 -169.761,205.85 -268.861,266.228c-139.585,85.045 -271.368,97.152 -349.559,95.54c12.283,51.017 12.09,134.691 -50.042,207.487c53.286,29.991 96.445,-168.178 173.536,-188.101c42.099,-10.879 74.251,-8.438 151.364,-21.972c133.879,-23.497 274.399,-191.602 347.763,-306.039Z" style="fill:#ada3a0;"/><g id="yellow"><path id="base3" serif:id="base" d="M1933.306,2594.136c-10.865,5.568 -21.619,11.058 -32.246,16.46c-34.225,17.4 -67.117,33.889 -98.081,49.131c-45.547,22.421 -86.919,42.142 -122.215,58.092c-27.775,12.551 -51.787,22.766 -71.111,30.123c17.541,32.311 31.93,59.527 42.38,81.156c-26.839,18.328 -79.126,49.471 -145.501,83.309c-69.731,-164.569 -157.138,-311.701 -222.106,-427.804c67.141,-30.15 115.398,-55.805 145.388,-69.711c15.027,29.002 29.728,56.925 43.985,83.698c24.583,-9.933 51.737,-21.337 80.418,-33.697c40.75,-17.562 84.582,-37.056 128.498,-57.01c30.906,-14.043 61.855,-28.314 91.801,-42.3c12.428,-5.804 24.683,-11.559 36.691,-17.229c-251.686,-62.574 -359.68,-358.786 -508.682,-33.413c-47.819,104.421 -86.216,179.38 -125.147,229.91c-53.293,69.172 -107.585,92.564 -188.415,83.087c-48.018,-5.63 -105.401,-22.858 -177.503,-48.98c-185.585,-67.234 -536.134,-194.374 -592.557,324.354c-7.528,69.213 0.243,183.785 15.142,240.636c29.76,-21.062 52.383,-36.794 61.182,-42.413c163.864,-104.63 231.047,-150.486 263.522,-173.409c47.491,98.619 129.787,284.498 172.127,383.551c-44.933,14.391 -131.135,39.211 -303.462,96.106c-7.313,2.414 -31.388,10.363 -64.162,21.129c51.969,75.327 185.917,170.567 226.288,189.374c434.205,202.28 524.767,-61.149 623.794,-371.121c9.982,-31.245 20.05,-62.963 30.564,-94.725c2.051,-6.197 4.12,-12.395 6.208,-18.592c22.487,-66.735 53.732,-108.343 90.735,-133.194c97.657,-65.583 235.419,-14.441 358.129,-0.385c236.006,27.035 145.706,-111.989 234.334,-406.135Zm-1035.042,654.411c-27.91,16.158 -55.922,33.831 -80.098,48.495c-25.624,-53.003 -74.911,-158.434 -108.428,-253.23c-14.736,-41.678 -11.164,-46.153 -104.593,-243.083c24.801,-13.877 59.637,-37.117 87.224,-53.588c106.552,217.675 165.986,395.995 205.895,501.406Z" style="fill:#e8b85c;"/><path id="shade2" serif:id="shade" d="M695.919,3660.99c343.748,113.095 427.058,-130.988 517.415,-413.823c9.982,-31.245 20.05,-62.963 30.564,-94.725c2.051,-6.197 4.12,-12.395 6.208,-18.592c22.487,-66.735 53.732,-108.343 90.735,-133.194c97.657,-65.583 235.419,-14.441 358.129,-0.385c236.006,27.035 145.706,-111.989 234.334,-406.135c-10.865,5.568 -21.619,11.058 -32.246,16.46c-24,12.202 -47.345,23.956 -69.828,35.145c-19.436,105.522 -45.563,206.592 -89.318,244.64c-124.032,107.854 -618.219,-81.955 -718.46,326.097c-78.986,321.528 -120.755,321.598 -327.535,444.511Z" style="fill:#e7a64c;"/></g><path id="whites" d="M3616.637,1382.471c-3.864,0.352 -39.013,3.552 -44.424,19.458c-5.88,17.284 4.259,43.156 12.425,50.112c62.823,53.516 89.505,-58.788 32,-69.571Zm-2850.963,1524.18c-21.634,-50.189 -45.913,-103.549 -73.306,-159.511c-27.586,16.471 -62.423,39.711 -87.224,53.588c93.429,196.93 89.857,201.406 104.593,243.083c33.517,94.796 82.804,200.227 108.428,253.23c24.176,-14.664 52.188,-32.337 80.098,-48.495c-15.275,-40.345 -33.41,-91.37 -55.952,-151.195c-3.583,-9.509 -7.277,-19.24 -11.089,-29.186c-5.78,-15.081 -11.83,-30.656 -18.173,-46.698c-5.085,-12.862 -10.357,-26.024 -15.829,-39.473c-4.239,-10.42 -8.598,-21.013 -13.081,-31.772c-5.933,-14.238 -12.085,-28.768 -18.466,-43.572Zm-565.341,575.383c56.814,-18.34 118.028,-38.374 162.92,-53.121c32.774,-10.766 56.85,-18.715 64.162,-21.129c172.327,-56.895 258.529,-81.716 303.462,-96.106c-42.34,-99.052 -124.635,-284.931 -172.127,-383.551c-32.475,22.923 -99.657,68.779 -263.522,173.409c-8.799,5.618 -31.422,21.351 -61.182,42.413c-38.698,27.387 -89.463,63.783 -137.595,98.668c-30.238,21.915 -59.436,43.234 -83.95,61.347c39.146,88.277 53.93,121.443 92.244,208.543c26.892,-8.402 60.397,-19.112 95.589,-30.472Zm3416.304,-2099.564c-3.864,0.352 -39.013,3.552 -44.424,19.458c-5.88,17.284 4.259,43.156 12.425,50.112c62.823,53.516 89.505,-58.788 32,-69.571Zm-2006.983,1365.471c-34.884,-64.258 -82.235,-148.666 -135.853,-249.352c-14.257,-26.773 -28.958,-54.696 -43.985,-83.698c-29.99,13.906 -78.246,39.56 -145.388,69.711c64.968,116.103 152.374,263.235 222.106,427.804c66.374,-33.839 118.662,-64.982 145.501,-83.309c-10.449,-21.629 -24.839,-48.845 -42.38,-81.156Zm1780.146,-924.13c-80.191,-9.732 -75.867,73.529 -20.368,81.751c47.349,7.015 62.518,-57.434 20.368,-81.751Zm-108.816,-242.743c-68.522,0 -39.121,77.449 -1.953,80.635c34.731,2.977 58.244,-52.49 1.953,-80.635Zm154.853,-79.519c-31.128,2.729 -42.241,68.664 1.953,84.262c47.401,16.73 74.533,-56.217 -1.953,-84.262Zm138.112,167.409c-35.403,-33.794 -90.613,40.146 -49.944,69.196c52.059,37.185 96.72,-39.961 49.944,-69.196Zm171.594,-87.89c-49.845,-29.99 -59.656,65.176 -18.694,85.658c50.602,25.301 92.768,-43.682 18.694,-85.658Zm-128.906,-198.599c-3.864,0.352 -39.013,3.552 -44.424,19.458c-5.88,17.284 4.259,43.156 12.425,50.112c62.823,53.516 89.505,-58.788 32,-69.571Z" style="fill:#f2e9d3;"/></g><g id="line3" serif:id="line"><path id="outline" d="M3726.329,1153.453c5.315,101.303 29.304,280.249 165.789,569.565m-165.789,-569.565c-58.332,73.056 -169.761,205.85 -268.861,266.228c-139.585,85.045 -271.368,97.152 -349.559,95.54m784.208,207.797c-288.696,16.443 -416.296,130.328 -530.439,293.345m-0,-0c-227.898,-140.844 -315.552,-45.101 -718.185,191.433c-116.138,68.228 -331.538,187.405 -540.165,297.73c-204.172,107.968 -401.858,207.458 -493.675,242.416m1498.255,-1232.721c16.217,67.357 10.687,191.643 -130.433,272.656c-241.931,138.887 -507.724,225.56 -941.218,448.734c-16.609,8.55 -33.463,17.301 -50.572,26.263c-95.955,50.262 -355.762,172.632 -511.885,235.716m178.233,330.507c-10.449,-21.629 -24.839,-48.845 -42.38,-81.156c-34.884,-64.258 -82.235,-148.666 -135.853,-249.352c-14.257,-26.773 -28.958,-54.696 -43.985,-83.698m0,-0c-29.99,13.906 -78.246,39.56 -145.388,69.711m367.606,344.494c-26.839,18.328 -79.126,49.471 -145.501,83.309m-222.106,-427.804c64.968,116.103 152.374,263.235 222.106,427.804m-608.269,336.14c-39.909,-105.411 -99.343,-283.731 -205.895,-501.406m0,-0c-27.586,16.471 -62.423,39.711 -87.224,53.588m293.119,447.818c-27.91,16.158 -55.922,33.831 -80.098,48.495m0,0c-25.624,-53.003 -74.911,-158.434 -108.428,-253.23c-14.736,-41.678 -11.164,-46.153 -104.593,-243.083m-46.395,127.399c47.491,98.619 129.787,284.498 172.127,383.551m-172.127,-383.551c-32.475,22.923 -99.657,68.779 -263.522,173.409c-20.241,12.924 -113.63,79.368 -198.778,141.081c-30.238,21.915 -59.436,43.234 -83.95,61.347m718.377,7.714c-44.933,14.391 -131.135,39.211 -303.462,96.106c-17.329,5.721 -128.789,42.521 -227.082,74.25c-35.192,11.36 -68.697,22.071 -95.589,30.472m-92.244,-208.543c39.146,88.277 53.93,121.443 92.244,208.543m1931.514,-1275.896c-485.117,2.372 -564.325,-358.176 -763.205,-118.499c-63.554,76.59 -130.564,413.413 -338.255,360.715c-8.632,-2.19 -1049.884,-579.92 -838.347,763.79m2006.878,-737.091c-16.276,48.083 -34.831,118.462 -45.736,223.544c-72.823,701.749 -455.395,292.802 -637.203,426.633c-173.314,127.579 -138.841,630.02 -457.028,690.425c-335.621,63.714 -629.303,-208.181 -763.029,-364.092" style="fill:none;stroke:#3f3645;stroke-width:25px;"/><path id="fineline" d="M2713.314,1920.428c29.591,55.297 66.848,128.738 96.385,187.892m71.363,-268.235c47.007,78.053 68.458,113.398 96.497,171.231m-1296.794,706.503c-44.288,-92.683 -108.889,-218.61 -126.546,-252.925c-1.547,-3.006 -2.734,-5.31 -3.515,-6.826m252.276,201.659c-36.9,-80.673 -91.179,-192.605 -120.263,-251.844m218.344,202.712c-38.037,-80.128 -75.459,-146.001 -126.543,-245.012m262.255,174.952c-30.672,-69.66 -91.39,-181.036 -124.537,-240.709m247.895,175.534c-41.039,-81.937 -94.33,-191.041 -118.836,-241.341m274.934,157.21c-20.536,-45.041 -54.43,-117.247 -113.087,-238.071m271.42,150.845c-26.71,-59.875 -65.616,-140.264 -114.152,-225.194m281.638,129.835c-28.759,-66.826 -49.758,-109.824 -105.507,-209.297m654.594,-47.924c-42.639,-92.165 -91.463,-179.679 -125.211,-238.659m679.621,-131.697c74.074,41.975 31.908,110.959 -18.694,85.658c-40.962,-20.481 -31.151,-115.648 18.694,-85.658Zm-171.594,87.89c46.776,29.235 2.116,106.381 -49.944,69.196c-40.669,-29.049 14.54,-102.99 49.944,-69.196Zm-184.15,154.853c42.15,24.317 26.981,88.766 -20.368,81.751c-55.499,-8.222 -59.823,-91.483 20.368,-81.751Zm-108.816,-242.743c56.291,28.145 32.778,83.612 -1.953,80.635c-37.168,-3.186 -66.569,-80.635 1.953,-80.635Zm154.853,-79.519c76.486,28.045 49.354,100.992 1.953,84.262c-44.194,-15.598 -33.082,-81.534 -1.953,-84.262Zm180.8,-119.08c57.506,10.782 30.823,123.087 -32,69.571c-8.166,-6.956 -18.305,-32.828 -12.425,-50.112c5.411,-15.907 40.561,-19.107 44.424,-19.458Zm-1683.332,1211.665c-88.628,294.146 1.672,433.17 -234.334,406.135c-122.71,-14.057 -260.472,-65.198 -358.129,0.385c-37.003,24.85 -68.249,66.459 -90.735,133.194c-2.088,6.197 -4.157,12.396 -6.208,18.592c-10.515,31.762 -20.582,63.48 -30.564,94.725c-99.027,309.973 -189.59,573.401 -623.794,371.121c-40.371,-18.807 -174.319,-114.047 -226.288,-189.374m1447.955,-1080.559c-251.686,-62.574 -359.68,-358.786 -508.682,-33.413c-47.819,104.421 -86.216,179.38 -125.147,229.91c-53.293,69.172 -107.585,92.564 -188.415,83.087c-48.018,-5.63 -105.401,-22.858 -177.503,-48.98c-185.585,-67.234 -536.134,-194.374 -592.557,324.354c-7.528,69.213 0.243,183.785 15.142,240.636" style="fill:none;stroke:#3f3645;stroke-width:16.67px;"/><path id="string" d="M3326.561,1858.615c0,0 -1095.92,415.344 -2485.413,1239.428m2682.955,-1421.074l-2693.927,1391.739m2864.684,-1482.139l-2888.791,1438.376m-24.107,-35.491c0,0 2799.059,-1366.056 2862.675,-1533.464m-2862.675,1495.295c0,0 2501.072,-1217.397 2678.525,-1364.716m-2699.969,1322.529c0,0 2358.455,-1118.291 2552.649,-1279.003" style="fill:none;stroke:#3f3645;stroke-width:8.33px;"/></g></g><g id="hands"><g id="left-hand"><g id="color4" serif:id="color"><path id="base4" serif:id="base" d="M2884.441,1864.628c-8.187,-3.049 -16.039,-4.791 -23.138,-5.094c-20.104,-0.859 -111.024,20.904 -100.152,89.373c-37.554,1.6 -63.561,29.035 -66.088,32.067c-33.048,39.657 -29.978,129.958 42.793,121.416c-7.259,34.039 -15.412,75.647 -12.03,119.282c-11.104,7.075 -25.416,12.534 -36.833,16.206c3.409,-36.15 2.979,-51.769 -16.65,-50.984c-30.134,1.205 -51.04,53.367 -51.04,125.44c-0,273.931 87.991,361.402 136.96,330.24c19.063,-12.131 18.135,-29.159 10.16,-45.371c65.923,-4.72 229.64,-29.953 317.755,-175.744c149.641,-247.588 -20.332,-522.18 -68.75,-620.312c-51.034,-103.435 -40.375,-159.002 -50.625,-200c-19.794,-79.175 -155.094,-8.749 -82.362,263.482Z" style="fill:#f2e9d3;"/><path id="shade3" serif:id="shade" d="M2946.765,1916.767c-22.453,-69.373 -59.519,-199.503 -56.12,-265.558c1.017,-19.752 4.163,-40.255 7.856,-60.282c-31.558,36.948 -53.692,125.367 -14.061,273.701c-8.187,-3.049 -16.039,-4.791 -23.138,-5.094c-4.013,-0.172 -10.849,0.559 -19.134,2.382c51.383,10.388 86.657,32.305 104.596,54.852Zm-277.714,270.465c-28.354,4.736 -47.748,55.682 -47.748,125.101c-0,273.931 87.991,361.402 136.96,330.24c19.063,-12.131 18.135,-29.159 10.16,-45.371c29.735,-2.129 79.366,-8.432 132.981,-28.088c-63.232,-18.977 -131.838,-78.492 -181.34,-226.144c-25.354,-75.625 -40.766,-124.251 -51.012,-155.737Z" style="fill:#ead2ad;"/></g><path id="line4" serif:id="line" d="M2768.423,2597.202c7.975,16.212 8.903,33.24 -10.16,45.371c-48.969,31.162 -136.96,-56.308 -136.96,-330.24c0,-72.073 20.906,-124.235 51.04,-125.44c19.629,-0.785 20.059,14.834 16.65,50.984m36.833,-16.206c-11.104,7.075 -25.416,12.534 -36.833,16.206c-9.374,3.015 -16.797,4.826 -18.89,5.336m67.753,-140.824c-72.771,8.542 -75.84,-81.759 -42.793,-121.416c2.527,-3.033 28.534,-30.467 66.088,-32.067c33.685,-1.435 76.659,17.916 120.312,94.307m-120.312,-94.307c-10.872,-68.469 80.048,-90.232 100.152,-89.373c7.099,0.303 14.951,2.045 23.138,5.094c39.597,14.749 87.009,60.096 94.782,121.306m-94.782,-121.306c-72.732,-272.231 62.568,-342.656 82.362,-263.482c10.25,40.998 -0.409,96.564 50.625,200c48.417,98.132 218.391,372.724 68.75,620.312c-88.115,145.791 -251.832,171.023 -317.755,175.744c-11.578,0.829 -20.139,1.025 -24.745,1.131m72.025,-228.4c-14.266,1.189 -66.089,-47.791 -81.92,-103.2c-24.914,-87.199 11.058,-173.854 13.6,-217.92" style="fill:none;stroke:#3f3645;stroke-width:25px;"/></g><g id="right-hand"><g id="color5" serif:id="color"><path id="base5" serif:id="base" d="M1532.776,2705.169c-42.163,-41.933 -109.476,-54.031 -156.27,-34.317c-9.669,4.073 -18.461,9.504 -25.975,16.311c-11.332,10.266 -18.001,19.962 -21.032,29.069c-13.764,41.352 47.475,70.545 87.68,85.669c-32.15,19.313 -74.117,17.001 -108.888,-5.938c-19.577,-12.915 -35.702,-26.111 -48.938,-38.767c-23.707,-4.95 -97.115,-34.672 27.278,-102.792c69.972,-38.318 114.463,-123.245 120.311,-177.755c-14.723,-4.365 -29.912,-2.967 -33.967,-0.939c-64.146,32.073 -53.802,64.301 -205.469,69.531c-101.66,3.506 -159.903,51.064 -189.184,98.043c-37.72,-18.49 -90.907,13.685 -99.878,67.191c-21.555,128.56 -54.112,112.182 -136.719,212.109c-12.319,14.902 -36.329,57.42 -10.547,83.203c23.656,23.656 66.77,-18.359 89.883,-44.786c6.894,6.268 11.003,9.612 24.179,17.833c25.084,15.651 50.619,30.568 75.781,46.094c168.914,104.224 344.847,321.913 388.32,214.761c17.883,19.274 34.112,28.018 53.033,20.689c-7.597,-27.06 -10.955,-48.444 -13.245,-54.365c-52.626,-136.103 -52.759,-137.701 -111.884,-192.519c-8.609,-7.982 -82.325,-91.43 108.536,-98.771c178.268,-6.856 202.9,-128.497 186.994,-209.554Z" style="fill:#f2e9d3;"/><path id="shade4" serif:id="shade" d="M1362.375,3260.378c4.531,-1.755 9.216,-4.432 14.116,-8.106c51.083,-38.312 17.686,-181.23 -54.96,-280.479c49.656,4.484 126.54,5.361 185.32,-40.95c43.121,-33.974 70.756,-70.803 64.48,-142.08c-3.079,-34.966 -17.757,-62.909 -38.555,-83.594c15.906,81.057 -8.726,202.697 -186.994,209.554c-190.861,7.341 -117.145,90.789 -108.536,98.771c59.125,54.818 59.258,56.416 111.884,192.519c2.29,5.921 5.648,27.306 13.245,54.365Zm-103.022,-503.183c-1.972,-1.885 -3.879,-3.758 -5.724,-5.617c29.302,-72.61 84.938,-52.773 146.69,-143.447c62.7,-92.066 35.56,-122.904 6.623,-131.483c-5.848,54.51 -50.339,139.437 -120.311,177.755c-124.392,68.12 -50.985,97.842 -27.278,102.792Z" style="fill:#ead2ad;"/></g><path id="line5" serif:id="line" d="M1309.343,3239.689c-43.473,107.152 -219.406,-110.538 -388.32,-214.761c-25.162,-15.525 -50.697,-30.443 -75.781,-46.094c-13.177,-8.221 -17.285,-11.565 -24.179,-17.833c-4.141,-3.765 -9.288,-8.585 -18.008,-16.152m175.269,-301.566c-37.72,-18.49 -90.907,13.685 -99.878,67.191c-21.555,128.56 -54.112,112.182 -136.719,212.109c-12.319,14.902 -36.329,57.42 -10.547,83.203c23.656,23.656 66.77,-18.359 89.883,-44.786m135.508,-228.261c-6.718,-13.435 -2.058,-51.254 21.753,-89.457c29.281,-46.979 87.524,-94.537 189.184,-98.043c151.667,-5.23 141.323,-37.458 205.469,-69.531c12.026,-6.013 121.946,-6.488 27.344,132.422c-61.752,90.674 -117.388,70.837 -146.69,143.447m67.902,220.214c72.646,99.249 106.042,242.167 54.96,280.479c-25.359,19.019 -44.983,11.307 -67.149,-12.582c-44.642,-48.114 -48.204,-124.111 -181.071,-217.255m288.908,-220.534c-49.059,-18.455 -129.438,-57.858 -66.648,-114.738c61.817,-55.999 210.19,-18.899 220.8,101.6c6.276,71.277 -21.359,108.106 -64.48,142.08c-58.78,46.312 -135.664,45.435 -185.32,40.95c-15.926,-1.438 -29.051,-3.248 -37.88,-3.99m-80.96,-288.64c1.795,2.692 22.917,62.253 105.6,116.8c48.729,32.148 111.591,23.783 141.76,-27.84" style="fill:none;stroke:#3f3645;stroke-width:25px;"/></g></g></g></svg>