<svg width="23" height="22" viewBox="0 0 23 22" fill="none" xmlns="http://www.w3.org/2000/svg">
<circle cx="9.375" cy="12.408" r="8.625" fill="#DED8CA" stroke="#939393" stroke-width="1.5"/>
<path fill-rule="evenodd" clip-rule="evenodd" d="M11.2391 9.12096C12.1185 9.12108 12.8316 9.83435 12.8319 10.7137C12.8319 11.5933 12.1186 12.3064 11.2391 12.3065C11.0383 12.3065 10.8467 12.2679 10.6697 12.2001L8.95685 16.203C8.84237 16.47 8.48929 16.5282 8.29474 16.3124L5.43439 13.1395C5.23983 12.9236 5.33462 12.5782 5.61213 12.492L9.72834 11.2147C9.67617 11.0572 9.64631 10.8888 9.64631 10.7137C9.64654 9.83439 10.3597 9.12114 11.2391 9.12096ZM16.4031 0.0389246C19.5949 -0.377133 22.381 2.61077 22.1219 5.72057C21.9973 7.21247 20.8019 8.32386 19.8651 8.994C19.371 9.34737 18.8875 9.62211 18.5291 9.80748C18.3494 9.90044 18.1985 9.97223 18.0916 10.0213C18.0383 10.0458 17.9949 10.0648 17.9647 10.078C17.9496 10.0845 17.9372 10.0899 17.9285 10.0936C17.9243 10.0954 17.9204 10.0974 17.9178 10.0985C17.9168 10.0989 17.9156 10.0992 17.9149 10.0995L17.9139 10.1004H17.9129C17.5306 10.2592 17.0915 10.0783 16.9324 9.69615C16.7736 9.31385 16.9546 8.87484 17.3367 8.71568L17.3416 8.71373C17.3463 8.71172 17.3543 8.70769 17.3651 8.70299C17.3869 8.69345 17.4208 8.67823 17.4647 8.65806C17.5531 8.61744 17.6831 8.55644 17.8397 8.47545C18.1547 8.31248 18.5734 8.07439 18.993 7.77428C19.8836 7.13713 20.5629 6.37357 20.6278 5.59557C20.8157 3.33935 18.7441 1.2461 16.5965 1.52623C15.8727 1.62089 15.0953 2.25997 14.4285 3.05357C14.1137 3.42838 13.8558 3.79888 13.6766 4.07603C13.5875 4.21382 13.5182 4.32757 13.4725 4.40514C13.4498 4.44366 13.4325 4.47386 13.4217 4.49303C13.4164 4.50234 13.4123 4.50944 13.41 4.51353C13.409 4.51531 13.4084 4.51679 13.408 4.51744L13.368 4.58287C13.153 4.89624 12.7312 5.0023 12.3904 4.81627C12.0271 4.61778 11.8933 4.16216 12.0916 3.79869V3.79771L12.0926 3.79674C12.093 3.79601 12.0939 3.79486 12.0945 3.79381C12.0958 3.79158 12.0975 3.78853 12.0994 3.78502C12.1036 3.7775 12.1096 3.76681 12.117 3.75377C12.1319 3.72748 12.1531 3.68987 12.1805 3.64342C12.2355 3.55015 12.315 3.41798 12.4168 3.2606C12.6196 2.94705 12.9146 2.52381 13.2801 2.08873C13.9747 1.26203 15.0735 0.212472 16.4031 0.0389246Z" fill="#939393"/>
</svg>
