<?xml version="1.0" encoding="UTF-8" standalone="no"?><!DOCTYPE svg PUBLIC "-//W3C//DTD SVG 1.1//EN" "http://www.w3.org/Graphics/SVG/1.1/DTD/svg11.dtd"><svg width="100%" height="100%" viewBox="0 0 3969 3936" version="1.1" xmlns="http://www.w3.org/2000/svg" xmlns:xlink="http://www.w3.org/1999/xlink" xml:space="preserve" xmlns:serif="http://www.serif.com/" style="fill-rule:evenodd;clip-rule:evenodd;stroke-linecap:round;stroke-linejoin:round;stroke-miterlimit:1.5;"><g id="paul"><g id="shadow"><path id="shadow1" serif:id="shadow" d="M1368.252,3584.146c123.456,-44.092 1152.209,-16.227 1189.371,-12.187c0.895,0.097 316.648,24.845 62.187,84.375c-121.962,28.532 -767.886,14.12 -773.435,13.75c-440.105,-29.34 -488.838,-8.621 -478.123,-85.937Z" style="fill:#725151;"/></g><g id="head"><path id="tie" d="M1981.771,2333.56c13.717,24.706 30.647,40.147 51.281,35.971c2.419,-0.489 4.759,-1.137 7.023,-1.933c11.207,-3.941 20.548,-11.524 28.339,-21.59c4.76,30.017 12.393,72.836 21.387,124.786c4.552,26.296 9.453,54.932 14.507,85.432c23.089,139.352 49.359,317.614 60.104,489.403c1.084,17.328 2.01,34.59 2.758,51.74c-48.01,129.452 -109.863,224.944 -151.148,280.452c-52.536,-67.566 -98.073,-153.376 -130.979,-223.881c-0.146,-29.741 0.511,-63.825 1.899,-100.905c3.808,-101.713 13.113,-225.962 26.418,-344.907c2.074,-18.542 4.245,-36.955 6.508,-55.133c6.897,-55.411 14.644,-108.645 23.08,-156.714c11.749,-66.944 24.834,-123.873 38.822,-162.72Zm86.643,12.449c-7.79,10.066 -17.132,17.648 -28.339,21.59c-2.264,0.796 -4.604,1.444 -7.023,1.933c-20.635,4.175 -37.564,-11.266 -51.281,-35.971c-0.741,-1.334 -1.472,-2.695 -2.194,-4.081c-18.278,-35.097 -30.605,-86.46 -38.243,-127.651c14.601,3.182 30.585,5.515 45.018,5.625c28.411,0.217 59.42,-5.267 87.722,-12.429c11.682,-2.956 22.902,-6.198 33.289,-9.443c-0.686,16.141 -1.987,35.827 -4.661,56.266c-0.88,6.728 -1.909,13.538 -3.114,20.329c-5.631,31.733 -15.101,63.067 -31.173,83.833Z" style="fill:#3eb7ff;"/><g id="eyes"><g id="color"><path id="base" d="M1624.103,1411.258c160.457,-55.745 210.03,124.022 121.8,185.4c-119.28,82.977 -255.724,-84.957 -121.8,-185.4Zm674.999,-9c15.89,-1.204 90.979,-27.841 131.8,53.8c15.981,31.962 12.769,115.853 -55.4,136.6c-127.951,38.942 -174.385,-141.407 -76.4,-190.4Z" style="fill:#3f3645;"/><path id="hlight" d="M1645.159,1442.318c-56.419,9.603 -46.232,61.325 -20.089,57.142c23.721,-3.795 61.866,-49.518 20.089,-57.142Zm659.543,-14.841c-23.399,5.4 -43.067,65.102 -13.393,62.499c14.094,-1.236 87.97,-60.043 13.393,-62.499Z" style="fill:#e8d2ea;"/></g><path id="line" d="M1624.103,1411.258c-133.924,100.443 2.52,268.377 121.8,185.4c88.23,-61.377 38.657,-241.145 -121.8,-185.4Zm674.999,-9c-97.985,48.993 -51.551,229.341 76.4,190.4c68.169,-20.747 71.381,-104.638 55.4,-136.6c-40.821,-81.641 -115.91,-55.003 -131.8,-53.8Z" style="fill:none;stroke:#3f3645;stroke-width:25px;"/></g><g id="hair"><g id="color1" serif:id="color"><path id="base1" serif:id="base" d="M1942.121,1699.745c67.996,38.855 34.742,111.84 -19.082,136.987c-85.426,39.912 -154.317,-23.807 -262.842,158.982c-11.029,-40.816 -29.436,-85.733 66.4,-179.269c30.099,-29.377 169.423,-121.925 215.524,-116.7Zm105.405,-7.685c17.654,33.346 206.495,77.848 249.821,102.188c94.233,52.94 83.035,176.979 83.241,180.274c-89.248,-111.631 -110.193,-82.3 -245.185,-127.297c-56.29,-18.763 -92.002,-102.759 -87.877,-155.165Zm644.811,113.137c43.274,15.668 75.938,21.766 72.31,35.552c-0.056,0.213 -79.505,98.717 -96.413,96.012c-17.628,-2.82 14.971,-63.315 24.103,-131.564Zm-1509.472,-102.439c40.205,35.738 30.943,86.66 148.912,73.584c6.068,92.526 12.469,97.919 69.512,175.511c-64.088,-13.399 -112.971,-45.607 -136.272,-81.778c-30.551,-47.425 -98.055,-148.699 -82.152,-167.317Zm179.44,-1453.66c-24.343,-3.256 -46.586,-4.958 -66.324,-5.558c50.731,-38.392 121.75,-74.503 179.886,-92.439c-33.491,-32.265 -58.163,-68.442 -63.224,-75.862c17.617,4.455 131.357,33.219 220.989,34.304c143.489,-194.739 232.274,-30.587 693.388,-63.136c200.041,-14.121 258.056,125.296 299.21,205.352c51.121,0.464 101.427,-19.713 137.663,14.34c59.081,55.522 45.775,173.733 201.831,130.177c-27.744,54.872 -37.746,60.066 -120.751,64.031c96.395,64.468 120.18,79.768 128.319,154.035c8.934,81.523 -4.423,134.032 -22.372,167.568c13.599,33.384 21.107,56.333 36.683,122.425c41.399,175.665 -7.8,212.312 -15.316,279.95c-10.928,98.35 114.469,145.695 -28.372,279.95c-145.991,137.216 -137.445,144.331 -244.517,314.022c12.983,-32.46 72.982,-182.465 43.907,-434.79c-16.493,-143.136 -68.931,-275.587 -100.825,-346.811c-113.127,28.265 -224.664,0.219 -295.735,-40.283c-111.392,23.303 -207.742,9.524 -269.926,-10.243c17.588,30.462 40.851,64.329 70.178,97.988c-56.674,-17.196 -121.696,-47.574 -165.708,-73.248c-83.22,-48.545 -131.032,-97.626 -157.757,-134.352c-1.535,6.593 -2.947,13.182 -4.188,19.61c-6.939,35.946 -11.307,68.06 -13.961,95.992c-22.395,-50.552 -37.37,-103.029 -45.904,-152.159c-54.873,64.505 -138.398,149.12 -243.435,212.839c-35.313,21.422 -109.307,56.939 -161.143,77.179c-36.979,160.34 -3.515,310.24 13.322,365.996c-34.365,-16.501 -62.279,-38.716 -84.48,-62.227c-3.188,103.963 18.374,222.465 42.855,279.56c-140.511,-107.44 -85.807,-144.364 -130.175,-218.613c-47.765,-79.933 -152.422,-71.783 -197.095,-297.777c-27.777,-140.52 82.191,-492.132 99.426,-520.482c85.699,-140.963 61.553,-274.502 263.551,-387.338Z" style="fill:#635463;"/><path id="shade" d="M2985.234,1131.856c-5.635,17.495 -10.874,33.785 -12.946,52.429c-10.928,98.35 114.469,145.695 -28.372,279.95c-145.991,137.216 -137.445,144.331 -244.517,314.022c12.983,-32.46 72.982,-182.465 43.907,-434.79c-16.493,-143.136 -68.931,-275.587 -100.825,-346.811c-113.127,28.265 -224.664,0.219 -295.735,-40.283c-111.392,23.303 -207.742,9.524 -269.926,-10.243c17.588,30.462 40.851,64.329 70.178,97.988c-56.674,-17.196 -121.696,-47.574 -165.708,-73.248c-83.22,-48.545 -131.032,-97.626 -157.757,-134.352c-1.535,6.593 -2.947,13.182 -4.188,19.61c-6.939,35.946 -11.307,68.06 -13.961,95.992c-22.395,-50.552 -37.37,-103.029 -45.904,-152.159c-54.873,64.505 -138.398,149.12 -243.435,212.839c-35.313,21.422 -109.307,56.939 -161.143,77.179c-36.979,160.34 -3.515,310.24 13.322,365.996c-34.365,-16.501 -62.279,-38.716 -84.48,-62.227c-3.188,103.963 18.374,222.465 42.855,279.56c-140.511,-107.44 -85.807,-144.364 -130.175,-218.613c-47.765,-79.933 -152.422,-71.783 -197.095,-297.777c-7.567,-38.28 -4.912,-92.225 3.306,-151.034c55.714,10.834 -32.438,137.98 209.417,-1.777c397.03,-229.426 542.935,-555.704 581.282,-622.2c-61.669,333.288 179.952,279.527 512.102,338.142c247.506,43.677 306.14,245.322 494.837,127.055c40.266,253.528 109.976,305.067 184.96,284.753Zm-1043.113,567.889c67.996,38.855 34.742,111.84 -19.082,136.987c-85.426,39.912 -154.317,-23.807 -262.842,158.982c-11.029,-40.816 -29.436,-85.733 66.4,-179.269c30.099,-29.377 169.423,-121.925 215.524,-116.7Zm105.405,-7.685c17.654,33.346 206.495,77.848 249.821,102.188c94.233,52.94 83.035,176.979 83.241,180.274c-89.248,-111.631 -110.193,-82.3 -245.185,-127.297c-56.29,-18.763 -92.002,-102.759 -87.877,-155.165Zm-864.66,10.698c40.205,35.738 30.943,86.66 148.912,73.584c6.068,92.526 12.469,97.919 69.512,175.511c-64.088,-13.399 -112.971,-45.607 -136.272,-81.778c-30.551,-47.425 -98.055,-148.699 -82.152,-167.317Zm1509.472,102.439c43.274,15.668 75.938,21.766 72.31,35.552c-0.056,0.213 -79.505,98.717 -96.413,96.012c-17.628,-2.82 14.971,-63.315 24.103,-131.564Z" style="fill:#554659;"/><path id="hlight1" serif:id="hlight" d="M1659.248,241.98c-43.597,-5.45 -320.353,122.445 -393.51,444.495c288.643,-286.704 385.419,-210.243 485.052,-331.828c63.163,-77.08 -79.142,-87.868 -91.542,-112.667Zm337.78,-6.279c-18.619,18.619 92.936,-13.937 135.943,299.76c8.499,61.994 82.257,20.284 84.109,-79.708c4.565,-246.488 -65.496,-259.346 -220.052,-220.052Zm216.064,19.54c-26.064,25.326 77.936,-26.127 297.304,343.474c56.447,-245.053 -59.098,-405.684 -297.304,-343.474Z" style="fill:#947f8c;"/></g><path id="line1" serif:id="line" d="M1298.864,1103.94c2.991,4.486 25.726,-2.126 56.038,-13.962c51.835,-20.24 125.829,-55.756 161.143,-77.179c105.038,-63.719 188.562,-148.334 243.435,-212.839m6.386,-193.152c-16.953,38.93 -20.585,111.408 -6.386,193.152c8.534,49.13 23.509,101.607 45.904,152.159m18.149,-115.601c-1.535,6.593 -2.947,13.182 -4.188,19.61c-6.939,35.946 -11.307,68.06 -13.961,95.992m18.149,-115.601c26.724,36.725 74.537,85.806 157.757,134.352c44.012,25.674 109.034,56.052 165.708,73.248m-109.969,-211.34c-8.62,2.155 3.509,50.509 39.792,113.352c17.588,30.462 40.851,64.329 70.178,97.988m-70.178,-97.988c62.185,19.767 158.535,33.546 269.926,10.243c12.575,-2.631 25.343,-5.734 38.274,-9.355m-38.274,9.355c71.07,40.503 182.608,68.548 295.735,40.283c16.206,-4.049 32.445,-9.254 48.601,-15.743m-48.601,15.743c31.894,71.225 84.332,203.676 100.825,346.811c29.074,252.324 -30.924,402.33 -43.907,434.79c107.072,-169.691 98.526,-176.806 244.517,-314.022c142.841,-134.255 17.444,-181.6 28.372,-279.95c7.515,-67.638 56.714,-104.285 15.316,-279.95c-15.576,-66.093 -23.085,-89.041 -36.683,-122.425c-7.715,-18.94 -17.39,-41.238 -31.61,-76.678m31.61,76.678c17.949,-33.536 31.306,-86.045 22.372,-167.568c-8.139,-74.266 -31.924,-89.566 -128.319,-154.035c83.005,-3.965 93.007,-9.159 120.751,-64.031c-156.055,43.556 -142.75,-74.655 -201.831,-130.177c-36.236,-34.053 -86.542,-13.876 -137.663,-14.34c-28.08,-0.255 -56.407,-6.738 -82.782,-31.858m-909.816,-110.358c143.489,-194.739 232.274,-30.587 693.388,-63.136c200.041,-14.121 258.056,125.296 299.21,205.352m-939.455,-145.847c-15.816,2.824 -33.925,3.864 -53.143,3.631c-89.632,-1.085 -203.372,-29.849 -220.989,-34.304c5.061,7.42 29.733,43.597 63.224,75.862m94.157,-3.762c-15.628,-12.787 -51.41,-9.426 -94.157,3.762c-58.136,17.935 -129.155,54.047 -179.886,92.439m-0,0c19.738,0.6 41.981,2.302 66.324,5.558m60.84,-30.202c-22.31,9.89 -42.507,19.961 -60.84,30.202c-201.997,112.837 -177.851,246.375 -263.551,387.338c-17.235,28.349 -127.203,379.962 -99.426,520.482c44.673,225.994 149.33,217.844 197.095,297.777c44.368,74.249 -10.336,111.173 130.175,218.613c-24.481,-57.095 -46.043,-175.597 -42.855,-279.56m-71.502,-127.862c0.696,15.997 21.759,75.183 71.502,127.862c22.201,23.511 50.115,45.727 84.48,62.227c-16.837,-55.755 -50.302,-205.656 -13.322,-365.996m-172.036,612.78c40.205,35.738 30.943,86.66 148.912,73.584c6.068,92.526 12.469,97.919 69.512,175.511c-64.088,-13.399 -112.971,-45.607 -136.272,-81.778c-30.551,-47.425 -98.055,-148.699 -82.152,-167.317Zm1509.472,102.439c43.274,15.668 75.938,21.766 72.31,35.552c-0.056,0.213 -79.505,98.717 -96.413,96.012c-17.628,-2.82 14.971,-63.315 24.103,-131.564Zm-750.217,-105.452c67.996,38.855 34.742,111.84 -19.082,136.987c-85.426,39.912 -154.317,-23.807 -262.842,158.982c-11.029,-40.816 -29.436,-85.733 66.4,-179.269c30.099,-29.377 169.423,-121.925 215.524,-116.7Zm105.405,-7.685c17.654,33.346 206.495,77.848 249.821,102.188c94.233,52.94 83.035,176.979 83.241,180.274c-89.248,-111.631 -110.193,-82.3 -245.185,-127.297c-56.29,-18.763 -92.002,-102.759 -87.877,-155.165Z" style="fill:none;stroke:#3f3645;stroke-width:25px;"/></g></g><g id="instrument"><g id="color2" serif:id="color"><path id="base2" serif:id="base" d="M769.279,1719.352c-17.31,-39.424 -35.074,-95.857 -48.273,-190.869c-127.448,4.831 -322.915,-62.719 -484.418,-255.541c-38.708,132.51 -123.83,306.761 -224.088,419.931c230.972,38.759 379.138,147.029 484.393,335.657c39.612,-31.936 97.459,-70.176 167.209,-91.488c5.839,-11.307 12.433,-24.278 19.858,-39.15c4.739,-9.491 9.817,-19.758 15.254,-30.86c2.833,-5.785 5.764,-11.798 8.795,-18.046c4.938,-10.18 10.142,-20.987 15.626,-32.457c1.017,-2.127 2.029,-4.242 3.037,-6.346c2.69,-5.617 5.291,-11.032 7.805,-16.254c5.293,-10.994 10.201,-21.127 14.754,-30.475c8.236,-16.908 15.309,-31.245 21.395,-43.449l-1.347,-0.654Zm-484.724,-315.628c54.459,20.422 15.916,86.095 -27.317,68.293c-28.494,-11.733 -44.879,-78.742 27.317,-68.293Zm162.697,120.516c34.404,11.468 13.822,92.879 -41.779,65.079c-24.2,-12.1 -30.911,-87.794 41.779,-65.079Zm-111.478,162.697c46.568,5.588 54.41,97.174 -18.077,70.1c-61.228,-22.868 -7.355,-93.576 18.077,-70.1Zm-180.775,-84.361c35.433,-0 44.883,72.785 -3.013,76.126c-41.14,2.87 -60.992,-64.77 3.013,-76.126Zm451.937,-12.052c22.65,-9.06 69.582,43.237 18.479,69.9c-46.147,24.077 -87.31,-40.779 -18.479,-69.9Zm-111.478,222.955c64.002,14.491 47.604,72.778 25.308,85.165c-35.029,19.46 -101.121,-38.142 -25.308,-85.165Zm1362.921,442.976l10.245,5.72c28.289,15.804 57.279,32.097 86.642,48.582c11.076,6.218 22.204,12.464 33.368,18.721c33.308,18.668 66.93,37.439 100.398,55.892c33.616,18.534 67.076,36.748 99.905,54.216c37.713,20.065 74.594,39.145 109.923,56.594c23.852,11.78 46.997,22.816 69.212,32.91c14.438,-28.963 26.993,-54.635 35.903,-73.923c34.824,18.107 108.439,55.535 125.8,66.732l2.745,1.771c-5.02,10.187 -10.521,21.36 -16.402,33.326c170.767,76.699 486.743,205.103 634.876,292.546c4.658,-10.36 9.537,-21.346 14.666,-33.052c34.078,15.34 76.525,37.117 102.685,49.961c-2.996,6.635 -6.347,13.885 -9.946,21.554c25.446,-0.051 41.717,0.679 59.444,0.892c3.552,0.043 7.163,0.064 10.917,0.055l-2.779,5.756c184.565,131.483 497.87,335.205 569.907,402.343c90.75,-241.256 79.56,-459.281 -42.535,-684.688c-284.1,-524.493 -826.771,-248.843 -1036.669,-202.038c-334.426,74.573 -363.4,-110.249 -499.21,-299.134c-107.489,-149.496 -317.607,-64.823 -423.338,83.832c-10.678,15.013 -20.292,30.68 -28.627,46.823c-2.493,4.829 -4.872,9.7 -7.131,14.609Zm1951.2,1225.06c-122.575,-50.571 -476.792,-150.159 -628.387,-211.352c-2.179,-0.879 -4.315,-1.751 -6.409,-2.614l2.037,-5.22c-16.947,-30.297 -37.304,-65.902 -51.638,-90.853c-10.247,23.721 -21.851,50.257 -34.879,79.265c-13.267,-7.187 -27.986,-14.934 -36.854,-19.577c-88.498,60.359 -361.725,-21.557 -396.876,-37.043c-296.361,-130.564 -378.497,-302.232 -404.006,-368.553c-8.085,-4.578 -16.525,-9.233 -25.322,-13.924c6.042,-13.377 14.475,-30.957 24.46,-51.266c-19.98,-10.629 -43.393,-23.039 -69.766,-36.979c-31.364,-16.579 -66.914,-35.323 -105.85,-55.812l-27.745,-14.594c-27.684,-14.556 -56.866,-29.883 -87.29,-45.845c-31.171,-16.355 -63.646,-33.377 -97.15,-50.923l-24.023,-12.578c-22.286,-11.666 -44.986,-23.541 -68.023,-35.587c1.002,31.281 -6.539,82.083 -36.958,166.58c-63.035,175.098 -272.8,171.172 -256.478,259.77c19.3,104.759 145.94,110.388 325.378,111.218c82.994,0.384 177.283,-0.259 277.47,7.406c58.961,4.511 119.964,11.898 181.91,24.066c241.354,47.407 245.939,400.454 365.198,560.653c203.61,273.507 394.866,267.707 536.479,283.441c54.606,6.067 378.595,10.735 616.768,-390.91c9.716,-16.385 19.035,-32.639 27.953,-48.769Zm-717.745,-163.088c32.291,-6.458 40.803,78.147 -13.809,78.147c-43.582,-0 -67.236,-86.46 13.809,-78.147Zm-201.983,146.456c61.405,76.757 -33.231,170.252 -97.618,99.426c-50.197,-55.216 45.38,-174.939 97.618,-99.426Zm362.043,18.313c83.117,40.435 35.072,145.07 -36.092,135.581c-76.098,-10.146 -92.184,-132.284 36.092,-135.581Z" style="fill:#483f52;"/><path id="hlight2" serif:id="hlight" d="M3954.797,3028.359c7.004,-140.649 -26.108,-276.918 -101.442,-415.996c-205.514,-379.411 -546.335,-340.117 -798.616,-271.63c356.044,27.774 610.064,84.345 747.627,360.493c66.264,133.021 114.484,240.562 152.432,327.133Zm-1725.626,-985.357c98.037,151.432 39.23,251.587 164.251,337.315c86.52,59.328 155.255,59.252 201.878,36.379c-138.303,-37.692 -180.8,-170.562 -277.824,-305.504c-24.814,-34.512 -55.098,-56.544 -88.304,-68.19Zm-1460.612,-325.297c-17.082,-39.346 -34.538,-95.525 -47.554,-189.221c-127.448,4.831 -322.915,-62.719 -484.418,-255.541c-5.076,17.378 -10.951,35.474 -17.553,54.056c230.576,238.985 298.767,209.595 379.402,218.384c135.771,14.8 83.582,77.19 121.742,145.215c15.922,28.383 33.143,32.681 48.381,27.107Z" style="fill:#908491;"/><path id="handle" d="M1771.859,2508.062c23.037,12.045 45.737,23.921 68.023,35.587l24.023,12.578c33.504,17.545 65.979,34.568 97.15,50.923c30.424,15.963 59.606,31.289 87.29,45.845l27.745,14.594c38.936,20.489 74.485,39.233 105.85,55.812c26.372,13.94 49.786,26.35 69.766,36.979c3.46,-7.038 7.106,-14.403 10.904,-22.035l0.707,-1.42c5.827,-11.703 12.002,-24.019 18.4,-36.728l0.232,-0.46c3.079,-6.116 6.21,-12.322 9.377,-18.595l0.896,-1.774c7.024,-13.904 14.225,-28.121 21.452,-42.387l0.952,-1.879c5.887,-11.621 11.788,-23.267 17.622,-34.795l1.417,-2.8c6.443,-12.738 12.796,-25.318 18.948,-37.548l0.514,-1.023c5.148,-10.236 10.153,-20.223 14.95,-29.846c-22.215,-10.094 -45.36,-21.13 -69.212,-32.91c-35.329,-17.448 -72.21,-36.528 -109.923,-56.594c-32.83,-17.467 -66.29,-35.681 -99.905,-54.216c-33.468,-18.453 -67.091,-37.224 -100.398,-55.892c-11.164,-6.257 -22.293,-12.503 -33.368,-18.721c-29.363,-16.485 -58.354,-32.778 -86.642,-48.582l-10.245,-5.72c-10.916,-6.089 -21.721,-12.1 -32.395,-18.014c-56.796,-31.469 -109.879,-60.213 -156.348,-83.627c-25.576,-12.887 -49.148,-24.159 -70.232,-33.383c-29.098,-12.729 -56.245,-24.696 -81.695,-36.005c-62.722,-27.871 -115.136,-51.748 -161.042,-73.195c-62.888,-29.382 -113.562,-54.205 -161.789,-78.496c-45.377,-22.856 -88.587,-45.24 -137.768,-70.507c-43.404,-22.3 -91.459,-46.844 -149.757,-75.94c-40.118,-20.022 -85.087,-42.2 -136.73,-67.284c-6.086,12.204 -13.16,26.54 -21.395,43.449c-4.553,9.348 -9.461,19.481 -14.754,30.475c-2.514,5.221 -5.114,10.636 -7.805,16.254c-1.007,2.104 -2.02,4.219 -3.037,6.346c-5.485,11.47 -10.688,22.277 -15.626,32.457c-3.031,6.248 -5.961,12.261 -8.795,18.046c-5.437,11.103 -10.515,21.369 -15.254,30.86c-7.426,14.873 -14.019,27.844 -19.858,39.15l0.345,-0.105c34.997,17.239 80.8,40.25 134.773,67.648c43.632,22.148 92.604,47.162 145.525,74.31c41.764,21.425 85.988,44.179 131.988,67.902c51.453,26.535 105.127,54.283 160.066,82.74c52.6,27.245 106.358,55.139 160.436,83.241c50.6,26.294 101.48,52.771 151.951,79.066c51.5,26.831 102.574,53.475 152.492,79.545c23.68,12.367 47.1,24.606 70.182,36.674Z" style="fill:#806873;"/><g id="whites"><path id="color21" serif:id="color2" d="M3317.844,2888.897c-17.727,-0.213 -33.999,-0.943 -59.444,-0.892c-29.35,62.53 -75.289,152.908 -81.338,164.809c-9.786,19.252 -26.752,60.494 -51.879,118.663c14.333,24.951 34.69,60.557 51.638,90.853c27.963,-71.647 68.077,-174.232 106.186,-270.969c13.89,-35.258 29.801,-69.299 42.977,-96.653l-8.138,-5.811Zm-166.848,-39.355c-148.133,-87.442 -464.109,-215.846 -634.876,-292.546c-10.019,20.385 -21.143,43.071 -32.874,67.099c-6.622,13.564 -13.438,27.557 -20.358,41.804c-6.06,12.478 -12.201,25.152 -18.361,37.907c-6.782,14.042 -13.587,28.18 -20.337,42.261c-3.729,7.78 -7.441,15.542 -11.122,23.261c-6.045,12.675 -12.007,25.231 -17.826,37.556c-13.694,29.001 -26.598,56.712 -37.933,81.631c-23.555,-12.941 -58.301,-36.653 -104.744,-62.946c25.509,66.321 107.646,237.988 404.006,368.553c35.151,15.486 308.377,97.403 396.876,37.043c-3.881,-2.032 -6.642,-3.469 -7.67,-4.004c-23.822,-12.401 -36.072,-17.289 -48.564,-22.089c8.688,-25.038 16.582,-47.018 23.906,-66.68c5.194,-13.945 10.101,-26.724 14.801,-38.601c5.328,-13.464 10.389,-25.77 15.3,-37.302c5.992,-14.072 11.76,-26.991 17.515,-39.458c6.597,-14.292 13.175,-27.988 20.053,-42.143c7.289,-15.002 14.915,-30.52 23.254,-47.806c11.346,-23.519 24.013,-50.313 38.952,-83.539Z" style="fill:#ead2ad;"/><path id="color11" serif:id="color1" d="M2516.121,2556.997c5.881,-11.966 11.382,-23.139 16.402,-33.326l-2.745,-1.771c-17.361,-11.196 -90.977,-48.625 -125.8,-66.732c-8.91,19.287 -21.466,44.96 -35.903,73.923c-4.797,9.623 -9.802,19.61 -14.95,29.846l-0.514,1.023c-6.152,12.23 -12.505,24.81 -18.948,37.548l-1.417,2.8c-5.833,11.529 -11.734,23.175 -17.622,34.795l-0.952,1.879c-7.227,14.266 -14.428,28.483 -21.452,42.387l-0.896,1.774c-3.168,6.272 -6.298,12.479 -9.377,18.595l-0.232,0.46c-6.398,12.709 -12.573,25.025 -18.4,36.728l-0.707,1.42c-3.798,7.632 -7.444,14.997 -10.904,22.035c-9.984,20.309 -18.418,37.889 -24.46,51.266c8.797,4.691 17.237,9.346 25.322,13.924c46.442,26.293 81.189,50.005 104.744,62.946c11.335,-24.918 24.239,-52.63 37.933,-81.631c5.819,-12.324 11.781,-24.881 17.826,-37.556c3.681,-7.719 7.393,-15.481 11.122,-23.261c6.749,-14.081 13.555,-28.22 20.337,-42.261c6.16,-12.754 12.3,-25.428 18.361,-37.907c6.92,-14.248 13.736,-28.24 20.358,-41.804c11.731,-24.028 22.854,-46.713 32.874,-67.099Zm634.876,292.546c-14.939,33.227 -27.606,60.02 -38.952,83.539c-8.339,17.286 -15.965,32.804 -23.254,47.806c-6.878,14.155 -13.456,27.852 -20.053,42.143c-5.754,12.467 -11.522,25.386 -17.515,39.458c-4.911,11.532 -9.972,23.838 -15.3,37.302c-4.7,11.877 -9.607,24.656 -14.801,38.601c-7.324,19.662 -15.218,41.642 -23.906,66.68c12.492,4.8 24.742,9.688 48.564,22.089c1.028,0.535 3.789,1.972 7.67,4.004c8.868,4.642 23.587,12.39 36.854,19.577c13.028,-29.008 24.632,-55.544 34.879,-79.265c25.128,-58.169 42.093,-99.41 51.879,-118.663c6.049,-11.901 51.988,-102.279 81.338,-164.809c3.6,-7.669 6.95,-14.919 9.946,-21.554c-26.159,-12.844 -68.607,-34.621 -102.685,-49.961c-5.129,11.707 -10.008,22.692 -14.666,33.052Zm744.894,447.508c-72.037,-67.137 -385.343,-270.859 -569.907,-402.343c-13.175,27.353 -29.087,61.395 -42.977,96.653c-38.109,96.738 -78.223,199.322 -106.186,270.969l4.372,7.834c151.595,61.193 505.812,160.78 628.387,211.352c34.963,-63.233 63.779,-124.565 86.311,-184.466Zm-3740.89,-1694.475c-64.005,11.356 -44.153,78.996 -3.013,76.126c47.896,-3.342 38.445,-76.126 3.013,-76.126Zm129.555,-198.852c-72.196,-10.449 -55.811,56.56 -27.317,68.293c43.233,17.802 81.776,-47.871 27.317,-68.293Zm162.697,120.516c-72.69,-22.716 -65.979,52.979 -41.779,65.079c55.601,27.801 76.183,-53.611 41.779,-65.079Zm-111.478,162.697c-25.432,-23.476 -79.305,47.232 -18.077,70.1c72.488,27.074 64.645,-64.512 18.077,-70.1Zm271.162,-96.413c-68.831,29.121 -27.668,93.976 18.479,69.9c51.103,-26.662 4.171,-78.96 -18.479,-69.9Zm-111.478,222.955c-75.812,47.023 -9.72,104.625 25.308,85.165c22.296,-12.387 38.694,-70.674 -25.308,-85.165Zm2596.375,1504.948c-81.045,-8.312 -57.391,78.147 -13.809,78.147c54.613,-0 46.1,-84.606 13.809,-78.147Zm160.061,164.769c-128.277,3.296 -112.191,125.434 -36.092,135.581c71.164,9.489 119.21,-95.145 36.092,-135.581Zm-362.043,-18.313c-52.238,-75.513 -147.815,44.21 -97.618,99.426c64.387,70.826 159.024,-22.669 97.618,-99.426Z" style="fill:#f2e9d3;"/></g></g><g id="line2" serif:id="line"><path id="outline" d="M1894.138,2195.024c105.731,-148.655 315.849,-233.328 423.338,-83.832c135.81,188.885 164.783,373.707 499.21,299.134c209.899,-46.805 752.569,-322.455 1036.669,202.038c122.095,225.407 133.285,443.432 42.535,684.688c-22.532,59.9 -51.348,121.233 -86.311,184.466c-8.919,16.13 -18.237,32.384 -27.953,48.769c-238.174,401.645 -562.162,396.977 -616.768,390.91c-141.613,-15.735 -332.868,-9.935 -536.479,-283.441c-119.259,-160.198 -123.844,-513.246 -365.198,-560.653c-61.946,-12.167 -122.95,-19.555 -181.91,-24.066c-100.187,-7.665 -194.475,-7.022 -277.47,-7.406c-179.437,-0.83 -306.078,-6.459 -325.378,-111.218c-16.322,-88.598 193.443,-84.672 256.478,-259.77c30.419,-84.497 37.96,-135.298 36.958,-166.58c-23.082,-12.068 -46.502,-24.307 -70.182,-36.674c-49.918,-26.07 -100.992,-52.714 -152.492,-79.545c-50.471,-26.295 -101.351,-52.772 -151.951,-79.066c-54.078,-28.102 -107.837,-55.996 -160.436,-83.241c-54.939,-28.456 -108.613,-56.204 -160.066,-82.74c-45.999,-23.723 -90.223,-46.477 -131.988,-67.902c-52.921,-27.148 -101.893,-52.162 -145.525,-74.31c-53.973,-27.397 -99.776,-50.409 -134.773,-67.648l-0.345,0.105c-69.75,21.311 -127.597,59.551 -167.209,91.488c-105.255,-188.628 -253.421,-296.898 -484.393,-335.657c100.258,-113.17 185.38,-287.421 224.088,-419.931c161.503,192.822 356.97,260.371 484.418,255.541c13.199,95.011 30.963,151.445 48.273,190.869l1.347,0.654c51.643,25.084 96.612,47.261 136.73,67.284c58.298,29.095 106.352,53.64 149.757,75.94c49.181,25.267 92.391,47.652 137.768,70.507c48.227,24.291 98.9,49.115 161.789,78.496c45.906,21.447 98.32,45.324 161.042,73.195c25.45,11.309 52.597,23.276 81.695,36.005c21.084,9.224 44.656,20.496 70.232,33.383c46.469,23.414 99.552,52.158 156.348,83.627c10.674,5.914 21.478,11.924 32.395,18.014c2.259,-4.909 4.638,-9.781 7.131,-14.609c8.336,-16.143 17.949,-31.809 28.627,-46.823Zm2001.752,1102.027c-22.532,59.9 -51.348,121.233 -86.311,184.466c-122.575,-50.571 -476.792,-150.159 -628.387,-211.352l-4.372,-7.834c27.963,-71.647 68.077,-174.232 106.186,-270.969c13.89,-35.258 29.801,-69.299 42.977,-96.653c184.565,131.483 497.87,335.205 569.907,402.343Zm-2124.031,-788.989c-23.082,-12.068 -46.502,-24.307 -70.182,-36.674c-49.918,-26.07 -100.992,-52.714 -152.492,-79.545c-50.471,-26.295 -101.351,-52.772 -151.951,-79.066c-54.078,-28.102 -107.837,-55.996 -160.436,-83.241c-54.939,-28.456 -108.613,-56.204 -160.066,-82.74c-45.999,-23.723 -90.223,-46.477 -131.988,-67.902c-52.921,-27.148 -101.893,-52.162 -145.525,-74.31c-53.973,-27.397 -99.776,-50.409 -134.773,-67.648l-0.345,0.105c5.839,-11.307 12.433,-24.278 19.858,-39.15c4.739,-9.491 9.817,-19.758 15.254,-30.86c2.833,-5.785 5.764,-11.798 8.795,-18.046c4.938,-10.18 10.143,-20.987 15.626,-32.457c1.018,-2.129 2.031,-4.245 3.037,-6.346c2.69,-5.617 5.291,-11.032 7.805,-16.254c5.293,-10.994 10.201,-21.127 14.754,-30.475c8.236,-16.908 15.309,-31.245 21.395,-43.449c51.643,25.084 96.612,47.261 136.73,67.284c58.298,29.095 106.352,53.64 149.757,75.94c49.181,25.267 92.391,47.652 137.768,70.507c48.227,24.291 98.9,49.115 161.789,78.496c45.906,21.447 98.32,45.324 161.042,73.195c25.45,11.309 52.597,23.276 81.695,36.005c21.084,9.224 44.656,20.496 70.232,33.383c46.469,23.414 99.552,52.158 156.348,83.627c10.674,5.914 21.478,11.924 32.395,18.014l10.245,5.72c28.289,15.804 57.279,32.097 86.642,48.582c11.076,6.218 22.204,12.464 33.368,18.721c33.308,18.668 66.93,37.439 100.398,55.892c33.616,18.534 67.076,36.748 99.905,54.216c37.713,20.065 74.594,39.145 109.923,56.594c23.852,11.78 46.997,22.816 69.212,32.91c-4.797,9.623 -9.802,19.61 -14.95,29.846c-0.171,0.341 -0.343,0.682 -0.514,1.023c-6.152,12.23 -12.505,24.81 -18.948,37.548c-0.472,0.933 -0.944,1.866 -1.417,2.8c-5.833,11.529 -11.734,23.175 -17.622,34.795c-0.317,0.626 -0.635,1.252 -0.952,1.879c-7.227,14.266 -14.428,28.483 -21.452,42.387c-0.299,0.592 -0.598,1.183 -0.896,1.774c-3.168,6.272 -6.298,12.479 -9.377,18.595c-0.077,0.154 -0.155,0.307 -0.232,0.46c-6.398,12.709 -12.573,25.025 -18.4,36.728c-0.236,0.474 -0.472,0.947 -0.707,1.42c-3.798,7.632 -7.444,14.997 -10.904,22.035c-19.98,-10.629 -43.393,-23.039 -69.766,-36.979c-31.364,-16.579 -66.914,-35.323 -105.85,-55.812l-27.745,-14.594c-27.684,-14.556 -56.866,-29.883 -87.29,-45.845c-31.171,-16.355 -63.646,-33.377 -97.15,-50.923l-24.023,-12.578c-22.286,-11.666 -44.986,-23.541 -68.023,-35.587Zm-1107.757,-571.02c-69.75,21.311 -127.597,59.551 -167.209,91.488c-105.255,-188.628 -253.421,-296.898 -484.393,-335.657c100.258,-113.17 185.38,-287.421 224.088,-419.931c161.503,192.822 356.97,260.371 484.418,255.541c13.199,95.011 30.963,151.445 48.273,190.869l1.347,0.654c-6.086,12.204 -13.16,26.54 -21.395,43.449c-4.553,9.348 -9.461,19.481 -14.754,30.475c-2.514,5.221 -5.114,10.636 -7.805,16.254c-1.006,2.101 -2.018,4.217 -3.037,6.346c-5.483,11.47 -10.688,22.277 -15.626,32.457c-3.031,6.248 -5.961,12.261 -8.795,18.046c-5.437,11.103 -10.515,21.369 -15.254,30.86c-7.426,14.873 -14.019,27.844 -19.858,39.15Zm2664.659,951.91l-2.779,5.756l-8.138,-5.811c3.552,0.043 7.163,0.064 10.917,0.055Zm-10.917,-0.055c-17.727,-0.213 -33.999,-0.943 -59.444,-0.892c-29.35,62.53 -75.289,152.908 -81.338,164.809c-9.786,19.252 -26.752,60.494 -51.879,118.663c14.333,24.951 34.69,60.557 51.638,90.853c27.963,-71.647 68.077,-174.232 106.186,-270.969c13.89,-35.258 29.801,-69.299 42.977,-96.653l-8.138,-5.811Zm-49.498,-22.446c-2.996,6.635 -6.347,13.885 -9.946,21.554c-29.35,62.53 -75.289,152.908 -81.338,164.809c-9.786,19.252 -26.752,60.494 -51.879,118.663c-10.247,23.721 -21.851,50.257 -34.879,79.265c-13.267,-7.187 -27.986,-14.934 -36.854,-19.577c-3.881,-2.032 -6.642,-3.469 -7.67,-4.004c-23.822,-12.401 -36.072,-17.289 -48.564,-22.089c8.688,-25.038 16.582,-47.018 23.906,-66.68c5.194,-13.945 10.101,-26.724 14.801,-38.601c5.328,-13.464 10.389,-25.77 15.3,-37.302c5.992,-14.072 11.76,-26.991 17.515,-39.458c6.597,-14.292 13.175,-27.988 20.053,-42.143c7.289,-15.002 14.915,-30.52 23.254,-47.806c11.346,-23.519 24.013,-50.313 38.952,-83.539c4.658,-10.36 9.537,-21.346 14.666,-33.052c34.078,15.34 76.525,37.117 102.685,49.961Zm-752.226,-309.454c5.881,-11.966 11.382,-23.139 16.402,-33.326l-2.745,-1.771c-17.361,-11.196 -90.977,-48.625 -125.8,-66.732c-8.91,19.287 -21.466,44.96 -35.903,73.923c-4.797,9.623 -9.802,19.61 -14.95,29.846c-0.171,0.341 -0.343,0.682 -0.514,1.023c-6.152,12.23 -12.505,24.81 -18.948,37.548c-0.472,0.933 -0.944,1.866 -1.417,2.8c-5.833,11.529 -11.734,23.175 -17.622,34.795c-0.317,0.626 -0.635,1.252 -0.952,1.879c-7.227,14.266 -14.428,28.483 -21.452,42.387c-0.299,0.592 -0.598,1.183 -0.896,1.774c-3.168,6.272 -6.298,12.479 -9.377,18.595c-0.077,0.154 -0.155,0.307 -0.232,0.46c-6.398,12.709 -12.573,25.025 -18.4,36.728c-0.236,0.474 -0.472,0.947 -0.707,1.42c-3.798,7.632 -7.444,14.997 -10.904,22.035c-9.984,20.309 -18.418,37.889 -24.46,51.266c8.797,4.691 17.237,9.346 25.322,13.924c46.442,26.293 81.189,50.005 104.744,62.946c11.335,-24.918 24.239,-52.63 37.933,-81.631c5.819,-12.324 11.781,-24.881 17.826,-37.556c3.681,-7.719 7.393,-15.481 11.122,-23.261c6.749,-14.081 13.555,-28.22 20.337,-42.261c6.16,-12.754 12.3,-25.428 18.361,-37.907c6.92,-14.248 13.736,-28.24 20.358,-41.804c11.731,-24.028 22.854,-46.713 32.874,-67.099Zm665.071,713.168l-4.372,-7.834l-2.037,5.22c2.094,0.863 4.23,1.735 6.409,2.614Zm-1287.054,-1075.141c105.731,-148.655 315.849,-233.328 423.338,-83.832c135.81,188.885 164.783,373.707 499.21,299.134c209.899,-46.805 752.569,-322.455 1036.669,202.038c122.095,225.407 133.285,443.432 42.535,684.688c-22.532,59.9 -51.348,121.233 -86.311,184.466c-8.919,16.13 -18.237,32.384 -27.953,48.769c-238.174,401.645 -562.162,396.977 -616.768,390.91c-141.613,-15.735 -332.868,-9.935 -536.479,-283.441c-119.259,-160.198 -123.844,-513.246 -365.198,-560.653c-61.946,-12.167 -122.95,-19.555 -181.91,-24.066c-100.187,-7.665 -194.475,-7.022 -277.47,-7.406c-179.437,-0.83 -306.078,-6.459 -325.378,-111.218c-16.322,-88.598 193.443,-84.672 256.478,-259.77c30.419,-84.497 37.96,-135.298 36.958,-166.58c-23.082,-12.068 -46.502,-24.307 -70.182,-36.674c-49.918,-26.07 -100.992,-52.714 -152.492,-79.545c-50.471,-26.295 -101.351,-52.772 -151.951,-79.066c-54.078,-28.102 -107.837,-55.996 -160.436,-83.241c-54.939,-28.456 -108.613,-56.204 -160.066,-82.74c-45.999,-23.723 -90.223,-46.477 -131.988,-67.902c-52.921,-27.148 -101.893,-52.162 -145.525,-74.31c-53.973,-27.397 -99.776,-50.409 -134.773,-67.648l-0.345,0.105c-69.75,21.311 -127.597,59.551 -167.209,91.488c-105.255,-188.628 -253.421,-296.898 -484.393,-335.657c100.258,-113.17 185.38,-287.421 224.088,-419.931c161.503,192.822 356.97,260.371 484.418,255.541c13.199,95.011 30.963,151.445 48.273,190.869l1.347,0.654c51.643,25.084 96.612,47.261 136.73,67.284c58.298,29.095 106.352,53.64 149.757,75.94c49.181,25.267 92.391,47.652 137.768,70.507c48.227,24.291 98.9,49.115 161.789,78.496c45.906,21.447 98.32,45.324 161.042,73.195c25.45,11.309 52.597,23.276 81.695,36.005c21.084,9.224 44.656,20.496 70.232,33.383c46.469,23.414 99.552,52.158 156.348,83.627c10.674,5.914 21.478,11.924 32.395,18.014c2.259,-4.909 4.638,-9.781 7.131,-14.609c8.336,-16.143 17.949,-31.809 28.627,-46.823Zm2001.752,1102.027c-22.532,59.9 -51.348,121.233 -86.311,184.466c-122.575,-50.571 -476.792,-150.159 -628.387,-211.352l-4.372,-7.834c27.963,-71.647 68.077,-174.232 106.186,-270.969c13.89,-35.258 29.801,-69.299 42.977,-96.653c184.565,131.483 497.87,335.205 569.907,402.343Zm-2124.031,-788.989c-23.082,-12.068 -46.502,-24.307 -70.182,-36.674c-49.918,-26.07 -100.992,-52.714 -152.492,-79.545c-50.471,-26.295 -101.351,-52.772 -151.951,-79.066c-54.078,-28.102 -107.837,-55.996 -160.436,-83.241c-54.939,-28.456 -108.613,-56.204 -160.066,-82.74c-45.999,-23.723 -90.223,-46.477 -131.988,-67.902c-52.921,-27.148 -101.893,-52.162 -145.525,-74.31c-53.973,-27.397 -99.776,-50.409 -134.773,-67.648l-0.345,0.105c5.839,-11.307 12.433,-24.278 19.858,-39.15c4.739,-9.491 9.817,-19.758 15.254,-30.86c2.833,-5.785 5.764,-11.798 8.795,-18.046c4.938,-10.18 10.143,-20.987 15.626,-32.457c1.025,-2.144 2.037,-4.259 3.037,-6.346c2.69,-5.617 5.291,-11.032 7.805,-16.254c5.293,-10.994 10.201,-21.127 14.754,-30.475c8.236,-16.908 15.309,-31.245 21.395,-43.449c51.643,25.084 96.612,47.261 136.73,67.284c58.298,29.095 106.352,53.64 149.757,75.94c49.181,25.267 92.391,47.652 137.768,70.507c48.227,24.291 98.9,49.115 161.789,78.496c45.906,21.447 98.32,45.324 161.042,73.195c25.45,11.309 52.597,23.276 81.695,36.005c21.084,9.224 44.656,20.496 70.232,33.383c46.469,23.414 99.552,52.158 156.348,83.627c10.674,5.914 21.478,11.924 32.395,18.014l10.245,5.72c28.289,15.804 57.279,32.097 86.642,48.582c11.076,6.218 22.204,12.464 33.368,18.721c33.308,18.668 66.93,37.439 100.398,55.892c33.616,18.534 67.076,36.748 99.905,54.216c37.713,20.065 74.594,39.145 109.923,56.594c23.852,11.78 46.997,22.816 69.212,32.91c-4.797,9.623 -9.802,19.61 -14.95,29.846c-6.312,12.551 -12.839,25.478 -19.462,38.57c-6.294,12.442 -12.674,25.033 -19.038,37.596c-7.855,15.503 -15.685,30.962 -23.3,46.039c-3.247,6.43 -6.455,12.79 -9.609,19.055c-6.657,13.224 -13.073,26.022 -19.106,38.147c-3.798,7.632 -7.444,14.997 -10.904,22.035c-19.98,-10.629 -43.393,-23.039 -69.766,-36.979c-31.364,-16.579 -66.914,-35.323 -105.85,-55.812l-27.745,-14.594c-27.684,-14.556 -56.866,-29.883 -87.29,-45.845c-31.171,-16.355 -63.646,-33.377 -97.15,-50.923l-24.023,-12.578c-22.286,-11.666 -44.986,-23.541 -68.023,-35.587Zm-1107.757,-571.02c-69.75,21.311 -127.597,59.551 -167.209,91.488c-105.255,-188.628 -253.421,-296.898 -484.393,-335.657c100.258,-113.17 185.38,-287.421 224.088,-419.931c161.503,192.822 356.97,260.371 484.418,255.541c13.199,95.011 30.963,151.445 48.273,190.869l1.347,0.654c-6.086,12.204 -13.16,26.54 -21.395,43.449c-4.553,9.348 -9.461,19.481 -14.754,30.475c-2.514,5.221 -5.114,10.636 -7.805,16.254c-1,2.087 -2.012,4.203 -3.037,6.346c-5.483,11.47 -10.688,22.277 -15.626,32.457c-3.031,6.248 -5.961,12.261 -8.795,18.046c-5.437,11.103 -10.515,21.369 -15.254,30.86c-7.426,14.873 -14.019,27.844 -19.858,39.15Zm2664.659,951.91l-2.779,5.756l-8.138,-5.811c3.552,0.043 7.163,0.064 10.917,0.055Zm-151.941,373.378l-2.037,5.22c2.094,0.863 4.23,1.735 6.409,2.614l-4.372,-7.834Zm-925.116,-501.951c-9.984,20.309 -18.418,37.889 -24.46,51.266c59.327,31.634 102.41,61.676 130.066,76.87c50.202,-110.365 131.195,-275.52 175.212,-364.845l-2.745,-1.771c-17.361,-11.196 -90.977,-48.625 -125.8,-66.732c-8.91,19.287 -21.466,44.96 -35.903,73.923c-4.797,9.623 -9.802,19.61 -14.95,29.846c-6.312,12.551 -12.839,25.478 -19.462,38.57c-6.294,12.442 -12.674,25.033 -19.038,37.596c-7.855,15.503 -15.685,30.962 -23.3,46.039c-3.247,6.43 -6.455,12.79 -9.609,19.055c-6.657,13.224 -13.073,26.022 -19.106,38.147c-3.798,7.632 -7.444,14.997 -10.904,22.035Zm-357.566,-565.356c105.731,-148.655 315.849,-233.328 423.338,-83.832c135.81,188.885 164.783,373.707 499.21,299.134c209.899,-46.805 752.569,-322.455 1036.669,202.038c122.095,225.407 133.285,443.432 42.535,684.688c-22.532,59.9 -51.348,121.233 -86.311,184.466c-8.919,16.13 -18.237,32.384 -27.953,48.769c-238.174,401.645 -562.162,396.977 -616.768,390.91c-141.613,-15.735 -332.868,-9.935 -536.479,-283.441c-119.259,-160.198 -123.844,-513.246 -365.198,-560.653c-61.946,-12.167 -122.95,-19.555 -181.91,-24.066c-100.187,-7.665 -194.475,-7.022 -277.47,-7.406c-179.437,-0.83 -306.078,-6.459 -325.378,-111.218c-16.322,-88.598 193.443,-84.672 256.478,-259.77c30.419,-84.497 37.96,-135.298 36.958,-166.58c-23.082,-12.068 -46.502,-24.307 -70.182,-36.674c-49.918,-26.07 -100.992,-52.714 -152.492,-79.545c-50.471,-26.295 -101.351,-52.772 -151.951,-79.066c-54.078,-28.102 -107.837,-55.996 -160.436,-83.241c-54.939,-28.456 -108.613,-56.204 -160.066,-82.74c-45.999,-23.723 -90.223,-46.477 -131.988,-67.902c-52.921,-27.148 -101.893,-52.162 -145.525,-74.31c-53.973,-27.397 -99.776,-50.409 -134.773,-67.648c-0.115,0.035 -0.23,0.07 -0.345,0.105c-69.75,21.311 -127.597,59.551 -167.209,91.488c-105.255,-188.628 -253.421,-296.898 -484.393,-335.657c100.258,-113.17 185.38,-287.421 224.088,-419.931c161.503,192.822 356.97,260.371 484.418,255.541c13.199,95.011 30.963,151.445 48.273,190.869c0.449,0.218 0.898,0.436 1.347,0.654c51.643,25.084 96.612,47.261 136.73,67.284c58.298,29.095 106.352,53.64 149.757,75.94c49.181,25.267 92.391,47.652 137.768,70.507c48.227,24.291 98.9,49.115 161.789,78.496c45.906,21.447 98.32,45.324 161.042,73.195c25.45,11.309 52.597,23.276 81.695,36.005c21.084,9.224 44.656,20.496 70.232,33.383c46.469,23.414 99.552,52.158 156.348,83.627c10.674,5.914 21.478,11.924 32.395,18.014c2.259,-4.909 4.638,-9.781 7.131,-14.609c8.336,-16.143 17.949,-31.809 28.627,-46.823Zm2001.752,1102.027c-22.532,59.9 -51.348,121.233 -86.311,184.466c-122.575,-50.571 -476.792,-150.159 -628.387,-211.352l-4.372,-7.834c27.963,-71.647 68.077,-174.232 106.186,-270.969c13.89,-35.258 29.801,-69.299 42.977,-96.653c184.565,131.483 497.87,335.205 569.907,402.343Zm-3231.788,-1360.008c-69.75,21.311 -127.597,59.551 -167.209,91.488c-105.255,-188.628 -253.421,-296.898 -484.393,-335.657c100.258,-113.17 185.38,-287.421 224.088,-419.931c161.503,192.822 356.97,260.371 484.418,255.541c13.199,95.011 30.963,151.445 48.273,190.869c0.449,0.218 0.898,0.436 1.347,0.654c-11.642,23.345 -26.899,54.496 -46.991,96.523c-25.429,53.191 -44.862,92.105 -59.533,120.513Zm2653.742,951.855c-17.727,-0.213 -33.999,-0.943 -59.444,-0.892c-29.35,62.53 -75.289,152.908 -81.338,164.809c-9.786,19.252 -26.752,60.494 -51.879,118.663c14.333,24.951 34.69,60.557 51.638,90.853c27.963,-71.647 68.077,-174.232 106.186,-270.969c13.89,-35.258 29.801,-69.299 42.977,-96.653l-8.138,-5.811Zm-49.498,-22.446c-2.996,6.635 -6.347,13.885 -9.946,21.554c-29.35,62.53 -75.289,152.908 -81.338,164.809c-9.786,19.252 -26.752,60.494 -51.879,118.663c-10.247,23.721 -21.851,50.257 -34.879,79.265c-19.074,-10.333 -41.146,-21.822 -44.524,-23.581c-23.822,-12.401 -36.072,-17.289 -48.564,-22.089c68.962,-198.754 87.932,-204.798 168.447,-388.582c34.078,15.34 76.525,37.117 102.685,49.961Zm-2499.067,-1147.099c396.16,192.378 400.433,214.109 830.126,402.081c66.592,29.131 157.999,78.699 258.975,135.023l10.245,5.72c38.959,21.766 79.249,44.457 120.011,67.303c131.138,73.499 267.158,148.596 379.438,199.611m960.687,359.863l-2.779,5.756c-13.175,27.353 -29.087,61.395 -42.977,96.653c-38.109,96.738 -78.223,199.322 -106.186,270.969l-2.037,5.22m721.107,29.5c-72.037,-67.137 -385.343,-270.859 -569.907,-402.343l-8.138,-5.811m491.735,592.619c-122.575,-50.571 -476.792,-150.159 -628.387,-211.352c-2.179,-0.879 -4.315,-1.751 -6.409,-2.614m153.979,-378.598c-3.755,0.009 -7.365,-0.012 -10.917,-0.055c-17.727,-0.213 -33.999,-0.943 -59.444,-0.892m-77.208,382.159l-4.372,-7.834c-16.947,-30.297 -37.304,-65.902 -51.638,-90.853m-2355.904,-1452.125c-17.31,-39.424 -35.074,-95.857 -48.273,-190.869m0,-0c-127.448,4.831 -322.915,-62.719 -484.418,-255.541m0,-0c-38.708,132.51 -123.83,306.761 -224.088,419.931m0,-0c230.972,38.759 379.138,147.029 484.393,335.657m167.554,-91.593c-69.904,21.29 -127.877,59.604 -167.554,91.593m273.733,-308.524c-11.642,23.345 -26.899,54.496 -46.991,96.523c-25.429,53.191 -44.862,92.105 -59.533,120.513" style="fill:none;stroke:#3f3645;stroke-width:25px;"/><path id="fline" d="M2298.862,2496.18c-28.884,59.992 -79.376,156.391 -116.924,227.221m7.001,-283.814c-8.731,16.289 -17.646,32.896 -21.248,40.25c-49.134,100.322 -57.281,121.37 -91.603,187.752m12.945,-282.217c-14.549,24.773 -35.451,61.602 -63.77,110.909c-18.233,31.746 -39.542,68.665 -64.209,110.869m-5.788,-296.391c-11.127,23.202 -19.942,41.698 -27.13,56.841c-26.446,55.715 -30.855,66.035 -47.274,98.379l-2.451,4.818c-18.346,35.98 -28.651,54.369 -38.53,72.854m-13.897,-305.206c-19.427,35.535 -56.245,103.037 -124.308,232.945m-32.04,-316.572c-15.616,32.009 -40.628,81.646 -67.876,134.964c-4.059,7.942 -8.167,15.966 -12.302,24.026c-13.421,26.163 -27.116,52.701 -40.274,78.038m-31.476,-306.415c-19.128,38.167 -54.809,106.227 -120.475,227.349m-40.567,-300.544c-8.505,13.778 -17.217,27.748 -23.352,38.163c-25.284,42.925 -28.298,49.244 -96.517,179.14m-41.919,-295.799c-22.146,37.901 -59.178,104.036 -118.147,213.06m-19.621,-283.567c-22.558,39.779 -56.824,101.33 -112.367,215.665m-37.39,-291.605c-18.723,34.03 -41.534,77.076 -71.973,140.582c-17.852,37.245 -27.299,57.982 -36.162,76.713m-192.284,-414.06c22.65,-9.06 69.582,43.237 18.479,69.9c-46.147,24.077 -87.31,-40.779 -18.479,-69.9Zm-111.478,222.955c64.002,14.491 47.604,72.778 25.308,85.165c-35.029,19.46 -101.121,-38.142 -25.308,-85.165Zm-159.684,-126.542c46.568,5.588 54.41,97.174 -18.077,70.1c-61.228,-22.868 -7.355,-93.576 18.077,-70.1Zm-180.775,-84.361c35.433,-0 44.883,72.785 -3.013,76.126c-41.14,2.87 -60.992,-64.77 3.013,-76.126Zm129.555,-198.852c54.459,20.422 15.916,86.095 -27.317,68.293c-28.494,-11.733 -44.879,-78.742 27.317,-68.293Zm162.697,120.516c34.404,11.468 13.822,92.879 -41.779,65.079c-24.2,-12.1 -30.911,-87.794 41.779,-65.079Zm2644.582,1794.188c32.291,-6.458 40.803,78.147 -13.809,78.147c-43.582,-0 -67.236,-86.46 13.809,-78.147Zm160.061,164.769c83.117,40.435 35.072,145.07 -36.092,135.581c-76.098,-10.146 -92.184,-132.284 36.092,-135.581Zm-362.043,-18.313c61.405,76.757 -33.231,170.252 -97.618,99.426c-50.197,-55.216 45.38,-174.939 97.618,-99.426Zm163.598,-233.718c-88.498,60.359 -361.725,-21.557 -396.876,-37.043c-296.361,-130.564 -378.497,-302.232 -404.006,-368.553m898.429,23.973c-148.133,-87.442 -464.109,-215.846 -634.876,-292.546" style="fill:none;stroke:#3f3645;stroke-width:16.67px;"/><path id="string" d="M3112.044,2933.082c-96.361,-47.224 -415.824,-204.36 -628.797,-308.986c-51.24,-25.172 -96.316,-47.305 -130.638,-64.136c-38.968,-19.11 -64.072,-31.385 -68.594,-33.516c-31.995,-15.072 -70.026,-33.024 -112.907,-53.333c-32.176,-15.238 -67.082,-31.803 -104.216,-49.472c-20.288,-9.653 -41.24,-19.636 -62.777,-29.912c-17.139,-8.178 -34.648,-16.542 -52.485,-25.074l-19.55,-9.355c-11.467,-5.49 -23.06,-11.045 -34.769,-16.66c-32.976,-15.813 -66.869,-32.104 -101.443,-48.768c-51.254,-24.703 -104.005,-50.225 -157.487,-76.228c-49.842,-24.233 -100.318,-48.884 -150.808,-73.677c-54.287,-26.658 -108.591,-53.481 -162.138,-80.128c-54.12,-26.932 -107.467,-53.683 -159.245,-79.902c-47.234,-23.918 -93.162,-47.393 -137.18,-70.156c-52.312,-27.053 -101.925,-53.103 -147.825,-77.699c-48.538,-26.011 -92.924,-50.396 -131.955,-72.626c-74.392,-42.369 -129.337,-76.906 -156.52,-99.935c-12.749,-10.801 -19.392,-19.07 -19.07,-24.428m2515.148,1341.796c-122.515,-61.395 -423.263,-213.086 -625.9,-314.988c-51.346,-25.821 -96.393,-48.445 -130.644,-65.593c-39.026,-19.538 -64.037,-31.967 -68.383,-33.916c-32.68,-14.655 -70.745,-31.84 -113.356,-51.269c-33.259,-15.165 -69.287,-31.696 -107.685,-49.459c-8.374,-3.874 -16.86,-7.806 -25.455,-11.795c-33.892,-15.731 -69.473,-32.35 -106.488,-49.77l-19.292,-9.091c-38.462,-18.148 -78.386,-37.123 -119.499,-56.833c-50.498,-24.209 -102.789,-49.526 -156.365,-75.778c-49.419,-24.215 -99.931,-49.225 -151.139,-74.895c-53.464,-26.801 -107.686,-54.322 -162.212,-82.407c-52.443,-27.012 -105.167,-54.546 -157.77,-82.466c-45.15,-23.964 -90.211,-48.212 -134.926,-72.656c-48.991,-26.781 -97.567,-53.799 -145.394,-80.938c-43.989,-24.962 -87.344,-50.026 -129.804,-75.105c-113.693,-67.152 -220.97,-134.406 -316.818,-200.055c-5.812,-3.981 -11.582,-7.955 -17.308,-11.924m2668.387,1441.081c-125.877,-64.198 -423.325,-216.534 -624.208,-319.224c-51.457,-26.305 -96.578,-49.352 -130.857,-66.825c-39.104,-19.934 -64.098,-32.614 -68.291,-34.604c-32.714,-15.525 -70.061,-33.336 -111.295,-53.137c-33.777,-16.22 -70.161,-33.777 -108.743,-52.507l-0.265,-0.129c-40.514,-19.669 -83.449,-40.632 -128.329,-62.702l-10.982,-5.403c-41.204,-20.285 -83.994,-41.477 -128.009,-63.434c-50.153,-25.019 -101.896,-51.033 -154.697,-77.83c-49.399,-25.071 -99.725,-50.827 -150.54,-77.099c-53.368,-27.591 -107.276,-55.749 -161.22,-84.276c-52.528,-27.778 -105.09,-55.906 -157.219,-84.2c-45.042,-24.447 -89.761,-49.018 -133.855,-73.593c-49.081,-27.355 -97.388,-54.716 -144.506,-81.92c-44.175,-25.504 -87.305,-50.871 -129.049,-75.964c-216.306,-130.028 -395.375,-252.727 -489.622,-349.352m2814.172,1601.658c-124.7,-63.085 -424.463,-214.146 -627.03,-316.42c-51.896,-26.202 -97.413,-49.202 -131.972,-66.7c-39.356,-19.927 -64.502,-32.719 -68.677,-34.979c-31.26,-16.928 -67.244,-36.386 -107.207,-57.948c-26.219,-14.146 -54.15,-29.199 -83.583,-45.037l-25.55,-13.743c-39.054,-20.998 -80.507,-43.246 -123.908,-66.488l-2.942,-1.575c-43.11,-23.084 -88.123,-47.137 -134.599,-71.91c-49.388,-26.325 -100.428,-53.461 -152.591,-81.108c-49.11,-26.029 -99.215,-52.51 -149.874,-79.192c-53.223,-28.032 -107.058,-56.287 -160.993,-84.471c-52.913,-27.65 -105.922,-55.234 -158.544,-82.475c-45.461,-23.534 -90.634,-46.812 -135.207,-69.658c-50.014,-25.634 -99.272,-50.723 -147.334,-75.015c-45.602,-23.049 -90.128,-45.381 -133.202,-66.783c-254.665,-126.532 -458.578,-220.531 -534.068,-237.728c-9.097,-2.072 -16.329,-3.03 -21.56,-2.794m2883.542,1491.328c-128.237,-68.079 -423.2,-224.523 -622.853,-330.462c-51.573,-27.365 -96.786,-51.361 -131.123,-69.593c-39.198,-20.813 -64.222,-34.115 -68.353,-36.345c-31.405,-16.951 -67.186,-36.242 -106.616,-57.466c-22.259,-11.981 -45.682,-24.579 -70.137,-37.719l-40.495,-21.748c-37.981,-20.388 -78.092,-41.89 -119.902,-64.264l-3.038,-1.626c-44.23,-23.668 -90.344,-48.303 -137.835,-73.622c-49.472,-26.375 -100.439,-53.491 -152.33,-81.028c-49.385,-26.208 -99.607,-52.798 -150.171,-79.492c-53.387,-28.185 -107.156,-56.487 -160.728,-84.581c-53.292,-27.947 -106.389,-55.689 -158.72,-82.905c-45.528,-23.678 -90.477,-46.958 -134.469,-69.63c-50.366,-25.956 -99.478,-51.114 -146.774,-75.158c-46.306,-23.541 -90.87,-46.013 -133.162,-67.121c-144.455,-72.096 -262.412,-128.272 -332.774,-156.699c-27.548,-11.13 -47.8,-18.006 -59.49,-19.919m2714.171,1447.978c-122.691,-65.116 -422.864,-223.937 -625.877,-331.507c-51.834,-27.465 -97.334,-51.589 -131.929,-69.96c-39.495,-20.972 -64.777,-34.446 -69.044,-36.83c-30.556,-17.074 -65.807,-36.734 -104.91,-58.482c-14.725,-8.189 -29.996,-16.675 -45.768,-25.43c-21.247,-11.793 -43.403,-24.076 -66.358,-36.782c-34.116,-18.883 -69.998,-38.702 -107.284,-59.242l-13.433,-7.398c-44.019,-24.235 -89.903,-49.423 -137.072,-75.222c-49.238,-26.931 -99.877,-54.527 -151.257,-82.399c-49.522,-26.864 -99.734,-53.984 -150.045,-81.011c-53.434,-28.704 -106.98,-57.303 -159.931,-85.379c-53.83,-28.542 -107.047,-56.543 -158.907,-83.564c-45.767,-23.846 -90.478,-46.929 -133.622,-68.946c-51.437,-26.249 -100.647,-50.984 -146.768,-73.693c-48.783,-24.02 -94.108,-45.774 -134.953,-64.656c-62.489,-28.888 -114.492,-51.053 -152.346,-64.329c-19.273,-6.759 -34.879,-11.214 -46.333,-13.078c-1.243,-0.202 -2.438,-0.374 -3.583,-0.515" style="fill:none;stroke:#3f3645;stroke-width:8.33px;"/></g></g><g id="hands"><g id="right-hand"><g id="color3" serif:id="color"><path id="base3" serif:id="base" d="M2334.103,2706.063c42.163,-41.933 109.476,-54.031 156.27,-34.317c9.669,4.073 18.461,9.504 25.975,16.311c11.332,10.266 18.001,19.962 21.032,29.069c13.764,41.352 -47.475,70.545 -87.68,85.669c32.15,19.313 74.117,17.001 108.888,-5.938c19.577,-12.915 35.702,-26.111 48.938,-38.767c23.707,-4.95 97.115,-34.672 -27.278,-102.792c-69.972,-38.318 -114.463,-123.245 -120.311,-177.755c14.723,-4.365 29.912,-2.967 33.967,-0.939c64.146,32.073 53.802,64.301 205.469,69.531c101.66,3.506 159.903,51.064 189.184,98.043c37.72,-18.49 90.907,13.685 99.878,67.191c21.555,128.56 54.112,112.182 136.719,212.109c12.319,14.902 36.329,57.42 10.547,83.203c-23.656,23.656 -66.77,-18.359 -89.883,-44.786c-6.894,6.268 -11.003,9.612 -24.179,17.833c-25.084,15.651 -50.619,30.568 -75.781,46.094c-168.914,104.224 -344.847,321.913 -388.32,214.761c-17.883,19.274 -34.112,28.018 -53.033,20.689c7.597,-27.06 10.955,-48.444 13.245,-54.365c52.626,-136.103 52.759,-137.701 111.884,-192.519c8.609,-7.982 82.325,-91.43 -108.536,-98.771c-178.268,-6.856 -202.9,-128.497 -186.994,-209.554Z" style="fill:#f2e9d3;"/><path id="shade1" serif:id="shade" d="M2504.504,3261.272c-4.531,-1.755 -9.216,-4.432 -14.116,-8.106c-51.083,-38.312 -17.686,-181.23 54.96,-280.479c-49.656,4.484 -126.54,5.361 -185.32,-40.95c-43.121,-33.974 -70.756,-70.803 -64.48,-142.08c3.079,-34.966 17.757,-62.909 38.555,-83.594c-15.906,81.057 8.726,202.697 186.994,209.554c190.861,7.341 117.145,90.789 108.536,98.771c-59.125,54.818 -59.258,56.416 -111.884,192.519c-2.29,5.921 -5.648,27.306 -13.245,54.365Zm103.022,-503.183c1.972,-1.885 3.879,-3.758 5.724,-5.617c-29.302,-72.61 -84.938,-52.773 -146.69,-143.447c-62.7,-92.066 -35.56,-122.904 -6.623,-131.483c5.848,54.51 50.339,139.437 120.311,177.755c124.392,68.12 50.985,97.842 27.278,102.792Z" style="fill:#ead2ad;"/></g><path id="line3" serif:id="line" d="M2557.537,3240.584c43.473,107.152 219.406,-110.538 388.32,-214.761c25.162,-15.525 50.697,-30.443 75.781,-46.094c13.177,-8.221 17.285,-11.565 24.179,-17.833c4.141,-3.765 9.288,-8.585 18.008,-16.152m-175.269,-301.566c37.72,-18.49 90.907,13.685 99.878,67.191c21.555,128.56 54.112,112.182 136.719,212.109c12.319,14.902 36.329,57.42 10.547,83.203c-23.656,23.656 -66.77,-18.359 -89.883,-44.786m-135.508,-228.261c6.718,-13.435 2.058,-51.254 -21.753,-89.457c-29.281,-46.979 -87.524,-94.537 -189.184,-98.043c-151.667,-5.23 -141.323,-37.458 -205.469,-69.531c-12.026,-6.013 -121.946,-6.488 -27.344,132.422c61.752,90.674 117.388,70.837 146.69,143.447m-67.902,220.214c-72.646,99.249 -106.042,242.167 -54.96,280.479c25.359,19.019 44.983,11.307 67.149,-12.582c44.642,-48.114 48.204,-124.111 181.071,-217.255m-288.908,-220.534c49.059,-18.455 129.438,-57.858 66.648,-114.738c-61.817,-55.999 -210.19,-18.899 -220.8,101.6c-6.276,71.277 21.359,108.106 64.48,142.08c58.78,46.312 135.664,45.435 185.32,40.95c15.926,-1.438 29.051,-3.248 37.88,-3.99m80.96,-288.64c-1.795,2.692 -22.917,62.253 -105.6,116.8c-48.729,32.148 -111.591,23.783 -141.76,-27.84" style="fill:none;stroke:#3f3645;stroke-width:25px;"/></g><g id="left-hand"><g id="color4" serif:id="color"><path id="base4" serif:id="base" d="M986.69,1868.501c8.187,-3.049 16.039,-4.791 23.138,-5.094c20.104,-0.859 111.024,20.904 100.152,89.373c37.554,1.6 63.561,29.035 66.088,32.067c33.048,39.657 29.978,129.958 -42.793,121.416c7.259,34.039 15.412,75.647 12.03,119.282c11.104,7.075 25.416,12.534 36.833,16.206c-3.409,-36.15 -2.979,-51.769 16.65,-50.984c30.134,1.205 51.04,53.367 51.04,125.44c0,273.931 -87.991,361.402 -136.96,330.24c-19.063,-12.131 -18.135,-29.159 -10.16,-45.371c-65.923,-4.72 -229.64,-29.953 -317.755,-175.744c-149.641,-247.588 20.332,-522.18 68.75,-620.312c51.034,-103.435 40.375,-159.002 50.625,-200c19.794,-79.175 155.094,-8.749 82.362,263.482Z" style="fill:#f2e9d3;"/><path id="shade2" serif:id="shade" d="M924.366,1920.641c22.453,-69.373 59.519,-199.503 56.12,-265.558c-1.017,-19.752 -4.163,-40.255 -7.856,-60.282c31.558,36.948 53.692,125.367 14.061,273.701c8.187,-3.049 16.039,-4.791 23.138,-5.094c4.013,-0.172 10.849,0.559 19.134,2.382c-51.383,10.388 -86.657,32.305 -104.596,54.852Zm277.714,270.465c28.354,4.736 47.748,55.682 47.748,125.101c0,273.931 -87.991,361.402 -136.96,330.24c-19.063,-12.131 -18.135,-29.159 -10.16,-45.371c-29.735,-2.129 -79.366,-8.432 -132.981,-28.088c63.232,-18.977 131.838,-78.492 181.34,-226.144c25.354,-75.625 40.766,-124.251 51.012,-155.737Z" style="fill:#ead2ad;"/></g><path id="line4" serif:id="line" d="M1102.708,2601.076c-7.975,16.212 -8.903,33.24 10.16,45.371c48.969,31.162 136.96,-56.308 136.96,-330.24c0,-72.073 -20.906,-124.235 -51.04,-125.44c-19.629,-0.785 -20.059,14.834 -16.65,50.984m-36.833,-16.206c11.104,7.075 25.416,12.534 36.833,16.206c9.374,3.015 16.797,4.826 18.89,5.336m-67.753,-140.824c72.771,8.542 75.84,-81.759 42.793,-121.416c-2.527,-3.033 -28.534,-30.467 -66.088,-32.067c-33.685,-1.435 -76.659,17.916 -120.312,94.307m120.312,-94.307c10.872,-68.469 -80.048,-90.232 -100.152,-89.373c-7.099,0.303 -14.951,2.045 -23.138,5.094c-39.597,14.749 -87.009,60.096 -94.782,121.306m94.782,-121.306c72.732,-272.231 -62.568,-342.656 -82.362,-263.482c-10.25,40.998 0.409,96.564 -50.625,200c-48.417,98.132 -218.391,372.724 -68.75,620.312c88.115,145.791 251.832,171.023 317.755,175.744c11.578,0.829 20.139,1.025 24.745,1.131m-72.025,-228.4c14.266,1.189 66.089,-47.791 81.92,-103.2c24.914,-87.199 -11.058,-173.854 -13.6,-217.92" style="fill:none;stroke:#3f3645;stroke-width:25px;"/></g></g></g></svg>