<?xml version="1.0" encoding="UTF-8" standalone="no"?><!DOCTYPE svg PUBLIC "-//W3C//DTD SVG 1.1//EN" "http://www.w3.org/Graphics/SVG/1.1/DTD/svg11.dtd"><svg width="100%" height="100%" viewBox="0 0 3928 4596" version="1.1" xmlns="http://www.w3.org/2000/svg" xmlns:xlink="http://www.w3.org/1999/xlink" xml:space="preserve" xmlns:serif="http://www.serif.com/" style="fill-rule:evenodd;clip-rule:evenodd;stroke-linecap:round;stroke-linejoin:round;stroke-miterlimit:1.5;"><g id="ringo"><g id="shadow"><path id="shadow1" serif:id="shadow" d="M1234.857,4299.151c123.456,-44.092 1152.209,-16.227 1189.371,-12.187c0.895,0.097 316.648,24.845 62.187,84.375c-121.962,28.532 -767.886,14.12 -773.435,13.75c-440.105,-29.34 -488.838,-8.621 -478.123,-85.937Z" style="fill:#505c62;"/></g><g id="head"><g id="eyes"><g id="color"><path id="base" d="M1481.942,1533.205c160.457,-55.745 210.03,124.022 121.8,185.4c-119.28,82.977 -255.724,-84.957 -121.8,-185.4Zm674.999,-9c15.89,-1.204 90.979,-27.841 131.8,53.8c15.981,31.962 12.769,115.853 -55.4,136.6c-127.951,38.942 -174.385,-141.407 -76.4,-190.4Z" style="fill:#3f3645;"/><path id="hlight" d="M1502.998,1564.264c-56.419,9.603 -46.232,61.325 -20.089,57.142c23.721,-3.795 61.866,-49.518 20.089,-57.142Zm659.543,-14.841c-23.399,5.4 -43.067,65.102 -13.393,62.499c14.094,-1.236 87.97,-60.043 13.393,-62.499Z" style="fill:#e8d2ea;"/></g><path id="line" d="M1481.942,1533.205c-133.924,100.443 2.52,268.377 121.8,185.4c88.23,-61.377 38.657,-241.145 -121.8,-185.4Zm674.999,-9c-97.985,48.993 -51.551,229.341 76.4,190.4c68.169,-20.747 71.381,-104.638 55.4,-136.6c-40.821,-81.641 -115.91,-55.003 -131.8,-53.8Z" style="fill:none;stroke:#3f3645;stroke-width:25px;"/></g><g id="hair"><path id="base1" serif:id="base" d="M1980.281,1821.729c3.396,-6.977 179.354,62.301 228.588,97.144c80.201,56.758 99.033,70.252 81.227,353.656c-88.486,-68.602 -64.3,-139.134 -89.99,-230.474c-19.901,-70.761 -58.966,-75.978 -214.555,-88.785c-11.452,-65.59 -6.753,-65.025 -5.27,-131.541Zm-142.711,3.756c10.39,47.403 31.531,136.452 -31.046,128.69c-157.957,-19.592 -164.332,17.774 -283.697,261.81c-61.626,-128.746 -12.149,-440.566 194.565,-364.212c50.374,18.607 92.165,-52.298 120.178,-26.289Zm-814.479,-1269.227c-4.011,-128.045 61.33,-155.74 177.204,-201.721c99.399,-39.444 364.166,-158.83 551.519,-188.482c390.449,-61.796 698.345,113.251 774.192,175.964c137.071,113.332 264.352,217.368 250.983,379.26c206.242,230.95 186.079,587.877 127.037,779.646c-161.166,100.465 -162.287,152.248 -166.891,164.385c-39.992,105.433 -20.273,216.305 -132.431,279.629c49.83,14.307 50.116,11.166 101.329,3.022c-18.39,35.222 -15.829,39.161 -87.181,81.118c36.121,0.648 38.056,9.53 115.301,-22.085c-29.953,43.648 -49.524,80.859 -128.213,96.966c-24.105,4.934 -43.757,6.412 -59.632,5.957c9.898,-17.308 17.352,-40.111 17.821,-71.304c2.304,-153.218 -2.212,-156.831 68.852,-292.433c103.21,-196.941 -61.45,-373.55 -97.218,-594.048c-31.932,56.555 -76.074,101.598 -115.803,133.402c4.55,-67.36 5.531,-172.397 -14.065,-304.486c-4.815,-32.456 -16.63,-76.917 -28.771,-117.61c-25.291,55.051 -59.674,112.881 -205.075,253.061c-98.037,94.516 -280.005,139.139 -378.344,76.005c20.325,-6.674 44.678,-16.168 71.318,-29.075c-41.361,-18.096 -94.612,-42.804 -285.05,-21.902c-82.636,9.07 -145.342,71.318 -221.239,72.021c1.74,-140.533 34.243,-203.404 50.328,-246.251c-82.236,117.35 -116.402,215.28 -129.759,280.839c-18.505,-18.335 -37.363,-38.534 -55.685,-60.447c-98.945,118.154 -166.373,216.498 -160.01,360.121c5.787,130.621 160.764,457.128 197.578,515.545c-91.457,63.767 -84.526,77.153 -193.13,104.908c33.816,-52.003 32.869,-50.105 74.127,-97.436c-187.875,-84.93 -180.919,-117.971 -218.667,-170.999c388.325,211.732 -98.803,-218.129 -141.576,-652.757c-20.502,-208.328 70.555,-566.863 241.149,-690.81Z" style="fill:#635463;"/><path id="shade" d="M2886.795,1511.87c-144.022,93.295 -145.226,141.75 -149.659,153.438c-39.992,105.433 -20.273,216.305 -132.431,279.629c49.83,14.307 50.116,11.166 101.329,3.022c-18.39,35.222 -15.829,39.161 -87.181,81.118c36.121,0.648 38.056,9.53 115.301,-22.085c-29.953,43.648 -49.524,80.859 -128.213,96.966c-24.105,4.934 -43.757,6.412 -59.632,5.957c9.898,-17.308 17.352,-40.111 17.821,-71.304c2.304,-153.218 -2.212,-156.831 68.852,-292.433c103.21,-196.941 -61.45,-373.55 -97.218,-594.048c-31.932,56.555 -76.074,101.598 -115.803,133.402c4.55,-67.36 5.531,-172.397 -14.065,-304.486c-4.815,-32.456 -16.63,-76.917 -28.771,-117.61c-25.291,55.051 -59.674,112.881 -205.075,253.061c-98.037,94.516 -280.005,139.139 -378.344,76.005c20.325,-6.674 44.678,-16.168 71.318,-29.075c-41.361,-18.096 -94.612,-42.804 -285.05,-21.902c-82.636,9.07 -145.342,71.318 -221.239,72.021c1.74,-140.533 34.243,-203.404 50.328,-246.251c-82.236,117.35 -116.402,215.28 -129.759,280.839c-18.505,-18.335 -37.363,-38.534 -55.685,-60.447c-98.945,118.154 -166.373,216.498 -160.01,360.121c5.787,130.621 160.764,457.128 197.578,515.545c-91.457,63.767 -84.526,77.153 -193.13,104.908c33.816,-52.003 32.869,-50.105 74.127,-97.436c-187.875,-84.93 -180.919,-117.971 -218.667,-170.999c324.085,176.705 38.409,-93.465 -89.842,-440.333c86.761,-68.915 183.476,-242.309 338.858,-429.956c134.026,-161.856 121.308,-173.134 281.586,-310.215c40.703,-34.812 125.596,-56.49 109.814,-17.519c-90.855,224.357 59.805,252.163 297.731,205.101c341.815,-67.612 250.085,-131.885 637.187,-270.477c115.691,-41.42 -69.664,209.931 120.07,260.222c86.017,22.8 -46.261,461.87 83.322,387.128c15.07,-8.692 29.33,-18.74 44.399,-27.431c70.843,78.366 116.214,166.291 140.15,255.525Zm-906.513,309.859c3.396,-6.977 179.354,62.301 228.588,97.144c80.201,56.758 99.033,70.252 81.227,353.656c-88.486,-68.602 -64.3,-139.134 -89.99,-230.474c-19.901,-70.761 -58.966,-75.978 -214.555,-88.785c-11.452,-65.59 -6.753,-65.025 -5.27,-131.541Zm-142.711,3.756c10.39,47.403 31.531,136.452 -31.046,128.69c-157.957,-19.592 -164.332,17.774 -283.697,261.81c-61.626,-128.746 -12.149,-440.566 194.565,-364.212c50.374,18.607 92.165,-52.298 120.178,-26.289Z" style="fill:#554659;"/><path id="hlight1" serif:id="hlight" d="M1058.466,853.902c-3.217,-68.572 167.547,-427.235 409.42,-515.658c-32.251,204.908 -250.065,473.329 -409.42,515.658Zm623.391,-509.208c-92.168,51.992 -193.848,383.176 37.856,248.946c76.393,-44.256 359.666,-181.956 345.643,-278.367c-12.665,-87.073 -353.543,20.011 -383.499,29.421Zm271.576,254.604c19.614,26.97 185.931,-219.674 341.533,-141.644c-24.158,20.891 -211.5,182.904 -341.533,141.644Z" style="fill:#947f8c;"/><path id="line1" serif:id="line" d="M1223.618,1187.685c18.322,21.914 37.181,42.112 55.685,60.447m0,-0c13.357,-65.559 47.523,-163.489 129.759,-280.839c-16.086,42.846 -48.588,105.718 -50.328,246.251m-0,0c75.897,-0.702 138.603,-62.951 221.239,-72.021c190.438,-20.902 243.69,3.806 285.05,21.902m-71.318,29.075c20.325,-6.674 44.678,-16.168 71.318,-29.075c47.125,-22.832 101.404,-56.346 153.198,-103.823m-224.516,132.899c98.339,63.133 280.307,18.511 378.344,-76.005c145.401,-140.18 179.784,-198.009 205.075,-253.061c9.935,-21.626 18.467,-42.823 31.775,-68.415m-31.775,68.415c12.141,40.693 23.956,85.154 28.771,117.61c19.596,132.089 18.615,237.126 14.065,304.486m0,-0c39.729,-31.804 83.871,-76.847 115.803,-133.402c19.334,-34.242 34.192,-72.704 40.885,-115.002m-40.885,115.002c35.768,220.497 200.428,397.106 97.218,594.048c-71.064,135.601 -66.548,139.215 -68.852,292.433c-0.469,31.193 -7.923,53.996 -17.821,71.304m-0,-0c15.876,0.455 35.528,-1.023 59.632,-5.957c78.69,-16.106 98.26,-53.317 128.213,-96.966c-77.245,31.616 -79.181,22.734 -115.301,22.085c71.351,-41.957 68.791,-45.896 87.181,-81.118c-51.213,8.145 -51.499,11.285 -101.329,-3.022c112.158,-63.323 92.439,-174.196 132.431,-279.629c4.604,-12.137 5.725,-63.919 166.891,-164.385m-175.904,-828.103c17.545,15.405 33.809,31.596 48.867,48.458c206.242,230.95 186.079,587.877 127.037,779.646m-127.037,-779.646c13.37,-161.891 -113.911,-265.927 -250.983,-379.26c-75.848,-62.712 -383.744,-237.76 -774.192,-175.964c-187.353,29.652 -452.121,149.038 -551.519,188.482c-115.874,45.982 -181.215,73.676 -177.204,201.721m106.533,-42.697c-38.278,3.828 -73.864,18.961 -106.533,42.697c-170.594,123.947 -261.651,482.481 -241.149,690.81c42.773,434.628 529.9,864.489 141.576,652.757c37.748,53.027 30.792,86.069 218.667,170.999c-41.258,47.33 -40.311,45.433 -74.127,97.436c108.604,-27.755 101.673,-41.141 193.13,-104.908c-36.815,-58.418 -191.791,-384.924 -197.578,-515.545c-6.363,-143.623 61.064,-241.966 160.01,-360.121m613.952,637.8c10.39,47.403 31.531,136.452 -31.046,128.69c-157.957,-19.592 -164.332,17.774 -283.697,261.81c-61.626,-128.746 -12.149,-440.566 194.565,-364.212c50.374,18.607 92.165,-52.298 120.178,-26.289Zm142.711,-3.756c-1.482,66.516 -6.181,65.951 5.27,131.541c155.589,12.807 194.653,18.024 214.555,88.785c25.689,91.34 1.504,161.873 89.99,230.474c17.806,-283.404 -1.026,-296.899 -81.227,-353.656c-49.234,-34.843 -225.192,-104.121 -228.588,-97.144Z" style="fill:none;stroke:#3f3645;stroke-width:25px;"/></g></g><g id="hands"><g id="right-hand"><path id="stick" d="M937.981,0c91.565,18.89 4.258,127.91 -4.303,134.965c-201.649,166.174 -369.89,824.817 -539.078,1031.603c-61.251,74.862 -112.649,-16.557 -30.123,-160.785c229.94,-401.857 203.943,-415.565 449.884,-808.226c44.526,-71.089 6.797,-174.193 123.62,-197.558Z" style="fill:#d54c00;"/><path id="color1" serif:id="color" d="M434.987,1227.305c-120.507,192.834 -323.343,96.4 -400.005,-37.973c-45.576,-79.885 -43.537,-353.893 217.544,-350.892c37.708,-74.705 71.001,-184.612 99.406,-207.42c60.821,-48.836 144.551,-44.141 222.083,-14.517c86.564,33.075 165.402,97.226 196.004,152.643c38.097,68.992 54.568,187.92 -12.789,228.31c10.457,53.438 -2.98,117.353 -23.574,149.032c-9.255,14.236 -96.323,82.815 -168.298,6.52c-10.663,17.333 -24.23,35.499 -41.086,54.479c-33.387,37.592 -73.006,39.647 -89.285,19.817Zm-94.642,-172.09c-45.92,114.338 0.353,177.235 54.255,111.354c14.372,-17.566 28.737,-38.392 43.116,-61.899c-6.049,-33.641 -29.803,-60.881 -97.371,-49.454Z" style="fill:#f2e9d3;"/><path id="shade1" serif:id="shade" d="M783.782,798.657c27.216,69.397 31.949,163.721 -26.553,198.8c10.457,53.438 -2.98,117.353 -23.574,149.032c-9.255,14.236 -96.323,82.815 -168.298,6.52c-10.663,17.333 -24.23,35.499 -41.086,54.479c-33.387,37.592 -73.006,39.647 -89.285,19.817c-120.507,192.834 -323.343,96.4 -400.005,-37.973c-3.11,-5.451 -5.998,-11.806 -8.598,-18.916c59.015,20.782 141.605,53.856 242.096,42.371c28.289,-3.233 55.948,-9.934 82.94,-19.524c9.234,-3.281 18.391,-6.899 27.468,-10.833c163.559,-70.882 301.335,-244.015 404.894,-383.775Z" style="fill:#ead2ad;"/><path id="line2" serif:id="line" d="M172.276,905.217c28.579,16.466 55.375,-17.496 80.249,-66.777c37.708,-74.705 71.001,-184.612 99.406,-207.42c128.727,-103.362 360.077,33.073 418.087,138.127c38.097,68.992 54.568,187.92 -12.789,228.31c-19.858,11.908 -47.002,16.989 -83.026,11.952m-198.009,-236.444c152.883,20.216 214.107,151.131 198.009,236.444c-3.247,17.207 -9.639,32.559 -19.06,44.773c-13.828,17.929 -34.18,29.098 -60.684,29.45m-204.718,-177.404c91.492,-25.79 326.647,84.942 134.529,301.261c-46.232,52.056 -104.414,35.968 -96.026,-12.012c3.628,-20.754 55.078,-170.833 -98.074,-138.316m427.058,-59.703c10.457,53.438 -2.98,117.353 -23.574,149.032c-9.255,14.236 -96.323,82.815 -168.298,6.52m89.786,-98.828c4.957,4.513 10.251,10.696 19.87,19.626m-240.028,153.498c-120.507,192.834 -323.343,96.4 -400.005,-37.973c-45.576,-79.885 -43.537,-353.893 217.544,-350.892" style="fill:none;stroke:#3f3645;stroke-width:25px;"/></g><g id="left-hand"><path id="stick1" serif:id="stick" d="M3226.521,557.465c81.67,3.529 45.285,88.581 61.028,132.618c9.038,25.283 69.152,193.44 97.41,321.178c143.603,649.163 267.846,786.983 181.518,817.615c-47.16,16.734 -105.139,12.536 -211.25,-588.761c-42.826,-242.68 -61.417,-237.842 -101.322,-480.789c-16.196,-98.607 -155.679,-158.332 -27.384,-201.861Z" style="fill:#d54c00;"/><path id="color2" serif:id="color" d="M3203.599,1548.216c-55.583,-55.487 -10.825,-166.896 42.833,-224.62c37.358,-40.188 111.463,-77.973 190.451,-94.588c93.767,-19.724 194.415,-9.614 248.634,61.727c22.042,29.003 27.753,143.7 46.265,225.309c254.049,60.26 189.728,326.619 126.177,393.103c-106.897,111.831 -327.04,156.32 -397.307,-59.942c-20.594,15.302 -58.538,3.721 -81.837,-40.832c-11.763,-22.494 -20.531,-43.403 -26.684,-62.801c-88.296,56.612 -156.184,-30.996 -161.719,-47.048c-12.317,-35.72 -9.89,-100.988 13.187,-150.308Zm275.556,209.404c35.489,82.984 62.861,79.935 87.322,71.256c37.036,-13.142 35.315,-46.012 9.937,-130.522c-66.729,-21.616 -89.471,18.913 -97.259,59.267Z" style="fill:#f2e9d3;"/><path id="shade2" serif:id="shade" d="M3590.535,1809.332c45.104,-9.102 85.966,-17.012 105.936,-32.771c52.319,-41.287 60.157,-143.597 47.32,-257.452c239.972,65.709 176.697,324.623 114.168,390.038c-106.897,111.831 -327.04,156.32 -397.307,-59.942c-2.88,2.14 -6.1,3.755 -9.572,4.826c20.342,-12.852 45.298,-22.017 71.596,-29.271c16.054,11.951 30.366,8.883 43.801,4.115c11.776,-4.178 19.633,-10.351 24.058,-19.544Z" style="fill:#ead2ad;"/><path id="line3" serif:id="line" d="M3793.489,1600.254c-31.714,9.061 -49.496,-30.375 -61.707,-84.21c-18.511,-81.609 -24.222,-196.306 -46.265,-225.309c-99.892,-131.437 -357.38,-55.034 -439.085,32.861c-53.659,57.724 -98.416,169.133 -42.833,224.62c16.387,16.359 41.495,27.857 77.667,31.686m249.336,-181.508c-153.232,-17.377 -244.313,94.835 -249.336,181.508c-1.013,17.481 1.475,33.924 7.66,48.055c9.079,20.742 26.123,36.503 51.755,43.258m241.56,-122.599c-82.533,-47.162 -337.494,3.381 -203.425,259.758c32.263,61.695 92.609,60.164 96.079,11.58c1.501,-21.015 -12.107,-179.083 128.627,-110.475m-399.923,-161.261c-23.077,49.32 -25.504,114.587 -13.187,150.308c5.535,16.052 73.423,103.661 161.719,47.048m-63.206,-117.616c-5.902,3.18 -12.534,7.898 -24.029,14.235m195.755,207.015c70.267,216.262 290.41,171.772 397.307,59.942c63.551,-66.484 127.872,-332.843 -126.177,-393.103" style="fill:none;stroke:#3f3645;stroke-width:25px;"/></g></g><g id="instrument"><g id="symbals"><g id="color3" serif:id="color"><path id="base2" serif:id="base" d="M313.457,1545.631c349.761,-8.042 728.266,62.392 1149.295,367.214c259.433,187.828 -570.022,113.216 -907.87,-32.709c-35.818,-15.471 -544.695,-301.861 -241.425,-334.505Z" style="fill:#eac171;stroke:#e8b85c;stroke-width:4.17px;stroke-linecap:butt;stroke-miterlimit:2;"/><path id="hlight2" serif:id="hlight" d="M225.729,1577.703c12.564,-15.585 40.152,-26.95 87.728,-32.071c349.761,-8.042 728.266,62.392 1149.295,367.214c28.531,20.657 43.893,38.139 48.187,52.701c-38.655,-13.24 -72.962,-29.123 -79.939,-33.293c-148.095,-88.515 -149.547,-85.771 -161.744,-94.477c-240.975,-172.014 -258.101,-137.437 -544.404,-212.596c-200.39,-52.605 -266.048,-35.678 -499.123,-47.478Z" style="fill:#eee7ba;"/><path id="shade3" serif:id="shade" d="M1392.825,2022.616c-204.807,14.991 -621.894,-49.163 -837.943,-142.48c-22.423,-9.685 -230.231,-125.54 -308.132,-218.851c243.751,9.057 677.204,57.64 1021.429,275.372c47.591,30.103 88.954,58.734 124.646,85.958Z" style="fill:#e7a64c;"/></g><g id="line4" serif:id="line"><path id="stand" d="M718.122,4013.706l1.951,1.301c85.53,57.006 207.586,133.991 223.088,143.768c6.792,4.284 13.379,8.492 19.773,12.625m-452.477,-1345.199c-131.715,13.784 -103.924,136.041 -27.514,143.532c116.917,11.462 107.617,-132.782 27.514,-143.532Zm318.778,-983.202c-81.33,335.18 -126.089,446.072 -294.732,991.358m-166.346,-15.464c3.777,-5.665 43.482,21.339 67.623,38.533m79.742,111.13c133.225,550.502 158.802,796.631 203.982,1043.353c0.189,1.033 0.379,2.065 0.568,3.098c15.428,83.947 33.187,168.11 58.289,264.501c14.29,54.874 11.73,54.271 21.137,109.269c-10.199,-54.917 0.817,4.776 0,0m-79.995,-376.868c-0.461,0.598 -0.922,1.197 -1.383,1.797c-19.517,25.371 -39.755,52.338 -61.925,76.642c-94.09,103.151 -81.55,70.417 -245.227,298.704" style="fill:none;stroke:#3f3645;stroke-width:50px;"/><path id="head1" serif:id="head" d="M313.457,1545.631c349.761,-8.042 728.266,62.392 1149.295,367.214c259.433,187.828 -570.022,113.216 -907.87,-32.709c-35.818,-15.471 -544.695,-301.861 -241.425,-334.505Z" style="fill:none;stroke:#3f3645;stroke-width:25px;"/></g></g><g id="drum"><g id="color4" serif:id="color"><path id="color41" serif:id="color4" d="M1345.127,2720.65c4.219,6.151 8.761,12.84 13.652,20.119c135.411,-69.153 265.465,-101.454 348.901,-99.034c-1.284,-20.407 -2.492,-42.296 -3.476,-61.109c32.833,-2.438 67.444,-5.979 103.923,-5.966c1.182,26.243 1.855,39.277 3.625,68.677c70.857,0.866 130.237,15.325 260.45,55.673c45.421,14.074 87.652,30.962 126.899,50.209c10.888,-15.591 23.161,-32.579 33.646,-47.184c28.909,12.332 57.626,25.375 98.018,52.478c-7.496,12.145 -18.186,28.891 -33.66,51.491c74.49,50.461 135.618,110.256 185.543,174.65c22.357,-9.348 37.982,-16.038 49.15,-20.877c14.716,18.992 35.443,41.805 56.568,66.693c-17.105,10.389 -36.126,21.919 -52.124,31.611c12.338,20.004 23.76,40.251 34.322,60.616c11.826,22.801 22.576,45.751 32.329,68.674c50.426,118.526 74.193,236.345 82.324,329.3c22.416,-0.349 53.538,-0.298 76.631,0.062c1.946,29.093 4.125,66.252 4.859,100.671c-28.438,-0.249 -51.161,-0.138 -78.748,2.42c-7.548,161.624 -48.065,300.368 -111.356,417.337c17.745,15.056 36.576,25.533 60.345,39.253c-21.673,36.648 -30.686,53.858 -53.092,94.731c-23.107,-15.384 -37.382,-25.534 -62.161,-45.583c-37.418,52.892 -79.881,100.385 -126.103,142.619c-58.695,53.63 -123.453,98.779 -191.643,135.731c14.715,28.158 21.941,43.344 32.499,64.703c-42.884,24.785 -55.681,32.133 -87.5,51.796c-3.264,-5.866 -6.857,-12.193 -11.269,-19.712c-12.254,-20.883 -22.39,-37.445 -30.661,-50.592c-92.739,38.509 -189.271,63.187 -283.686,74.673c-0.61,13.939 -1.422,32.663 -2.524,57.822c-39.623,-2.01 -56.042,-1.259 -97.145,-0.298c-0.671,-16.618 -1.095,-30.889 -1.501,-50.212c-116.613,2.586 -226.415,-15.598 -317.42,-53.253c-5.627,10.925 -12.799,24.594 -22.935,42.577c-32.895,-12.749 -70.531,-25.878 -97.516,-35.255c3.973,-7.233 8.72,-15.663 14.39,-25.45c6.436,-11.11 11.86,-20.526 16.448,-28.526c-80.193,-48.618 -160.573,-114.686 -216.917,-169.358c-15.922,-16.001 -30.934,-32.118 -45.091,-48.283c-4.445,3.347 -8.632,6.521 -12.605,9.547c-5.92,4.509 -11.368,8.691 -16.498,12.636c-16.109,12.385 -29.086,22.423 -43.702,32.84c-15.239,-20.711 -36.533,-50.418 -52.447,-75.691c8.222,-5.468 19.405,-12.735 35.065,-22.475c10.318,-6.417 22.58,-13.908 37.219,-22.666c-159.089,-215.526 -178.478,-422.468 -182.065,-454.131c-2.632,-23.236 -4.46,-46.067 -5.525,-68.494c-18.336,0.621 -37.853,1.319 -55.72,1.993c-1.302,-34.573 -1.018,-52.099 -1.202,-89.615c20.727,-1.274 33.946,-2.781 56.798,-3.503c8.281,-180.213 67.19,-331.764 152.483,-455.904c-28.599,-15.111 -41.192,-22.141 -56.305,-31.646c12.166,-24.245 31.542,-53.71 57.523,-77.923c15.501,12.405 33.433,26.938 50.002,41.875c34.529,-41.607 71.97,-79.581 111.138,-113.983c23.197,-20.374 47,-39.495 71.162,-57.376c21.049,-15.577 42.37,-30.212 63.802,-43.915c-4.286,-7.542 -8.238,-14.373 -11.877,-20.562c-10.942,-18.611 -19.055,-31.428 -24.883,-40.357c48.665,-41.847 67.925,-57.16 82.418,-66.442c8.292,10.822 20.104,26.938 37.225,51.9Zm413.846,-4.353c-800.213,15.893 -1063.182,867.45 -720.826,1358.657c204.293,293.116 367.797,338.596 632.556,376.254c8.246,1.173 339.657,-2.393 488.599,-95.887c359.061,-225.39 588.973,-639.823 410.392,-1070.923c-32.339,-78.066 -212.044,-497.012 -612.955,-542.83c-9.922,-1.134 17.798,-10.817 -97.316,-17.196c-16.547,-0.917 -97.527,-5.67 -100.451,-8.074Zm-1233.731,-223.497c-135.071,-45.238 19.805,-142.288 192.147,-221.822c134.957,-62.282 280.625,-113.823 306.157,-121.332c262.757,-77.281 424.93,-47.442 353.063,56.05c32.022,76.843 119.755,303.06 127.669,353.704c-78.968,-19.512 -225.494,-24.507 -465.802,77.21c-94.903,40.171 -288.269,140.051 -358.23,247.709c-26.869,-33.609 -44.781,-98.229 -90.792,-224.758c-16.965,-46.654 -37.75,-101.725 -64.212,-166.761Zm1981.752,-179.71c-34.869,-29.378 -83.341,-108.498 106.023,-127.598c129.137,-13.025 510.273,1.381 760.767,239.832c59.039,56.201 55.145,103.677 -1.96,107.117c-71.25,229.248 -80.801,336.118 -101.686,386.321c-205.223,-134.568 -627.952,-277.431 -842.391,-245.354c10.113,-86.22 57.305,-275.036 79.247,-360.318Z" style="fill:#524863;"/><path id="color31" serif:id="color3" d="M534.766,2516.381c235.631,-170.892 581.851,-305.735 844.161,-305.1m-812.647,385.875c134.274,-110.122 509.962,-333.94 849.033,-294.606m-812.826,393.24c116.105,-119.716 483.112,-367.913 834.957,-335.537m-809.32,408.188c67.565,-68.643 192.938,-170.899 378.531,-247.412c235.497,-97.086 380.438,-100.071 454.573,-96.704m976.12,188.914c128.571,0.701 383.292,17.186 659.679,155.203c61.134,30.528 123.328,67.002 185.451,110.566m-827.433,-351.235c214.77,4.296 498.954,23.387 842.393,285.796m-822.366,-372.257c92.391,-8.562 261.359,-6.721 489.937,75.519c129.016,46.418 261.389,120.52 359.651,181.712m-833.768,-321.877c62.231,-3.751 168.84,-8.932 256.028,3.132c282.913,39.145 490.461,137.093 608.023,208.507m-853.1,-279.84c2.106,-0.318 4.305,-0.646 6.596,-0.98c70.918,-10.334 231.116,-26.616 509.86,56.191c13.528,4.019 27.281,8.45 41.181,13.237c107.969,37.188 224.814,95.9 314.002,150.207c2.403,1.463 4.786,2.923 7.148,4.38m-2731.277,294.19c138.398,-174.411 556.974,-367.815 834.358,-337.443" style="fill:none;stroke:#ead2ad;stroke-width:16.67px;"/><path id="color21" serif:id="color2" d="M947.736,4322.071c17.741,23.881 49.426,54.908 103.228,66.479c-0.145,54.482 -43.665,119.173 -45.653,119.951c-23.41,9.16 -139.93,-17.61 -119.687,-76.581c25.336,-73.805 45.964,-100.809 62.111,-109.849Zm1463.509,103.145c34.423,-16.356 60.985,-46.551 78.707,-71.052c11.398,3.469 21.06,11.985 46.294,38.181c73.327,76.126 7.999,117.206 -37.096,117.206c-7.662,-0 -95.018,-45.922 -87.904,-84.336Z" style="fill:#635f66;"/><path id="color11" serif:id="color1" d="M1758.973,2716.297c2.924,2.404 83.904,7.157 100.451,8.074c115.114,6.379 87.394,16.062 97.316,17.196c400.911,45.818 580.616,464.764 612.955,542.83c178.581,431.1 -51.331,845.533 -410.392,1070.923c-148.942,93.494 -480.353,97.06 -488.599,95.887c-264.759,-37.659 -428.263,-83.139 -632.556,-376.254c-342.356,-491.207 -79.387,-1342.764 720.826,-1358.657Z" style="fill:#ead2ad;"/></g><g id="line5" serif:id="line"><path id="line31" serif:id="line3" d="M2489.951,4354.165c-17.722,24.5 -44.284,54.695 -78.707,71.052c4.179,-22.569 -63.629,-84.048 -79.077,-104.076c21.803,-16.633 42.981,-34.283 63.424,-52.962c68.745,74.107 66.195,76.453 72.689,82.887c9.325,0.854 15.733,1.292 21.67,3.099Zm-1438.988,34.386c-53.802,-11.571 -85.487,-42.599 -103.228,-66.479c14.118,-7.904 24.811,-2.074 32.23,-1.784l15.786,-30.001c11.895,-22.594 21.085,-40.011 28.267,-53.561c5.13,-3.944 10.578,-8.127 16.498,-12.636c3.974,-3.026 8.16,-6.2 12.605,-9.547c14.156,16.165 29.169,32.283 45.091,48.283l-1.208,2.416c-17.016,33.921 -23.432,41.917 -53.564,88.799c5.374,10.412 7.556,22.2 7.523,34.509Zm42.984,-1549.968c-8.846,-17.424 -17.751,-36.182 -27.016,-56.26c26.962,-16.991 52.704,-28.163 73.957,-35.492c12.632,23.761 24.612,44.182 35.897,61.736c7.533,11.717 14.756,22.157 21.658,31.461c-24.163,17.881 -47.965,37.002 -71.162,57.376c-11.407,-17.518 -22.324,-37.135 -33.333,-58.821Zm251.18,-117.934c-17.121,-24.962 -28.933,-41.078 -37.225,-51.9c-14.492,9.283 -33.753,24.595 -82.418,66.442c5.828,8.929 13.941,21.746 24.883,40.357c-22.709,11.571 -47.532,22.597 -73.582,33.017c-11.285,-17.554 -23.264,-37.975 -35.897,-61.736c-21.253,7.329 -46.995,18.501 -73.957,35.492c9.266,20.078 18.171,38.837 27.016,56.26c-157.017,51.84 -324.363,82.236 -339.325,80.505c-35.48,-4.105 -56.836,-12.83 -74.376,-34.769c69.961,-107.658 263.327,-207.539 358.23,-247.709c240.308,-101.717 386.834,-96.722 465.802,-77.21c0.425,2.72 0.62,4.934 0.563,6.591c-1.501,44.036 -86.179,107.949 -159.714,154.66Zm1479.432,187.601c4.513,-19.256 8.226,-37.862 11.395,-54.52c29.185,1.634 40.386,5.664 75.747,23.77c-4.245,16.244 -8.86,33.846 -13.899,51.851c-17.94,64.1 -41.254,133.298 -72.409,164.452c-62.082,62.082 -82.775,55.888 -222.499,93.566c-9.752,-22.923 -20.502,-45.873 -32.329,-68.674c66.076,-11.107 111.489,-9.446 164.26,-38.936c47.605,-26.603 73.711,-103.147 89.734,-171.509Zm-396.811,-234.843c214.439,-32.077 637.168,110.787 842.391,245.354c-12.689,30.502 -29.562,40.086 -66.999,43.489c-96.7,8.791 -203.125,-6.344 -305.338,-32.9c5.039,-18.004 9.654,-35.607 13.899,-51.851c-35.361,-18.106 -46.562,-22.136 -75.747,-23.77c-3.168,16.658 -6.882,35.265 -11.395,54.52c-209.421,-66.077 -385.151,-169.455 -396.689,-193.054c-2.85,-5.83 -2.59,-20.757 -0.123,-41.789Z" style="fill:#443c5b;"/><path id="line21" serif:id="line2" d="M2232.747,2702.034c28.909,12.332 57.626,25.375 98.018,52.478m-1805.523,-261.712c-135.071,-45.238 19.805,-142.288 192.147,-221.822c134.957,-62.282 280.625,-113.823 306.157,-121.332c262.757,-77.281 424.93,-47.442 353.063,56.05m-199.825,602.872c26.05,-10.421 50.873,-21.446 73.582,-33.017m94.76,-54.9c73.536,-46.71 158.213,-110.624 159.714,-154.66c0.056,-1.657 -0.138,-3.87 -0.563,-6.591c-7.914,-50.644 -95.647,-276.861 -127.669,-353.704c-2.582,-6.195 -4.801,-11.42 -6.588,-15.503m-861.194,262.76c5.704,13.682 11.17,26.96 16.414,39.847c26.462,65.036 47.247,120.107 64.212,166.761c46.01,126.53 63.923,191.149 90.792,224.758c17.54,21.94 38.896,30.664 74.376,34.769c14.962,1.731 182.308,-28.665 339.325,-80.505m-413.701,45.736c69.961,-107.658 263.327,-207.539 358.23,-247.709c240.308,-101.717 386.834,-96.722 465.802,-77.21m1002.717,-246.309c-34.869,-29.378 -83.341,-108.498 106.023,-127.598c129.137,-13.025 510.273,1.381 760.767,239.832c59.039,56.201 55.145,103.677 -1.96,107.117m-854.246,-260.05c-1.489,5.664 -5.305,20.187 -10.583,40.699c-21.942,85.281 -69.134,274.098 -79.247,360.318c-2.467,21.032 -2.728,35.959 0.123,41.789c11.537,23.599 187.268,126.977 396.689,193.054m73.242,21.101c102.213,26.556 208.638,41.691 305.338,32.9c37.437,-3.403 54.31,-12.987 66.999,-43.489c20.885,-50.203 30.436,-157.073 101.686,-386.321c1.449,-4.663 2.924,-9.377 4.425,-14.142m-948.502,155.109c214.439,-32.077 637.168,110.787 842.391,245.354m-434.185,-65.032c-3.168,16.658 -6.882,35.265 -11.395,54.52c-16.023,68.362 -42.128,144.906 -89.734,171.509c-52.771,29.49 -98.184,27.828 -164.26,38.936m32.329,68.674c139.724,-37.678 160.417,-31.484 222.499,-93.566c31.154,-31.154 54.469,-100.352 72.409,-164.452c5.039,-18.004 9.654,-35.607 13.899,-51.851m-75.747,-23.77c29.185,1.634 40.386,5.664 75.747,23.77m-1844.77,-95.178c9.266,20.078 18.171,38.837 27.016,56.26c11.009,21.685 21.926,41.302 33.333,58.821m13.608,-150.573c12.632,23.761 24.612,44.182 35.897,61.736c7.533,11.717 14.756,22.157 21.658,31.461m-131.512,-57.705c26.962,-16.991 52.704,-28.163 73.957,-35.492m-175.965,332.249c-85.292,124.14 -144.201,275.691 -152.483,455.904m0.124,91.125c1.065,22.427 2.893,45.258 5.525,68.494c3.586,31.663 22.976,238.605 182.065,454.131m52.968,65.808c14.156,16.165 29.169,32.283 45.091,48.283m0,0c56.344,54.672 136.723,120.74 216.917,169.358m89.612,46.654c91.005,37.655 200.808,55.839 317.42,53.253m101.17,-7.312c94.416,-11.486 190.947,-36.163 283.686,-74.673m96.931,-46.196c68.19,-36.953 132.948,-82.101 191.643,-135.731c46.222,-42.234 88.685,-89.727 126.103,-142.619m54.908,-88.401c63.291,-116.969 103.808,-255.713 111.356,-417.337m-2.742,-103.153c-8.131,-92.954 -31.898,-210.774 -82.324,-329.3c-9.752,-22.923 -20.502,-45.873 -32.329,-68.674c-10.563,-20.365 -21.985,-40.612 -34.322,-60.616m-53.595,-77.426c-49.925,-64.394 -111.053,-124.189 -185.543,-174.65m-589.425,-164.27c-83.436,-2.42 -213.49,29.881 -348.901,99.034m-96.534,55.344c-21.432,13.703 -42.753,28.339 -63.802,43.915c-24.163,17.881 -47.965,37.002 -71.162,57.376c-39.169,34.402 -76.61,72.376 -111.138,113.983m1182.959,-262.168c-39.247,-19.248 -81.477,-36.135 -126.899,-50.209c-130.213,-40.348 -189.593,-54.807 -260.45,-55.673m-107.548,-62.711c32.833,-2.438 67.444,-5.979 103.923,-5.966m-103.923,5.966c0.984,18.814 2.192,40.703 3.476,61.109m100.447,-67.075c1.182,26.243 1.855,39.277 3.625,68.677m420.995,58.699c-10.485,14.605 -22.758,31.593 -33.646,47.184m131.664,5.294c-7.496,12.145 -18.186,28.891 -33.66,51.491m234.693,153.773c-11.168,4.839 -26.793,11.529 -49.15,20.877m49.15,-20.877c14.716,18.992 35.443,41.805 56.568,66.693m0,-0c-17.105,10.389 -36.126,21.919 -52.124,31.611m148.975,458.589c22.416,-0.349 53.538,-0.298 76.631,0.062m-0,-0c1.946,29.093 4.125,66.252 4.859,100.671m-78.748,2.42c27.587,-2.559 50.31,-2.669 78.748,-2.42m-245.012,508.158c24.78,20.049 39.055,30.199 62.161,45.583m-7.253,-133.984c17.745,15.056 36.576,25.533 60.345,39.253m-53.092,94.731c22.406,-40.873 31.42,-58.083 53.092,-94.731m-529.93,373.694c8.271,13.147 18.407,29.709 30.661,50.592c4.412,7.519 8.005,13.845 11.269,19.712m55.001,-116.499c14.715,28.158 21.941,43.344 32.499,64.703m-87.5,51.796c31.819,-19.662 44.616,-27.011 87.5,-51.796m-514.287,63.478c0.406,19.322 0.83,33.594 1.501,50.212m99.669,-57.524c-0.61,13.939 -1.422,32.663 -2.524,57.822m-97.145,-0.298c41.103,-0.961 57.522,-1.712 97.145,0.298m-505.679,-150.417c-4.588,8.001 -10.012,17.417 -16.448,28.526c-5.67,9.787 -10.417,18.217 -14.39,25.45m120.451,-7.322c-5.627,10.925 -12.799,24.594 -22.935,42.577m-97.516,-35.255c26.985,9.377 64.621,22.505 97.516,35.255m-453.937,-327.539c8.222,-5.468 19.405,-12.735 35.065,-22.475c10.318,-6.417 22.58,-13.908 37.219,-22.666m-19.838,120.831c14.617,-10.418 27.594,-20.456 43.702,-32.84c5.13,-3.944 10.578,-8.127 16.498,-12.636c3.974,-3.026 8.16,-6.2 12.605,-9.547m-125.253,-20.668c15.914,25.272 37.208,54.979 52.447,75.691m15.436,20.72c1.487,1.971 2.582,3.414 3.208,4.238m-243.318,-756.037c20.727,-1.274 33.946,-2.781 56.798,-3.503m-55.595,93.118c17.867,-0.674 37.383,-1.372 55.72,-1.993m-56.922,-87.622c0.184,37.517 -0.099,55.043 1.202,89.615m209.296,-658.592c15.501,12.405 33.433,26.938 50.002,41.875m-107.524,36.048c15.113,9.505 27.706,16.535 56.305,31.646m-56.305,-31.646c12.166,-24.245 31.542,-53.71 57.523,-77.923m1363.517,1347.913c7.588,14.485 86.074,83.562 81.587,107.792c-7.114,38.414 80.243,84.336 87.904,84.336c45.095,0 110.424,-41.08 37.096,-117.206c-38.377,-39.842 -40.736,-38.786 -67.964,-41.28c-6.629,-6.567 -3.835,-8.876 -77.041,-87.571m-1367.222,-26.769c-7.182,13.55 -16.372,30.967 -28.267,53.561l-15.786,30.001c-15.906,-0.622 -46.854,-26.701 -94.342,111.633c-20.244,58.971 96.277,85.741 119.687,76.581c2.437,-0.954 67.292,-97.963 38.13,-154.46c30.132,-46.881 36.548,-54.878 53.564,-88.799l1.208,-2.416m127.272,-1527.634c5.828,8.929 13.941,21.746 24.883,40.357c3.639,6.19 7.592,13.021 11.877,20.562m-36.76,-60.92c48.665,-41.847 67.925,-57.16 82.418,-66.442m-0,0c8.292,10.822 20.104,26.938 37.225,51.9c4.219,6.151 8.761,12.84 13.652,20.119m-411.043,1581.303c17.741,23.881 49.426,54.908 103.228,66.479m1360.281,36.666c34.423,-16.356 60.985,-46.551 78.707,-71.052" style="fill:none;stroke:#3f3645;stroke-width:25px;"/><path id="line11" serif:id="line1" d="M1758.973,2716.297c-800.213,15.893 -1063.182,867.45 -720.826,1358.657c204.293,293.116 367.797,338.596 632.556,376.254c8.246,1.173 339.657,-2.393 488.599,-95.887c359.061,-225.39 588.973,-639.823 410.392,-1070.923c-32.339,-78.066 -212.044,-497.012 -612.955,-542.83c-9.922,-1.134 17.798,-10.817 -97.316,-17.196c-16.547,-0.917 -97.527,-5.67 -100.451,-8.074Z" style="fill:none;stroke:#3f3645;stroke-width:16.67px;"/></g></g></g></g></svg>